<svg xmlns="http://www.w3.org/2000/svg" xmlns:xlink="http://www.w3.org/1999/xlink" width="78" height="41" viewBox="0 0 78 41">
  <defs>
    <filter id="联合_1" x="0" y="0" width="78" height="41" filterUnits="userSpaceOnUse">
      <feOffset dy="3" input="SourceAlpha"/>
      <feGaussianBlur stdDeviation="1.5" result="blur"/>
      <feFlood flood-opacity="0.161"/>
      <feComposite operator="in" in2="blur"/>
      <feComposite in="SourceGraphic"/>
    </filter>
    <filter id="联合_1-2" x="0" y="0" width="78" height="41" filterUnits="userSpaceOnUse">
      <feOffset dy="1" input="SourceAlpha"/>
      <feGaussianBlur stdDeviation="1.5" result="blur-2"/>
      <feFlood flood-opacity="0.161" result="color"/>
      <feComposite operator="out" in="SourceGraphic" in2="blur-2"/>
      <feComposite operator="in" in="color"/>
      <feComposite operator="in" in2="SourceGraphic"/>
    </filter>
    <filter id="椭圆_1" x="3.5" y="1.5" width="32" height="32" filterUnits="userSpaceOnUse">
      <feOffset dy="-1" input="SourceAlpha"/>
      <feGaussianBlur result="blur-3"/>
      <feFlood flood-opacity="0.161" result="color-2"/>
      <feComposite operator="out" in="SourceGraphic" in2="blur-3"/>
      <feComposite operator="in" in="color-2"/>
      <feComposite operator="in" in2="SourceGraphic"/>
    </filter>
    <filter id="减去_1" x="8.999" y="8" width="21.001" height="21" filterUnits="userSpaceOnUse">
      <feOffset dy="1" input="SourceAlpha"/>
      <feGaussianBlur stdDeviation="0.5" result="blur-4"/>
      <feFlood flood-opacity="0.161"/>
      <feComposite operator="in" in2="blur-4"/>
      <feComposite in="SourceGraphic"/>
    </filter>
  </defs>
  <g id="组件_2_8" data-name="组件 2 – 8" transform="translate(3.5 1.5)">
    <g data-type="innerShadowGroup">
      <g transform="matrix(1, 0, 0, 1, -3.5, -1.5)" filter="url(#联合_1)">
        <path id="联合_1-3" data-name="联合 1" d="M12.7,32C5.687,32,0,24.837,0,16S5.687,0,12.7,0H56.3C63.313,0,69,7.163,69,16S63.313,32,56.3,32Z" transform="translate(4.5 1.5)" fill="#d9d9d9"/>
      </g>
      <g transform="matrix(1, 0, 0, 1, -3.5, -1.5)" filter="url(#联合_1-2)">
        <path id="联合_1-4" data-name="联合 1" d="M12.7,32C5.687,32,0,24.837,0,16S5.687,0,12.7,0H56.3C63.313,0,69,7.163,69,16S63.313,32,56.3,32Z" transform="translate(4.5 1.5)" fill="#fff"/>
      </g>
    </g>
    <g id="组_636" data-name="组 636" transform="translate(-1567 -40)">
      <g data-type="innerShadowGroup">
        <circle id="椭圆_1-2" data-name="椭圆 1" cx="16" cy="16" r="16" transform="translate(1567 40)" fill="#fdfdfd"/>
        <g transform="matrix(1, 0, 0, 1, 1563.5, 38.5)" filter="url(#椭圆_1)">
          <circle id="椭圆_1-3" data-name="椭圆 1" cx="16" cy="16" r="16" transform="translate(3.5 1.5)" fill="#fff"/>
        </g>
      </g>
      <g transform="matrix(1, 0, 0, 1, 1563.5, 38.5)" filter="url(#减去_1)">
        <path id="减去_1-2" data-name="减去 1" d="M-5627,0a9,9,0,0,1,9,9,9,9,0,0,1-9,9,9,9,0,0,1-9-9A9,9,0,0,1-5627,0Z" transform="translate(5646.5 8.5)" fill="#ffc936"/>
      </g>
      <g id="矩形_829" data-name="矩形 829" transform="translate(1582 43)" fill="#fff" stroke="#ffc936" stroke-width="1">
        <rect width="2" height="3" stroke="none"/>
        <rect x="0.5" y="0.5" width="1" height="2" fill="none"/>
      </g>
      <g id="矩形_830" data-name="矩形 830" transform="translate(1582 66)" fill="#fff" stroke="#ffc936" stroke-width="1">
        <rect width="2" height="3" stroke="none"/>
        <rect x="0.5" y="0.5" width="1" height="2" fill="none"/>
      </g>
      <g id="矩形_833" data-name="矩形 833" transform="translate(1574.476 61.761) rotate(49)" fill="#fff" stroke="#ffc936" stroke-width="1">
        <rect width="2" height="3" stroke="none"/>
        <rect x="0.5" y="0.5" width="1" height="2" fill="none"/>
      </g>
      <g id="矩形_836" data-name="矩形 836" transform="translate(1590.205 63.333) rotate(-51)" fill="#fff" stroke="#ffc936" stroke-width="1">
        <rect width="2" height="3" stroke="none"/>
        <rect x="0.5" y="0.5" width="1" height="2" fill="none"/>
      </g>
      <g id="矩形_834" data-name="矩形 834" transform="translate(1572.221 47.208) rotate(-47)" fill="#fff" stroke="#ffc936" stroke-width="1">
        <rect width="2" height="3" stroke="none"/>
        <rect x="0.5" y="0.5" width="1" height="2" fill="none"/>
      </g>
      <g id="矩形_835" data-name="矩形 835" transform="translate(1592.292 45.721) rotate(43)" fill="#fff" stroke="#ffc936" stroke-width="1">
        <rect width="2" height="3" stroke="none"/>
        <rect x="0.5" y="0.5" width="1" height="2" fill="none"/>
      </g>
      <g id="矩形_831" data-name="矩形 831" transform="translate(1570 57) rotate(-90)" fill="#fff" stroke="#ffc936" stroke-width="1">
        <rect width="2" height="3" stroke="none"/>
        <rect x="0.5" y="0.5" width="1" height="2" fill="none"/>
      </g>
      <g id="矩形_832" data-name="矩形 832" transform="translate(1593 57) rotate(-90)" fill="#fff" stroke="#ffc936" stroke-width="1">
        <rect width="2" height="3" stroke="none"/>
        <rect x="0.5" y="0.5" width="1" height="2" fill="none"/>
      </g>
    </g>
  </g>
</svg>
