<svg xmlns="http://www.w3.org/2000/svg" viewBox="0 0 474.01 394.94"><defs><style>.cls-1{fill:none;stroke:#fff;stroke-miterlimit:10;stroke-width:1.18px;}.cls-2{fill:#3c2f28;}.cls-3{fill:#9d8c5c;}.cls-4{fill:#584a3f;}.cls-5{fill:#624e42;}.cls-6{fill:#362923;}.cls-7{fill:#514439;}.cls-8{fill:#9b8a59;}.cls-9{fill:#5b483d;}.cls-10{fill:#514037;}.cls-11{fill:#6d5b4c;}.cls-12{fill:#765d50;}.cls-13{fill:#e88d12;}.cls-14{fill:#f4e427;}.cls-15{fill:#fff;}</style></defs><g id="圖層_2" data-name="圖層 2"><g id="圖層_1-2" data-name="圖層 1"><polygon class="cls-1" points="1.23 344.46 220.7 131.7 472.84 178.83 272.74 394.3 1.23 344.46"/><path class="cls-2" d="M158.14,236.46l-1.4,4.75-1.47,5-1.12,2.8-1,2.49-.37.87-.27,5.35-.91,2.29-2.11,5.19.2.72,1.89,6.62,1.65,5.76,3.53-2,.19.68-.69,5.08,4.62,4.2c.23-.36,3.13-.88,7.86-1.42h0c1.77-.23,10.56-3.33,20.05-6.66,11-3.85,23-8,26.06-8.29,29.2-2.77,76.83-5.89,78.32-4.56l0-6.17.08-.84.61-7.8,0-.25,2.6-3.5,2.62-2,.37-7.73.12-2.57-4.33-2.15L294,227.59l-1.37-5-2.17-7.09c-.91,3.08-129.75,23.76-132.33,20.94"/><path class="cls-3" d="M296.85,259.46a19.72,19.72,0,0,0-3.55-1.16h0l.61-7.8a20.07,20.07,0,0,1,4,.49l-.65,7.85-.42.62"/><path class="cls-4" d="M293.3,258.3l-1-.23a25.42,25.42,0,0,0-3.21-.7c-.93-.13-1.95-.24-3-.32l-.65-.05c-1.22-.09-2.49-.14-3.78-.18-2.72-1.19-5.71-2.53-8.88-4l3.05-.6c2.62-.44,5.28-.93,7.86-1.27a39,39,0,0,1,9.37-.51l.89,0-.61,7.8"/><path class="cls-4" d="M172.07,271.4a11.05,11.05,0,0,1-1.65.41,113.17,113.17,0,0,1-12.84.87c-2,0-4.07-.05-6-.15h0l-1.89-6.62c2.55.8,5.35,1.63,8.23,2.3,4.55.89,9.11,1.94,12.54,2.22.73.09,2.8-.43,5.63-1.3,3.08-.95,7.06-2.32,11.15-3.78l-.63.72c-6,2.32-11.66,4.45-14.52,5.33"/><path class="cls-4" d="M264.68,243.16,264,243c-.32-.08-.69-.2-1.13-.32a2,2,0,0,0,.07-.23c.42.16.76.33,1.05.45l.67.3m-81.77,13.32c-9.61,2.81-18.74,5.48-20.69,5.19-4.38-.71-8-1.28-10.64-1.67l.91-2.29.27-5.35.37-.87c2.55.65,6.05,1.57,10.2,2.65,1.37.36,6.47-.81,12.8-2.45l1.16,1.34c.21.44,2.25,1.66,5.62,3.45"/><path class="cls-4" d="M170.48,284.4a13.26,13.26,0,0,1-1.72.42h0l-.05-.1c.16-.11.83-.66,1.88-1.52.81-.57,1.77-1.45,2.93-2.16q-1.54,1.74-3,3.35"/><path class="cls-3" d="M301.44,237.89c-.21-.08-.87-.38-1.91-.89h0l.12-2.57-4.33-2.15L294,227.59a21.54,21.54,0,0,1,4.19.23l1.18,4.16,3.61,1.8-1.55,4.11"/><path class="cls-4" d="M299.53,237l-.67-.35a25.4,25.4,0,0,0-6.68-1.32c-2.16-.13-4.64-.15-7.28-.2-4.56,0-9.63.08-14.59.05h-5l.88-2.65h0c.15-.46.3-.92.45-1.36l3.44-.5c5.65-.72,11.18-1.62,16.22-2.3,2-.3,4-.5,5.86-.68.61,0,1.22-.09,1.83-.09h0l1.31,4.69,4.33,2.15-.12,2.57"/><path class="cls-4" d="M165.16,247.28a23.77,23.77,0,0,1-3.22.84c-2.78.35-5.45.6-7.79.88l1.12-2.8,1.47-5,5,.21c1.37.05,5.8-1.19,11.4-2.91l2.86-.89.13.92-.91,5.34c-4,1.41-7.62,2.63-10.11,3.4"/><polygon class="cls-5" points="290.47 215.52 287.6 225.26 286.32 228.36 285.04 231.42 284.89 235.13 284.81 236.77 281.75 244.25 283.65 250.97 285.4 257 285.5 257.35 286.05 257.05 289.38 255.18 289.07 257.37 288.52 261.11 293.19 265.31 296.85 259.46 297.27 258.84 297.92 250.99 297.99 249.95 300.59 246.45 303.21 244.42 303.66 234.12 302.99 233.78 299.38 231.98 298.2 227.82 296.64 222.31 290.47 215.52 290.47 215.52"/><path class="cls-2" d="M235.73,205.21l6.24,1.22,7,.91.89.12,3.14,3.08.31.33,6.43,1.66.9,5.18.37,2.1,3.21,5.8,1.93,3.55-1.67,4.57c-.4,3.48-70.31,82.26-79.55,96.77l-7.4-10.33-2.88,2.92-6.75-4.92-2.59,2.08-6.37-13.45,1.4-5.27-3.74-3.13c3,.61,79.59-89.63,79.13-93.19"/><path class="cls-4" d="M207.84,284.61s.38-.51,1.2-1.48a18.17,18.17,0,0,0,2.14-5,54.76,54.76,0,0,1,2.15-6.66l1,.46a52.11,52.11,0,0,0-2.64,6.45,17.69,17.69,0,0,1-2.5,4.87l-1.32,1.34"/><path class="cls-4" d="M179.22,321.82l-4-7.76,19-11.84c2.11-1.54,4.47-2.78,6.29-4.52s3.49-3.41,4.84-5l4.34-5.53-3.46,6.43c-1.1,1.89-2.63,3.93-4.19,6.25s-3.79,4-5.78,6.12c-8.17,7.75-16.48,15.28-17.11,15.86"/><path class="cls-4" d="M173.81,312.72l-6.78-4,2.48-4.8a71.69,71.69,0,0,1,5.88-10.16l4.22-6.16c1.64-2,3.46-3.95,5.28-6l2.77-3.13c1.05-.9,2.09-1.82,3.15-2.74,2.12-1.8,4.23-3.76,6.39-5.43,1.86-1.31,3.63-2.63,5.27-4l3.25,1.57a71.28,71.28,0,0,1-6.44,6.16c-2,1.88-3.82,3.94-5.7,5.86l-2.77,2.89L188.43,286c-1.56,2.14-3.11,4.15-4.5,6.15q-1.83,3.25-3.47,6.14a67.26,67.26,0,0,0-4.71,9.89l-1.94,4.58"/><polygon class="cls-5" points="156.59 298.4 162.82 299.62 170.74 300.68 174.15 304.07 180.58 305.73 181.87 313.01 187.02 322.37 185.34 326.97 184.92 330.53 179.36 329.17 174.6 323.65 171.72 326.54 164.98 321.64 162.38 323.71 156.02 310.24 157.43 304.99 156.59 298.4 156.59 298.4"/><path class="cls-6" d="M243.23,192.05l3.56-.46,3.74-.48,2.2-.62,2-.56.68-.21,3.61,1,1.79-.49,4.07-1.17.42.41,3.76,3.81,3.27,3.31-2.41,3.59.39.38,3.56.44,1.32,6.38c-.32.17-1.55,3.39-3.39,8.72l0,0c-1.52,4.31-3.39,9.88-5.53,16.39-10.94,33.06-27.84,87.31-27.44,89.35l-4.07-1.47-.58-.11-5.32-1.2-.17,0-3.11,2.15-2.16,2.54-5.2-1.47-1.73-.49-.06-5.51-2.67-2.67-2.85-2.81-4-4.23c2.32-.3,37.43-110.86,36.38-114.52"/><path class="cls-7" d="M234.12,320.29h0l-5.32-1.2.26-1a79.69,79.69,0,0,1,3.25-10.7c1-2.89,2.18-5.84,3.29-8.76,1.94-4.84,3.82-9.63,5.3-13.81l1.36.65c-1,4.45-2.41,9.54-3.81,14.59-1,3.72-1.94,7.38-2.71,10.83l-.17.77c-.29,1.24-.52,2.45-.74,3.57-.25,1.36-.4,2.66-.54,3.86l-.17,1.24"/><path class="cls-7" d="M260.38,221.36s.54-2.71,1.37-6.81,1.62-9.55,2.45-15c.45-3.48.78-6.92,1.06-10.07l3.76,3.81c-.54,2.28-1.15,4.64-1.78,7-1.62,5.43-3.1,10.76-4.57,14.62s-2.29,6.49-2.29,6.49"/><path class="cls-7" d="M233.09,283.53l0-.84c0-.44,0-1,0-1.66a1.11,1.11,0,0,1,.19.09c-.07.63-.11,1.16-.16,1.6l-.08.81m17.62-41-2.65-1.27a29.63,29.63,0,0,0,.87-3.83c1.23-5.93,1.66-12.44,2.43-18.41s1.33-11.74,1.88-16.67,1.08-9.32,1.45-12.42l.68-.21,3.61,1,1.79-.49c-.56,3.13-1.33,7.47-2.22,12.71-.88,4.92-1.86,10.55-2.9,16.56s-2,12.3-3.71,18.88a33.26,33.26,0,0,1-1.23,4.17"/><path class="cls-7" d="M257.83,245.92l-1.47-.7,4-9.73c2.05-4.86,4.22-9.87,6.6-13.46a27,27,0,0,1,3.19-4.22c.9-1,1.47-1.65,1.59-1.8l.05.07,0,0c-1.52,4.31-3.39,9.88-5.53,16.39h0c-1.09,1.61-2.24,3.4-3.36,5.2l-5,8.2"/><path class="cls-8" d="M218.16,324.71l-3.19.79-.06-4.62-2.37-2.37a42.35,42.35,0,0,1,1.16-4.9h0l2.67,2.67.06,5.51,1.73.49c0,1.33,0,2.17,0,2.43"/><path class="cls-7" d="M218.16,322.28h0l-1.73-.49-.06-5.51-2.67-2.67.62-2.09c.7-2.1,1.45-4.34,2.28-6.6,2-5.67,4.34-11.83,6.57-18.18l3.26-8.95,2.14,1c-.81,3-1.65,6.14-2.48,9.27-1.54,5.73-3.17,11.58-4.59,16.83-.79,3.07-1.56,5.94-2.14,8.46a50.24,50.24,0,0,0-1.21,8.05v.85"/><path class="cls-7" d="M238.85,236.8l-1-.47.4-.62c.85-1.29,1.77-2.71,2.76-4.21.45-.74.95-1.52,1.46-2.33a5.06,5.06,0,0,0,.86-2.24,4,4,0,0,0-.53-2c-.43-.72-1-1.45-1.55-2.56a7.81,7.81,0,0,1-.73-4.67,39.45,39.45,0,0,1,.89-4.29c1.28-5.27,2.64-10.81,3.9-15.94.51-2,1-4,1.44-5.88l3.74-.48,2.2-.62c-.91,2.65-1.91,5.67-3,8.8-1.7,4.91-3.55,10.29-5.3,15.34a29.94,29.94,0,0,0-1.08,3.4,3.9,3.9,0,0,0,.08,2.36c.32.84.77,1.79,1.21,2.84a7.82,7.82,0,0,1,.46,3.8,9.09,9.09,0,0,1-1.49,3.43c-.58.79-1.11,1.55-1.65,2.24-1.07,1.41-2,2.71-2.95,3.91l-.14.19"/><polygon class="cls-9" points="206.85 306.57 214.16 305.63 216.6 304.92 219.01 304.19 221.5 304.92 222.6 305.23 228.48 303.52 232.31 307.36 235.74 310.85 235.93 311.05 235.56 311.62 233.3 315 234.83 315.19 237.47 315.46 238.77 321.87 233.78 324.68 233.24 325 227.88 323.83 227.17 323.67 224.06 325.81 221.9 328.35 214.99 326.35 214.97 325.5 214.91 320.88 212.54 318.51 209.4 315.36 206.85 306.57 206.85 306.57"/><path class="cls-10" d="M195.05,213.24l-5.39,4-6.2,4.13-.79.52-1.94,4.31-.19.45-5.43,4.54.77,5.21.3,2.11L175,245.4l-.68,4.19,3,3.44c1.44,3,90.51,43.31,103.55,52.42l3.64-13,3.57,1.34,4.73-7.69,3,.72,1.72-15.42-2.91-4.22,2.49-4.64c-2.62,2-101.39-45.79-102.06-49.31"/><path class="cls-11" d="M245.43,273.69l-1.63-.62a14.44,14.44,0,0,1-3.82-3.34c-1.48-1.62-3-3.86-5.26-5.36a5.63,5.63,0,0,0-3.67-.92c-1.37.19-2.82.76-4.5,1-3.34.46-6.89-.68-10.06-2.58a57.05,57.05,0,0,1-8.72-7c-1.36-1.19-2.64-2.45-4-3.48l-1-.73-.57-.38-.87-.43-.77-.31c-.12.63-.12,1.84-.18,2.67-.09,1.87-.17,3.68-.26,5.4-3.44-1.61-6.71-3.19-9.77-4.62-2.08-1-4-1.84-5.8-2.64-3.68-1.56-6.6-3.4-9.15-4.69l-.41-.2,1.17-6.86-.3-2.11c.74.51,1.61,1,2.55,1.65,2.37,1.41,5.13,3.49,8.64,5.29,1.7.93,3.55,1.93,5.52,3l1.47.82.53.37.94.61c.27-1.63.52-3.31.78-5l.23-1.32.1-.7v-.31l.25-.09c1.1.75,2.27,1.46,3.42,2.18s2.28,1.42,3.3,2.18c.85.73,1.72,1.52,2.57,2.25,1.36,1.3,2.59,2.74,3.92,4.12a58.55,58.55,0,0,0,7.68,7.54,14.33,14.33,0,0,0,8.62,3.21c1.49,0,3-.43,4.54-.52a7,7,0,0,1,4.33,1.56c2.35,1.88,3.71,4.34,5.07,6.06a14.85,14.85,0,0,0,3.51,3.61c1.06.51,1.57.81,1.57.81"/><path class="cls-11" d="M283.44,294.77c-.77-.25-10.79-3.34-20.74-6.69-2.5-1.05-5.05-1.67-7.25-3s-4.2-2.59-5.8-3.82l-5.21-4.34,5.74,3.09c1.74.85,3.85,1.51,6,2.38s4.78.8,7.21,1.25l21.3,2.07-1.28,9"/><path class="cls-11" d="M285.62,283.81l-3.22-3.32c-1.83-1.8-4.12-4.63-7.42-6.95l-5.11-4.07c-1.9-1.2-4-2.33-6.06-3.58L260.6,264l-3.45-1.38c-2.34-.9-4.65-2-7.09-2.76-4.87-1.33-10.14-3.25-14.29-6.34s-7.63-6.2-10.75-8.78l-10.34-8.56,10.95,7.37c3.29,2.21,7.15,4.86,11.27,7.48,4.18,2.44,8.8,3.59,13.93,4.42,2.52.53,5.08,1.37,7.6,2.05l3.76,1.07,3.53,1.6c2.33,1.07,4.62,2.05,6.75,3.12l5.81,3.73c3.74,2.14,6.46,4.87,8.59,6.64l3.78,3.3-5,6.85"/><path class="cls-11" d="M199.2,232.13l-14.06-4.19c-1.48-.55-3-1.17-4.41-1.71l1.94-4.31.79-.52c1,.8,2.09,1.59,3.13,2.41l12.61,8.32"/><polygon class="cls-12" points="297.12 262.55 291.73 266.59 284.73 271.25 282.63 275.98 277.19 280.52 278.25 287.85 276.39 298.9 279.37 302.38 280.86 305.47 285.58 301.62 288.27 294.3 291.83 295.63 296.55 287.95 299.59 288.66 301.3 273.23 298.38 269.03 297.12 262.55 297.12 262.55"/><path class="cls-13" d="M263.23,182.46c-2.76-6.58-7.6-11.33-11.64-16.8l.1.67a14.48,14.48,0,0,0-.77-2.12,24,24,0,0,1-.79-2.66,14.8,14.8,0,0,1-.11-5.93,20.29,20.29,0,0,1,4.38-9A21,21,0,0,0,241.9,158a36.18,36.18,0,0,0-2.25,8.37,11.6,11.6,0,0,0,0,3.48c.19,1.9.22,3.84.52,5.72a19.07,19.07,0,0,1-6.3-12.4c-.53-4.89.36-9.92,1.57-14.66,2.39-9.37,6.18-18.2,7.23-27.94.62-5.86.46-12-1.36-17.48a20.17,20.17,0,0,0-10.53-12.33,20.07,20.07,0,0,1,4.58,10.69,23.44,23.44,0,0,1-1.79,10.63c-2.94,7.45-8.08,13.63-12.84,19.63-1.42,1.79-2.86,3.59-4.21,5.45,2.58-11.37,6.19-23,4.75-34.78a41.2,41.2,0,0,0-15.42-27c-7.19-5.8-15.61-9.56-21.94-16.73-3.18-3.59-6.27-8.21-6-13.72a53.57,53.57,0,0,1,1.63-10.37c-6.13,8.71-5.37,20.09-.91,29.1,4.91,10,13.3,16.56,19.06,25.74a23.76,23.76,0,0,1,3.85,10.41c.34,3.8-.72,7.64-2,11.16-2.62,7.1-6.73,13.36-9.74,20.26.06-9-1.29-18.38-6-25.68s-11.93-11.78-18.87-15.73c7,8.73,14.36,19.29,11.87,32.22-1.16,6-3.55,11.65-5.53,17.37a99.85,99.85,0,0,0-4.49,17.54c-.3,1.92-.53,3.86-.69,5.8-4.82-9.31-12.61-17.49-22.72-17.34,17,7,14.23,31.21,14.26,48,0,12.62,2.09,24.88,8.09,35.39a55.71,55.71,0,0,0,21.07,21.17,46.84,46.84,0,0,0,26,6,52.15,52.15,0,0,0,24.72-8.75c13.83-9.07,26.06-25,28.45-43.33a43.94,43.94,0,0,0,0-11.85,40.17,40.17,0,0,0-1.24-5.68c-.3-1-.63-1.94-1-2.89l-.51-1.23.58,1.5.63,1.57-.23-.6c-.29-.73-.58-1.47-.86-2.2-2.86-6.82,2.81,7.17,0,0Z"/><path class="cls-13" d="M151.51,138.07c-1.64,1.14-3.6-.31-4.36-2a10.55,10.55,0,0,1-.7-4.8c.05-.77.1-1.56.17-2.33a4.87,4.87,0,0,0-.24-2.55c-.92-1.46-2.51-4-1.24-5.83,1,1.5,2.9,1.23,4.22,2.22a6.81,6.81,0,0,1,2.57,4.92,11.25,11.25,0,0,1-.11,2.84,23.62,23.62,0,0,1-.72,2.9l-.34,1.48,0-.15a3.61,3.61,0,0,0,.78,3.3Z"/><path class="cls-13" d="M161,114.05c-6.26,2.1-11.36-1.93-12-6.57-.5-3.42,1.29-6.89,2.15-10.39.8-3.22-.68-6-2.55-8.24a8.91,8.91,0,0,1,7.14,1.9c2.18,1.81,2.86,4.41,2.69,7.22a25.58,25.58,0,0,1-1.35,5.61,13.89,13.89,0,0,0-.56,3.19l.06,1.37.17.47.07.34c.47.64.64,1.52,1.1,2.19a13.15,13.15,0,0,0,3.12,2.91Z"/><path class="cls-13" d="M200.08,53.79c-2.1,1.2-4.31.59-6.07-1-1.15-1-3-3.44-3-5.16l-.38-1.73a14.6,14.6,0,0,1-.14-3.56,37.4,37.4,0,0,1,1.62-9.08l0,.22a36.12,36.12,0,0,0,.92-6.63,28.78,28.78,0,0,0-2.22-11.21c7.33-.51,11.65,8.54,11.45,15.9a27.59,27.59,0,0,1-1.68,8.14,50.32,50.32,0,0,0-2.23,7v-.26a9.16,9.16,0,0,0-.22,3.38,6.54,6.54,0,0,0,2.05,4Z"/><path class="cls-13" d="M227.94,78.73a11.45,11.45,0,0,1-6.53-.45c-1.4-.52-3.55-1.9-4.2-3.12a21.66,21.66,0,0,1-1.83-3.67,17.49,17.49,0,0,1-.21-8.54c.88-4.39,3.11-8.21,4.51-12.39l.06.3.09-1.49a8.87,8.87,0,0,0,0-2.06,6,6,0,0,0-2-3.55c2.13-1.4,4.59-.44,6.24,1.29,2.24,2.34,3.08,5.82,2.9,9.29s-1.29,6.61-2.29,9.83a38.17,38.17,0,0,0-1.07,4.34l-.18,1.08.25,1.08-.21-.41.22.92a12.14,12.14,0,0,0,1.43,3.15c.88,1.49,1.95,2.85,2.76,4.4Z"/><path class="cls-13" d="M245.67,95.79a4.36,4.36,0,0,1-4-1.19,8.46,8.46,0,0,1-2.38-5.3c-.22-2.73,1-5.24,1.38-7.89l0,.11h0a13.34,13.34,0,0,0-.29-2.53,11.14,11.14,0,0,0-1.05-2.54c1.81-.19,3.46,1.12,4.35,2.79a8.41,8.41,0,0,1,.88,4.57c-.13,1.89-.89,3.68-1,5.57a9.94,9.94,0,0,0,.54,3.73,11.9,11.9,0,0,0,1.56,2.69Z"/><path class="cls-13" d="M251.5,137.05a3.11,3.11,0,0,1-2.22-2.58,5.66,5.66,0,0,1,0-3.08l.27-1.17.63-1.66c.35-.81.65-1.64,1-2.43l0,.17v0l.28-1.29a4.28,4.28,0,0,0-.74-2.43c-.82-1.54-2-4.06-.53-5.69.54,1.88,2.36,2.3,3.62,3.4a6.52,6.52,0,0,1,2.11,5.78,9.79,9.79,0,0,1-.77,2.69,12.14,12.14,0,0,1-1.45,2.47l-1.31,1.86.06-.15-.8,1.5a4.24,4.24,0,0,0-.13,2.63Z"/><path class="cls-13" d="M166.72,74.92a11.89,11.89,0,0,1-11.44-3.29,7.81,7.81,0,0,1-1.78-2.36L153,68.12a10.63,10.63,0,0,1-.92-3,21.42,21.42,0,0,1,.33-8.3,84.61,84.61,0,0,1,3.41-10.35,30.3,30.3,0,0,0,1.49-4.9c0-.15.05-1.51.26-.89a28.39,28.39,0,0,0-.44-4,7.22,7.22,0,0,0-3.28-4.16c3.79-1.93,7.44-.59,10.14,1.47,1.66,1.09,2.74,3.31,3.34,5.09a17.15,17.15,0,0,1,.64,6.76c-.58,6.7-4.82,13.26-5,19.87l-.09-.31v0c0,3.87,1.65,6.6,3.85,9.48Z"/><path class="cls-13" d="M175.77,28.19c-4.22,1-7.51-3.48-7.87-7.78-.25-3,.81-5.9,2-8.53a19.81,19.81,0,0,0,1.94-5.16v0l.06.19a20.2,20.2,0,0,0-.55-3.74,11,11,0,0,0-1.57-2.9c4.14-1.36,7.56,3.16,8,7.43a15.61,15.61,0,0,1-1.73,8c-.6,1.31-1.25,2.58-1.78,3.92a5.45,5.45,0,0,0-.45,2.13l0-.25v0a11.68,11.68,0,0,0,1.92,6.69Z"/><path class="cls-14" d="M242.37,214.73c-1.55-3.71-4.27-6.39-6.55-9.47l.05.38-.43-1.19-.45-1.51a8.29,8.29,0,0,1-.05-3.33,11.3,11.3,0,0,1,2.46-5.07,11.8,11.8,0,0,0-7,6.41,20.87,20.87,0,0,0-1.27,4.71,6.71,6.71,0,0,0,0,2c.1,1.08.12,2.16.29,3.23a10.79,10.79,0,0,1-3.55-7,23.57,23.57,0,0,1,.89-8.26c1.34-5.27,3.48-10.26,4.06-15.73A23.63,23.63,0,0,0,230,170a11.43,11.43,0,0,0-5.94-7,11.27,11.27,0,0,1,2.58,6,13.23,13.23,0,0,1-1,6c-1.65,4.19-4.54,7.67-7.23,11-.8,1-1.6,2-2.37,3.08,1.46-6.4,3.49-13,2.68-19.59A23.24,23.24,0,0,0,210,154.4c-4-3.27-8.79-5.38-12.35-9.41-1.79-2-3.54-4.63-3.39-7.73a29.82,29.82,0,0,1,.92-5.85c-3.45,4.91-3,11.32-.52,16.4,2.78,5.6,7.5,9.32,10.73,14.49a13.33,13.33,0,0,1,2.18,5.86,14.76,14.76,0,0,1-1.14,6.29c-1.48,4-3.79,7.52-5.48,11.4,0-5.1-.73-10.35-3.39-14.46s-6.72-6.63-10.63-8.85c3.92,4.91,8.09,10.86,6.68,18.14a71.75,71.75,0,0,1-3.11,9.78,57.28,57.28,0,0,0-2.53,9.88c-.16,1.08-.29,2.17-.38,3.26-2.72-5.24-7.11-9.84-12.8-9.76,9.57,3.93,8,17.58,8,27,0,7.11,1.18,14,4.55,19.93a31.38,31.38,0,0,0,11.87,11.92,26.35,26.35,0,0,0,14.64,3.37,29.15,29.15,0,0,0,13.92-4.93c7.79-5.1,14.68-14,16-24.4a24,24,0,0,0,0-6.67,22.34,22.34,0,0,0-.7-3.19l-.56-1.63-.29-.69.33.84.35.88-.12-.34-.49-1.23c-1.61-3.84,1.59,4,0,0Z"/><path class="cls-15" d="M223.64,234.92c-3.52,10.11,6.06,15.16-5.55,20.92-4.55,2.25-19.76-1.75-17-15.2,4.35-14.62,10-16.46-1.64-39.86,4.16,2.58,29.81,18,24.19,34.14Z"/></g></g></svg>