<svg xmlns="http://www.w3.org/2000/svg" viewBox="0 0 174.5 332.01"><defs><style>.cls-1{fill:#587ddb;}.cls-2,.cls-3{fill:none;stroke:#353535;stroke-miterlimit:10;}.cls-2{stroke-width:3px;}.cls-3{stroke-width:3.3px;}.cls-4,.cls-5{font-size:25.94px;}.cls-4,.cls-6,.cls-8{fill:#343535;}.cls-4,.cls-5,.cls-7,.cls-8{font-family:HiraKakuStdN-W8-83pv-RKSJ-H, Hiragino Kaku Gothic StdN;}.cls-11,.cls-5,.cls-7{fill:#fff;}.cls-7{font-size:6px;}.cls-8{font-size:12.5px;}.cls-9{letter-spacing:-0.08em;}.cls-10{fill:#232323;}.cls-12{fill:#e74340;}.cls-13{fill:#ea5754;}</style></defs><g id="圖層_2" data-name="圖層 2"><g id="圖層_1-2" data-name="圖層 1"><path class="cls-1" d="M149.23,11.57c-9.7,0-17.86-4.9-20.27-11.57H118.19c-2.41,6.67-10.57,11.57-20.27,11.57S80.05,6.67,77.64,0H66.88C64.46,6.67,56.3,11.57,46.6,11.57S28.74,6.67,26.32,0H15.56c-2,5.55-8,9.88-15.56,11.18V312.39c9.33,1.6,16.29,7.83,16.29,15.28a11.86,11.86,0,0,1-.82,4.34H26.41a12.07,12.07,0,0,1-.81-4.34C25.6,319,35,312,46.6,312s21,7,21,15.68a12.08,12.08,0,0,1-.82,4.34H77.73a12.08,12.08,0,0,1-.82-4.34c0-8.66,9.41-15.68,21-15.68s21,7,21,15.68a12.07,12.07,0,0,1-.81,4.34H129a12.07,12.07,0,0,1-.81-4.34c0-8.66,9.4-15.68,21-15.68s21,7,21,15.68a12.08,12.08,0,0,1-.82,4.34h5.08V0h-5C167.1,6.67,158.93,11.57,149.23,11.57Z"/><polyline class="cls-2" points="149.23 27.73 149.23 297.66 34.21 300.66"/><line class="cls-3" x1="25.6" y1="128" x2="25.6" y2="204"/><text class="cls-4" transform="translate(30.73 190.91)">TICKET</text><text class="cls-5" transform="translate(30.73 159.12)">2<tspan class="cls-6" x="20.05" y="0" xml:space="preserve"> days</tspan></text><text class="cls-5" transform="translate(44.44 240.31)">1300</text><text class="cls-7" transform="translate(46.59 216.05)">TWD</text><text class="cls-8" transform="translate(7.94 137.92) rotate(90)">365476</text><text class="cls-8" transform="matrix(0, 1, 1, 0, 167.39, 137.92)">365476</text><text class="cls-7" transform="translate(38.8 287.51)">2022/08/13 - 2022/08/14</text><text class="cls-7" transform="translate(38.8 278.68)">D<tspan class="cls-9" x="5.14" y="0">A</tspan><tspan x="9.88" y="0">TE</tspan></text><path class="cls-10" d="M55.48,90.09l-.12-.25-.19.21L55,89.81l-.17.22-.16-.23-.12.25-.19-.2-.11.25-.19-.2-.14.25-.25-.23-.26.23-.25-.23-.26.23-.25-.23-.09.21V89.9l-.11.2v-.23L52.3,90l.23-.11-.2-.13.23-.06-.2-.14.24-.06-.15-.3.28-.19-.17-.3.27-.21-.19-.29.28-.39-.17-.46L53,87l-.17-.46.28-.4,0-1.07.41-1,0-1.07.4-1,0-1.08.27-.37-.18-.43.28-.38L54,79.27l.26-.36.16-.18.31.2.27-.25.29.23.37-.17-.22.14.21.13-.24,0,.21.14-.24,0,.19.12-.22-.07.19.13-.22-.07.19.11-.24.2.21.25-.25.21.21.26-.25.21,0,1.07-.41,1,0,1.08-.41,1,0,1.08-.28.4.18.45-.28.4.17.45-.28.4.18.3-.27.22.18.31-.27.23.17.28,0,.11v-.23l.1.21,0-.24.09.22.28-.23.29.23.3-.23.3.23.3-.23.3.26.34-.18.3.26.35-.18.3.26-.07-.19.18.14-.16-.16.18.14-.07-.21.24.23.25-.23.25.23.25-.23.2.21.14,0-.24.07.2.15-.25.08.2.18-.21-.11.08.22-.17-.16.07.22L58.22,90l-.37.23L57.47,90l-.38.23L56.71,90l-.39.23L56.16,90l-.18.2-.14-.24-.2.19Z"/><path class="cls-10" d="M59.82,89.88l0-.27-.26.08.06-.26-.27,0,.09-.25L59.09,89l.06-.42-.33-.26L59,88l-.28-.31.19-.39-.23-.37.25-.36-.17-.41.3-.32-.16-.31.29-.19L59,85l.31-.16-.1-.33.34-.14V84l.35-.07.05-.36h.36l0-.28.25.12,0-.28.25.14L61,83l.21.18.11-.25.2.19.13-.25.17.2.24-.23.24.23.25-.23.24.23.25-.23.24.29.34-.11.12.34h.36l0,.35.34.12-.07.35.32.17-.13.35.3.21-.17.35.23.31-.25.31.17.35-.3.26.11.41-.33.27.06.42-.37.23,0,.43-.4.19,0,.44-.42.14-.1.42-.43.09,0,.3-.28-.1-.07.29L62,89.85l-.14.27-.25-.23-.25.23-.25-.23-.25.23-.25-.23-.17.22-.1-.25L60.1,90l0-.27ZM62,88.56h.29l-.07-.28h.28L62.39,88l.28,0-.06-.31.31-.09-.09-.31.31-.11L63,86.87l.29-.13-.16-.28.28-.16L63.26,86l.26-.18-.21-.13.23-.1-.23-.11.23-.11h-.17V85.2l-.07.22-.06-.22-.07.22v-.19L63,85.15l.24-.14L63,84.87l.2-.17L63,84.63l.18-.18h-.25l.16-.18h-.25l.12-.22-.13.18,0-.22-.1.21,0-.23-.15.17.19-.13-.23,0L62.8,84h-.23l.2-.11-.27,0v-.26l-.21.16-.08-.25-.15.21-.15-.19,0,.25-.19-.16v.25l-.21-.13v.26L61.24,84l0,.26L61,84.12l.07.26h-.31l.06.3-.3,0,.1.29-.29.1.14.27-.28.14.16.26L60.1,86l.18.25-.25.27.21.3-.22.3.25.27-.18.32.29.21-.12.33.32.16-.07.35.34.11-.1.25L61,89l0,.26.22-.14.08.26,0-.22.13.18-.1-.2.14.18-.1-.21.28.09v-.29l.28.06,0-.29Z"/><path class="cls-10" d="M65.36,86.18l.14-.76-.29-.71.17-.75-.27-.72.16-.67.19-.19.26.23.28-.23.27.23.38-.16-.13,1,.32,1-.14,1,.32,1-.13,1,.28-.49.46-.28.09-.54.47-.27.1-.54.55-.38L69,84.3l.54-.4.16-.65.51-.4.18-.23.29.2.26-.24.28.23.37-.17-.23.16.21.15-.25.07.21.16-.23,0-.25.75-.62.5-.26.75-.62.5-.26.76-.62.52-.24.77-.6.54-.21.78-.55.53-.18.21-.24-.23-.24.23-.25-.23-.32.2.09-.81-.32-.69.14-.73-.31-.69Z"/><path class="cls-10" d="M70.78,89.72l0-.39-.33-.19.12-.37-.28-.26.19-.33-.24-.33.24-.33-.19-.35.28-.3-.15-.38.31-.26-.11-.39L71,85.6l-.08-.39.35-.21,0-.42.39-.17,0-.42.41-.12.1-.41.28.07,0-.29.26.13.09-.27.21.18.25-.23.26.23.27-.23.26.23.27-.23.13.27.24-.16.07.27.26-.12,0,.28.28-.06,0,.28.28,0-.07.28.29,0-.08.32.31.1-.07.32.32.08-.06.32.33.12-.11.33.3.19-.17.3.24.29h-.36l-.09.32-.31-.12-.19.28-.25-.21-.35.23-.34-.23-.35.23-.35-.23-.35.23-.22-.25-.25.21-.2-.25-.25.19-.19-.25-.21.19-.12-.25-.2.19-.12-.25-.09.14H71.8l.2.16-.24,0L72,87l-.25.07.22.26-.22.25.24.23-.2.27.27.2-.17.29.29.14L72,89l.32.09,0,.32.24-.1v.26l.2-.16.06.25.13-.2.3.14.14-.32.33.07.09-.33.34,0,.17-.36.39.1.29-.27.33.23.43-.14-.22.15.21.14-.24.06.2.15-.23,0,0,.3-.34,0L75,89.8l-.33-.06-.12.31-.3-.11-.12.3-.3-.14-.15.28-.26-.16-.26.22-.27-.22-.28.22-.28-.22-.28.22-.25-.27-.34.12L71.34,90H71ZM74.49,85l.05-.36-.36-.1,0-.36h-.36l-.16-.36-.09.27L73.3,84l0,.27-.26-.07.06.26-.27,0,.07.27h-.27l.09.26-.28,0,.14.25-.27.06.14.25-.28.07.12.13.15.23.3-.17L73,86l.31-.18.21.28.35-.17.28.26.33-.19.3.25.31-.22.09.2-.1-.21.13.19L75.11,86l.18,0L75,85.94l.08-.33-.32-.14.07-.36Z"/><path class="cls-10" d="M85.19,89.42l-.13-.1,0,.27-.24-.12,0,.26-.19-.16-.17.23-.2-.22-.18.24-.2-.22-.19.23-.15-.26-.25.15,0-.29-.28.06,0-.29-.32-.1.08-.33-.32-.14.11-.32-.3-.15.14-.33-.26-.26.23-.27L82.18,87l.29-.22-.11-.34.32-.15,0-.36.35-.08,0-.36h.33l0-.33.34,0v-.34l.35-.09-.27-.24.19-.26L83.74,84l.2-.25-.24-.23.22-.28-.21-.29.26-.25-.17-.32.28-.22L84,81.8l.31-.18-.11-.33.32-.16-.09-.34.34-.14,0-.36.35-.07,0-.37.37,0,0-.3.28.09.1-.28.25.16.17-.25.2.22.18-.24.18.23.2-.22.15.24.23-.16,0,.28.27-.07,0,.28H88l-.11.26.28.05-.14.24.26.09-.18.21.24.16-.22.19.21.21-.26.15.18.24-.31.18.1.34-.33.13,0,.35-.34.08v.36l-.35,0,0,.36h-.35l-.08.36-.28-.07,0,.29L86,84l0,.29-.29,0,0,.27-.27,0,0,.27-.27-.06.07.26-.2-.09.22,0-.22,0,.22,0-.22,0,.31.28-.12.4.31.28-.12.41.32.28h0l-.17-.17H86l-.18-.17h.25l-.14-.29.29-.15-.16-.28.28-.17-.09-.36.26.22.23-.23.24.23.23-.23.18.21.15.06-.25.1.2.18-.25.1.2.19-.31.19.13.33-.31.16.09.34-.31.14.08.32-.31.11.08.32-.32.09.08.29-.19.14.26.1-.19.19.25.1-.18.21.26.08-.18.2.25.06-.17.2h.19l0,.22.07-.23.08.23.08-.23,0,.16.19.11-.25.11.2.17-.25.11.15.26-.29-.2-.22.23-.24-.22-.22.23-.21-.22-.23,0,.09-.29-.29-.06.12-.28Zm-1.11-.55.24.07-.09-.24.26,0-.1-.24.25,0-.11-.24.26,0-.12-.23h.27L84.79,88l.08-.49-.34-.36.08-.49-.35-.37.08-.5-.1.21-.27,0,.1.24-.26,0,.1.25-.29,0,.11.27-.28.08.15.25-.26.15.25.18-.19.22.27.14-.16.24.28.1-.13.27.29.07-.11.27.29,0-.08.28.19-.13-.18.13.18-.13h-.16Zm1.08-5.24h.12v-.3l.3,0v-.3l.29.06,0-.34h.34v-.34l.34,0,0-.33.3-.07-.1-.29.29-.12-.16-.27.27-.18-.26-.21.15-.29-.3-.12.08-.32-.32-.06.17-.15-.2.13.2-.12-.22.06.06-.13v.26l-.24-.1,0,.26-.25-.08.06.26-.26-.06.08.25-.26,0,.11.24h-.26l.12.27-.29.08.13.27-.28.08.13.26-.28.11.16.25L85,82.4l.18.23-.25.17.23.17-.22.18.23.17-.21.21Z"/><path class="cls-10" d="M94.17,90l.19-.36-.24-.33.23-.35-.21-.36.25-.33-.19-.38.27-.34-.19-.39.27-.34-.19-.4.28-.3-.16-.38.28-.3-.16-.39.29-.3-.18-.11.15.17-.14-.18.15.16-.17-.11.27-.23-.18-.31.27-.23-.17-.32.27-.23L95,82.91l.32-.37-.12-.48.31-.37-.12-.47.26-.17-.18-.26.26-.18-.19-.26.27-.18L95.63,80l.25-.11-.21-.17.25-.12-.2-.2.25,0-.15-.2.24,0-.14-.2.17.09.22-.22.24.22.26-.22.25.22.29-.21-.17.18.21.13-.24.06.2.14-.24.06.22.08-.23,0,.21.09-.23,0,.14,0,.29.25.37-.16.26.31.4-.08.21.35h.44l.2.4.45,0,.15.42.45.09,0,.34.3.15-.19.28.21.26-.28.18.14.24-.28,0,.11.26h-.27l.08.26h-.28l0,.28-.29,0v.29l-.28-.08-.22.42-.47,0-.24.4H98l-.26.4-.42-.05-.24.35-.42-.1-.28.31-.46-.11.17.25-.25.13.19.2-.25.13.19.2-.27.29.19.36-.27.3.2.35-.26.3.2.31-.24.29.21.3-.23.29.2.23-.06.16,0-.22,0,.22.05-.22-.05.14.2.1-.24.06.2.15-.24.07.19.17H95.6l.16.19-.24,0,.15.19-.18-.07-.22.22L95,90.09l-.26.23-.26-.23-.27.23.13-.13-.21-.08h.23l-.18,0ZM98,83.31h.37l.08-.36.37,0,0-.37.37-.1L99,82.3l.22,0-.19-.13.24,0-.2-.09.11-.26-.3-.06,0-.31-.31,0,0-.32-.33.06L98.17,81l-.32.06-.08-.31-.31.08v-.25l-.18.18,0-.25-.19.18-.15-.22.16.29-.26.17.19.24-.26.17.18.25-.33.52.1.61-.34.53.11.61-.35.55.17-.15.2.16v-.25l.21.16V84l.36.07.15-.34.37,0,.14-.35Z"/><path class="cls-10" d="M100.59,89.72l0-.39-.33-.19.12-.37-.28-.26.19-.33-.24-.33.24-.33-.19-.35.28-.3-.15-.38.31-.26-.12-.39.33-.24-.08-.39.34-.21,0-.42.39-.17,0-.42.41-.12.09-.41.29.07,0-.29.26.13.09-.27.21.18.25-.23.26.23.26-.23.27.23.26-.23.14.27.24-.16.07.27.26-.12,0,.28.28-.06,0,.28.28,0-.07.28.29,0-.09.32.32.1-.07.32.31.08,0,.32.33.12-.11.33.29.19-.17.3.25.29h-.36l-.1.32-.31-.12-.18.28-.25-.21-.35.23-.34-.23-.35.23-.35-.23-.35.23-.22-.25-.25.21-.2-.25-.25.19-.19-.25-.21.19-.12-.25-.21.19-.11-.25-.09.14h-.23l.2.16-.25,0,.2.16-.25.07.22.26-.22.25.24.23-.2.27.26.2-.16.29.29.14-.11.31.31.09,0,.32.24-.1v.26l.2-.16,0,.25.14-.2.3.14.13-.32.34.07.09-.33.34,0,.17-.36.38.1.3-.27.33.23.43-.14-.22.15.21.14-.24.06.2.15-.23,0,0,.3-.34,0-.08.33-.33-.06-.12.31-.3-.11-.13.3-.29-.14-.15.28-.26-.16-.26.22-.28-.22-.27.22-.28-.22-.28.22-.25-.27-.34.12-.14-.33h-.36ZM104.3,85l0-.36-.35-.1,0-.36h-.37l-.15-.36-.09.27-.24-.11,0,.27-.25-.07.06.26-.28,0,.08.27h-.28l.1.26-.28,0,.14.25-.28.06.15.25-.28.07.12.13.15.23.29-.17.22.28.3-.18.22.28.35-.17.28.26.33-.19.3.25.31-.22.08.2-.09-.21.13.19-.1-.21.19,0-.32-.14.08-.33-.32-.14.07-.36Z"/><path class="cls-10" d="M110.1,88.82l.2-.22-.25-.15.21-.2-.23-.17.22-.19-.22-.14.23-.11-.21-.16.25-.09v-.08l-.33.12,0,.38-.36.11v.38l-.38.1-.07.44-.42.11-.14.42-.44.06-.19.41-.38-.15-.29.26-.34-.2-.31.23-.31-.24-.19.19-.06-.26-.23.12,0-.26h-.28l.17-.3-.24-.23.24-.24-.19-.28.28-.2-.14-.4.33-.26-.06-.41.37-.21v-.42l.41-.17.07-.43.42-.12.12-.42.43-.06.07-.31.31.09.11-.31.3.13.17-.29.29.23.28-.23.29.23.29-.23.28.23.32-.13.11.34.35,0v.36l.33.09v.15l0-.23,0,.23.08-.22-.09.16.26.35-.21.39.25.38-.21.39.23.37-.2.38.27.33-.12.41.33.27,0,.44.16-.16,0,.23.12-.2,0,.23.19-.11-.24.1.2.14-.24.07.2.15-.17,0-.2.22-.25-.23-.26.23-.25-.23-.28.23,0-.38-.34-.09.08-.33-.31-.16ZM107,89l.44-.1.13-.45.45-.14.1-.46.43-.18.06-.47.42-.19.07-.47.43-.19.06-.47.14-.1-.25,0,.1-.23-.23.1-.07-.25-.12.32-.33-.06,0,.32h-.33v.33l-.34,0v.34l-.33,0,0,.33-.32.08.1.25-.27,0,.14.24-.27.06.16.22-.26.07.17.22-.26.08.17.21-.26.1.21.12-.23.08.23.06L107,89Z"/><path class="cls-10" d="M113.39,89.74l0-.28-.27.08v-.28l-.27,0,0-.27-.29,0,.1-.28-.29-.08.14-.26-.27-.12.19-.24-.25-.17.21-.22-.23-.19.24-.19-.18-.26.26-.18-.18-.27.26-.19-.18-.27.28-.21-.14-.33.3-.18-.11-.33.32-.15-.06-.37.35-.12V84l.37,0,.07-.37.36,0,.14-.32.34.12.22-.27.29.21.24-.23.24.23.25-.23.25.23.25-.23.18.27.28-.15.14.28.29-.13.1.3.29-.1.06.3.31-.06,0,.31.31,0,0,.32.3.13-.19.27.2.25-.2.11-.21.22-.24-.22-.25.22-.25-.22-.27.22.07-.33-.27-.07.09-.28h-.28v-.29l-.26.09V84.3l-.26.1,0-.27-.23.13L116,84l-.18.19-.08-.25-.18.18-.1-.25-.12.27-.24-.13v.27l-.26-.08,0,.27-.35.07v.36l-.34.12.08.35-.32.17.12.34-.3.2.15.33-.28.23.18.31-.23.18.23.18-.21.2.26.16-.19.22L114,88l-.15.26.29.06-.1.28h.29v.3l.3-.05.07.3.28-.13.16.29.16-.29.27.13.11-.29.29.11.1-.3.35.12.24-.27.29.21.3-.21.18.22.19.06-.24.07.2.14-.24.08.19.19-.33-.07-.08.29-.27-.12-.08.29-.26-.13-.08.27-.23-.16-.11.27-.21-.18-.15.25-.28-.22-.27.22-.29-.22-.28.22-.28-.22-.2.19-.12-.26-.24.16-.08-.27Z"/><path class="cls-10" d="M118.47,89.72l0-.39-.33-.19.12-.37-.29-.26.19-.33-.23-.33.23-.33-.19-.35.28-.3-.14-.38.3-.26-.11-.39.33-.24-.09-.39.35-.21,0-.42.39-.17,0-.42.41-.12.1-.41.28.07,0-.29.25.13.1-.27.21.18.25-.23.25.23.27-.23.26.23.27-.23.13.27.24-.16.07.27.26-.12,0,.28.27-.06,0,.28.28,0-.07.28.3,0-.09.32.31.1-.07.32.32.08-.06.32.33.12-.1.33.29.19-.17.3.24.29h-.36l-.09.32-.31-.12-.18.28-.26-.21L123,87l-.34-.23-.35.23-.35-.23-.35.23-.22-.25-.25.21-.2-.25-.25.19-.19-.25-.2.19-.13-.25-.2.19-.12-.25-.09.14h-.22l.19.16-.24,0,.19.16-.24.07.21.26-.22.25.24.23-.19.27.26.2-.17.29.29.14-.11.31.32.09,0,.32.25-.1v.26l.2-.16.06.25.13-.2.3.14.14-.32.33.07.09-.33.34,0,.17-.36.39.1.29-.27.34.23.42-.14-.21.15.2.14-.24.06.21.15-.24,0,0,.3-.34,0-.08.33-.33-.06-.11.31-.31-.11-.12.3-.29-.14-.16.28-.26-.16-.26.22-.27-.22-.28.22-.28-.22-.28.22-.25-.27-.34.12L119,90h-.36ZM122.19,85l0-.36-.35-.1,0-.36h-.36l-.15-.36-.1.27L121,84l0,.27-.26-.07.06.26-.27,0,.07.27h-.27l.09.26-.28,0,.14.25-.27.06.14.25-.28.07.12.13.15.23.3-.17.21.28.31-.18.21.28.35-.17.28.26.34-.19.3.25.3-.22.09.2-.1-.21.13.19L122.8,86l.18,0-.32-.14.09-.33-.33-.14.07-.36Z"/><path class="cls-10" d="M49.52,108.78l.2-.16-.23-.14.23-.15-.22-.17.24-.14-.2-.19.24-.14-.21-.19.24-.13-.21-.19.27-.19-.19-.26.27-.19-.19-.27.27-.19-.2,0L50,106l-.18.14L50,106l-.21,0,.34-.62-.1-.71.34-.62-.11-.71.34-.65-.22.1-.08-.23-.12.22-.09-.23-.21.17.23-.17-.2-.17.25-.08-.2-.17.23-.07v-.16l.12.22.09-.23.13.22,0-.16.26-.22-.17-.29.27-.23-.18-.3.27-.23-.21-.16.24-.12-.21-.16.24-.13L50.8,100l.25-.17-.18-.25.26-.17-.19-.24.26-.18L51,99l.17-.15L51,99l.17-.16-.21,0,.28-.25-.17-.34.27-.26-.17-.34.28-.25,0-.19.21.16.07-.25.19.19v-.28l-.19.19L51.62,97l-.19.19V97l-.2-.11.24-.09-.2-.16.25-.08-.14-.25.27.21.23-.22.22.22.23-.22.23.22L53,96.4l.41.33.52-.08.36.37.52,0,.31.41.52,0,.24.45.5.13.16.48.26,0-.19.2.22.16-.24.12.16.22-.3.09.06.3-.31,0V100l-.31,0-.06.34-.33,0-.07.33-.33-.06-.09.32-.29-.09-.07.31-.29-.1-.07.3-.34,0,.31.61-.12.65.35.56-.07.66.38.53,0,.73.41.6,0,.73.39.61,0,.63-.18.19-.28-.23-.27.23-.28-.23-.33.21,0-.72-.41-.52,0-.66-.4-.52,0-.65-.37-.47.08-.6-.33-.49.13-.59-.24-.42-.18-.12-.07.3-.28-.11-.07.29-.34,0,.11.7-.34.59.11.67-.33.6.11.67-.2.06.18-.14-.17.15.18-.14-.19.07.18.29-.27.22.18.3-.27.22.17.31-.24.15.2.2-.24.16.22.2-.24.17.21.24-.24.22.21.24-.24.22.13.35-.3-.23-.27.23-.27-.23-.28.23-.26-.22-.12,0h.23l-.21-.08.19-.11Zm3.3-11.29-.18-.06.21.1-.23,0,.21.1H52.6l.14.23-.27.07.17.22-.26.11.21.18-.18.1.14-.18-.12.18.14-.17-.17.09.19.26-.27.19.18.27-.26.2.18.27-.24.11.21.17-.24.11.21.17-.23.12.19.2-.25.11.2.2L52,101l.17.1.1.1v-.26l.24.12v-.27l.25.12-.17-.13.22,0-.22,0,.23,0-.16-.14.35.11.17-.32.35.08.13-.33.35.06.1-.33.34,0,.08-.33.34,0,.07-.34.23.1-.09-.23.24,0-.14-.2.25-.08-.32-.06,0-.31-.3,0V98.3l-.3.06-.07-.31-.31.08-.07-.31-.31.09-.08-.31-.27.13-.09-.27-.25.15L53,97.33Z"/><path class="cls-10" d="M57.08,107.24l0-.27-.26.08.06-.26-.26,0,.08-.24-.37-.2.06-.41-.32-.26.13-.4-.28-.31.2-.39-.23-.38.25-.35-.18-.41.3-.32-.16-.31.29-.19-.13-.32.31-.16-.09-.33.34-.14,0-.36.36-.07,0-.36h.37v-.28l.26.11,0-.27.24.14.07-.28.22.18.1-.26.21.19.12-.25.17.21.24-.23.24.23.25-.23.25.23.25-.23.23.29.34-.11.13.33h.35l0,.36.34.12-.07.35.32.17-.12.34.29.22-.17.35.24.31-.25.3.16.36-.3.26.12.41-.34.27.06.42-.36.22v.43l-.39.19-.05.44-.41.14-.1.43-.43.09,0,.29-.28-.09-.07.29-.26-.14-.15.27-.25-.23-.24.23-.26-.23-.25.23-.25-.23-.17.21-.1-.25-.21.17,0-.26Zm2.15-1.32h.28l-.07-.28h.29l-.08-.27.29,0-.06-.32.31-.08-.09-.31.3-.11-.12-.3.29-.13-.15-.28.27-.16-.17-.27.27-.18-.22-.13.23-.1-.22-.1.22-.11h-.16l0-.21-.06.22-.07-.22-.06.22v-.2l-.17-.07.23-.14-.23-.14.21-.18-.26-.07.17-.18h-.25l.16-.19-.24,0,.12-.23-.13.19,0-.22-.1.2,0-.22-.15.17.19-.13-.23,0,.21-.09-.23,0,.2-.12-.27.06V101l-.21.16-.09-.25-.14.22-.16-.2,0,.25-.2-.16v.26l-.22-.13v.25l-.24-.11,0,.26-.25-.08.06.25-.3,0,.06.3-.3,0,.1.29-.29.1.14.27-.28.13.16.27-.27.15.17.25-.25.26.21.31-.22.29.25.27-.17.33.29.21-.12.33.31.16-.06.35.33.11-.09.24.25-.06,0,.26.22-.14.08.26,0-.23.14.19-.1-.21.13.19-.09-.21.27.09v-.29l.29.06,0-.29Z"/><path class="cls-10" d="M63,107.1l0-.29-.27.09v-.28l-.27,0,.05-.27-.29,0,.1-.28L62,106l.14-.26-.27-.13.19-.24-.25-.17L62,105l-.23-.2.24-.18-.18-.26.26-.18-.18-.27.26-.19-.18-.27.28-.22-.14-.32.3-.18-.11-.34.32-.15-.06-.36.35-.12v-.37l.37-.06.07-.36.36,0,.14-.32.34.12.22-.27.29.2.24-.22.24.22.25-.22.25.22.25-.22.18.27.28-.16.14.29.29-.13.1.29.29-.1.06.31.31-.06,0,.31.31,0,0,.32.3.13-.19.27.2.25-.2.11-.21.22-.24-.23-.25.23-.25-.23-.27.23.08-.33-.28-.07.09-.28h-.28v-.29l-.26.08v-.27l-.26.1,0-.28-.23.13-.07-.25-.18.19-.08-.25-.18.19-.1-.25-.12.26-.24-.13v.28l-.26-.09,0,.27-.35.07v.36l-.34.12.08.36-.32.17.12.34-.3.2.15.33-.28.23.18.31-.23.18.23.17-.21.21.26.15-.19.23.27.12-.15.25.29.07-.1.27.29,0v.3l.3-.06.07.3.28-.12.16.28.16-.29.27.14.11-.3.29.12.1-.3.35.11.24-.27.29.22.3-.21.18.21.19.07-.24.06.2.15-.24.08.19.18-.33-.07-.08.29-.27-.11-.08.28-.26-.13-.08.28-.23-.16-.11.27-.21-.18-.15.25-.28-.23-.27.23-.29-.23-.28.23-.28-.23-.2.2-.12-.26-.24.16-.08-.27Z"/><path class="cls-10" d="M68.17,107.31l.23-.31-.22-.31.23-.32-.22-.32.23-.33-.17.13-.06-.22-.06.22-.06-.22-.16.15.23-.12-.2-.14.24-.06-.21-.14.24,0-.16-.16.23.07-.15-.19.23.06-.16-.15.24-.18-.22-.23.24-.21-.21-.23.24-.21-.2-.25.25-.21-.2-.26.25-.22-.2-.26.29-.34-.16-.41.29-.34-.16-.42.29-.33-.14-.34.29-.24-.15-.36.3-.24-.15-.35.27-.23-.17-.32.27-.24-.17-.32.27-.24-.19-.26.26-.19-.19-.26.26-.2-.18-.29.4.1.25-.26.3.2.28-.23.21.19.18,0-.24,0,.21.14-.25.06.21.15h-.25l.17.17h-.24l.19.13-.23.06.19-.1-.14.18.15-.17-.13.19.19-.07-.29.38.15.45-.3.37.15.45-.29.37.14.34-.29.24.15.35-.3.24.15.35-.27.22.18.29-.27.23.17.3-.27.23.21.18-.24.12.2.17-.24.13.18.1.22-.12,0-.41.4-.11.06-.41.41-.11.17-.53.5-.23.16-.54.5-.24.19-.59.29.22.24-.22.25.22.25-.22.2.21.14,0-.24.06.21.14-.25.07.2.18-.45.21-.08.46-.44.18-.1.46-.44.16-.08.42-.41.14-.07.42-.41.15,0,.36-.06.29.35.11,0,.37.35.09v.38l.38.1,0,.39.38.08.08.39.43.11-.24.13.2.15-.24.07.2.16H73l-.18.21-.23-.23-.24.23-.24-.23-.26.23-.11-.38-.36,0,0-.36-.35-.05v-.36l-.32,0,0-.32-.32,0,0-.32h-.23l-.22,0,.06.31-.3.06.09.29-.31.12.23.2-.22.19.23.18-.22.19.22.19-.22.24.22.25-.25.22.21.26-.17.13-.24.22-.27-.23-.27.23-.28-.23-.29.23.14-.13-.22-.08h.23l-.18,0Z"/><path class="cls-10" d="M80,104.78l.31-.6-.15-.65.28-.61-.17-.64.26-.65-.19.13,0-.23-.11.21,0-.24-.19.14.23-.17-.21-.18.24-.12-.21-.18.23-.09,0-.17.06.23.06-.23.06.23,0-.18.23-.24-.21-.33.25-.3-.22-.32.23-.31-.22-.39.23-.38-.21-.4.24-.37-.2-.42.12.13v-.22l0,.22v-.22l.13.15-.21-.14.24,0-.21-.12.24,0-.13-.21.28.22.24-.23.25.23.25-.23.24.23.51-.14.46.3.52-.17.47.27.51-.19.52.25.54-.18.51.28.56-.17.45.26.17.06-.25.09.2.16-.24.09.14.25L86.79,98l-.22.22L86.34,98l-.23.22L85.89,98l-.44.16-.39-.28-.44.19-.41-.26-.43.2-.36-.25L83,98l-.36-.25-.39.19-.36-.27.11.15-.23,0,.22,0-.22,0,.22,0-.19.35.25.3-.21.34.22.33-.24.32.2.34-.25.29.19.34-.25.29.18.29-.08.15.09-.21v.23L82,101l0,.24.49-.23.49.23.49-.23.49.23.5-.23v.24l.12-.2v.23l.12-.2-.09.16.2.11-.24.08.2.15-.25.09.14.24-.29-.21-.25.22-.25-.22-.25.22-.25-.22-.09.18.17-.15-.18.14.16-.15-.09.18-.32-.23-.33.23-.33-.23-.33.23-.33-.23.11.13-.22,0,.22,0-.22,0,.22,0-.26.62.18.64-.28.61.15.65-.3.6.14.69-.28.64.19.68-.25.66.18.76-.34-.2-.27.22-.27-.22-.27.22-.2-.2-.19-.6.25-.68-.19-.7.29-.66Z"/><path class="cls-10" d="M85.93,107.08l0-.39-.33-.2.12-.36-.28-.26.19-.33-.24-.33.24-.33-.19-.36.28-.29-.15-.38.31-.27-.12-.39.33-.23-.08-.4.34-.21,0-.42.39-.17,0-.41.41-.12.09-.41.29.07,0-.29.26.13.09-.27.21.18.25-.23.26.23.26-.23.27.23.27-.23.13.26.24-.16.07.28.26-.12,0,.28.28-.06,0,.28.28,0-.07.27.29,0-.08.32.31.1-.07.31.31.09-.05.32.33.11-.11.34.29.18-.17.31.25.29h-.36l-.1.32-.3-.12-.19.27-.25-.2-.35.22-.34-.22-.35.22-.35-.22-.35.22-.22-.24-.25.2-.2-.25-.25.2-.19-.26-.21.2-.12-.25-.21.19-.11-.25-.09.14H87l.2.15-.25.06.2.16-.25.07.22.26-.22.25.24.23-.2.27.26.2-.16.28.29.15-.11.31.31.08,0,.33.24-.1V107l.2-.16.06.25.13-.2.3.13.13-.31.34.07.09-.33.34,0,.17-.37.38.11.3-.27.33.23.43-.15-.22.16.21.14-.24.06.2.15-.23,0,0,.31-.34,0-.08.33-.33-.06-.12.32-.3-.11-.13.3-.29-.14-.15.28-.26-.17-.26.23-.28-.23-.27.23-.28-.23-.28.23-.25-.27-.34.12-.14-.33h-.36Zm3.71-4.72,0-.37-.35-.09,0-.37h-.37l-.15-.36-.09.27-.24-.11,0,.27-.25-.07.06.26-.28,0,.08.27h-.28l.1.26-.28,0,.14.24-.28.07.15.24-.28.08.12.13.15.23.29-.17.22.27.3-.17.22.27.35-.16.28.26.33-.19.3.24.31-.21.09.19-.1-.2.13.18-.1-.2.19,0-.32-.14.08-.33-.32-.14.07-.36Z"/><path class="cls-10" d="M91.32,107.66l.23-.12-.22-.12.24-.08-.22-.13.24-.07-.17-.14.21.1-.15-.18.22.1-.08-.23.27.23.24-.23.25.23.26-.23.25.23.11-.09-.23,0,.23,0-.23,0,.12-.07.16.18.08-.26.22.17.06-.27.22.16.09-.28.27.12.06-.29.28.08,0-.29.21.1-.13-.2.24,0-.18-.15.23-.06-.24-.07.19-.17h-.25l.14-.21-.25,0-.08-.41-.42-.08-.14-.41-.42,0-.17-.39-.44,0-.14-.42-.43-.11-.06-.44-.43-.21.24-.17-.21-.18.25-.13-.21-.18.24-.13-.17-.23.28-.08-.12-.26.29,0-.06-.28h.3l0-.29.29,0,0-.29.29,0,.07-.31.32.06.1-.31.32.1.13-.3.3.12.15-.29.29.16.18-.27.26.19.33-.23.34.23.34-.23.34.23.35-.23.17.26.26-.17.12.28.28-.12,0,.23.2.11-.24.08.2.15-.25.09.14.24-.28-.21-.23.23-.24-.23-.24.23-.22-.23-.21.11,0-.27-.22.16-.13-.25-.16.22-.22-.19-.13.27-.25-.16-.1.28-.26-.13-.09.29-.29-.1-.06.29-.3-.08,0,.31-.25-.07,0,.26-.26,0,.07.26-.27,0,.1.24h-.26l.15.21-.25.07.2.16-.21.12.24,0-.15.19.24,0-.1.23.42.07.13.4.42,0,.16.4.42,0,.17.41.44.09.09.43.41.18v.43l.22.14-.23.16.21.2-.25.14.18.24-.28,0,.09.27-.28,0,0,.28-.27-.08-.1.33-.34-.08-.14.31-.32-.11-.16.3-.3-.14-.18.28-.29-.17-.19.26-.27-.18-.27.22-.27-.22-.28.22-.28-.22-.29.22v-.23l-.13.19,0-.23-.09.2Z"/><path class="cls-10" d="M99.6,106.34l.08-.35-.31-.17.14-.33-.27-.23.2-.3-.23-.28.23-.28-.21-.3.25-.27-.21-.31.29-.29-.17-.37.28-.3-.16-.37.28-.3-.11.09v-.22l0,.22-.08-.25-.19.18-.06-.25-.19.18-.07-.26-.27.15-.13-.28-.26.17-.15-.27-.35.1.24-.14-.2-.17.24-.08-.2-.16h.19l.2-.21.25.22.26-.22.26.22.26-.22.06.25.17-.18,0,.25.18-.18.17.18-.14-.5.3-.4-.14-.48.3-.4-.14-.5.4.09.25-.26.31.21.28-.24.2.19.18.06-.24.06.21.14-.25.07.2.15-.2-.08.15.16-.18-.13.16.16-.22-.07.15.45-.29.37.15.45-.3.38.15.41v.16l.18-.2.09.25.19-.19,0,.21.18.07-.25.08.2.16-.24.09.15.24-.22-.21-.15.23-.16-.23-.16.23-.24-.19.15.33-.26.19.18.28-.26.2.18.27-.26.27.21.31-.23.3.23.29-.22.31.26.24-.16.32.3.18-.08.34.33.09-.1.21.17-.16-.07.22.17-.16,0,.24.21-.23.22.22.21-.23.22.22.27-.22-.18.19.2.16-.25.07.21.16-.23,0,0,.21-.17-.18v.24l-.17-.18,0,.26-.29-.23-.27.23-.29-.23-.28.23-.28-.23-.25.16-.08-.3-.3.06v-.3Z"/><path class="cls-10" d="M105,107.56l.25-.23-.19-.29.25-.25-.2-.29.25-.24-.19-.3.26-.24-.19-.3.27-.24-.19-.3.34-.63-.1-.72.34-.64-.1-.71.33-.61.16-.16.27.22.27-.22.27.22.38-.14-.33.62.12.66-.33.58.11.65-.33.58.19.33-.25.27.19.33-.27.27.18.33-.27.3.19.36-.27.32.19.36-.19.23-.23.22-.27-.23-.28.23-.27-.23-.3.23.14-.14-.22-.08h.23l-.18,0Zm.9-7.35.19-.33-.23-.27.25-.26-.19-.3.28-.22-.18-.16h.24l-.18-.17h.25l-.1-.24.27.22.25-.23.25.23.25-.23.22.22.15-.07-.21.1.23,0-.21.11.21,0-.07.18.09-.21v.23l.09-.22-.09.14.2.18-.24.17.21.21-.25.17.2.24-.27,0,.13.22h-.26l.12.23-.2,0-.18.22-.23-.22-.23.23-.24-.22-.23.24v-.24l-.12.19,0-.22-.08.2Z"/><path class="cls-10" d="M110.32,103.54l.14-.76-.29-.71.17-.75-.27-.73.16-.66.19-.19.26.22.27-.22.28.22.37-.15-.12,1,.31,1-.13,1,.32,1-.13,1,.28-.49.46-.29.09-.53.46-.27.11-.54.54-.39.17-.64.54-.4.15-.65.52-.4.18-.23.29.2.26-.24.27.22.38-.16-.23.15.2.15-.24.08.2.16-.23,0-.24.74-.63.5-.25.76-.63.5-.25.76-.63.51-.23.78-.61.53-.21.79L112,107l-.18.21-.24-.22-.25.22-.24-.22-.33.2.1-.82-.32-.68.13-.74-.31-.68Z"/><path class="cls-10" d="M119.29,106.18l.19-.22-.24-.15.21-.2-.23-.17.22-.19-.23-.14.24-.11-.21-.16.25-.1v-.07l-.34.12,0,.38-.36.11v.38l-.37.09-.07.44-.43.12-.13.42-.44.06-.2.41-.38-.16-.29.27-.33-.21-.32.23-.3-.23-.19.19-.06-.26-.24.12,0-.27h-.28l.17-.3-.24-.24.23-.23-.19-.28.28-.2-.13-.4.33-.26-.06-.42.37-.2v-.42l.41-.17.07-.43.42-.12.12-.42.43-.07.08-.31.31.09.11-.3.29.13.18-.29.29.23.28-.23.29.23.29-.23.28.23.31-.13.11.34.36,0v.36l.33.09v.15l0-.23.06.22.08-.21-.09.15.25.35-.2.4.24.37-.21.39.24.37-.21.38.28.34-.13.41.34.27,0,.44.17-.16,0,.22.12-.19-.06.22.2-.1-.25.1.21.14-.24.06.2.15h-.17l-.21.22-.25-.23-.25.23-.26-.23-.28.23,0-.39-.33-.08.07-.34-.3-.16Zm-3.07.15.44-.1.13-.45.45-.15.09-.45.43-.19.07-.46.42-.19.06-.47.43-.2.07-.46.14-.1-.26,0,.1-.24-.23.11-.06-.26-.13.33-.32-.06,0,.32h-.33v.33l-.34,0V104l-.33,0,0,.34-.33.08.11.25-.27,0,.14.24-.27.06.16.22-.26.07.16.22-.26.08.18.21-.27.1.21.12-.22.08.23.06-.2.13Z"/><path class="cls-10" d="M122.18,107.26l.29-.16-.15-.28.28-.15-.16-.28.28-.16-.17-.27.27-.15-.17-.27.27-.16-.17-.26.27-.35-.18-.4.27-.35-.18-.41.27-.35-.11-.66.33-.58-.12-.66.34-.58-.11-.67.36-.62-.07-.72.37-.62-.08-.72.36-.59.16-.17.27.22.27-.22.27.22.33-.21-.17.25.22.16-.23.15.23.17-.23.13.09.14,0-.23,0,.23,0-.23.08.15-.34.5.09.62-.34.52.09.61-.34.53.13.55-.32.48.14.55-.32.48.13.55-.29.5.15.56-.29.5.15.56-.3.5.17.26-.27.16.16.28-.27.16.16.28-.28.19.15.3-.29.17.14.31-.22.11-.23.22-.26-.22-.26.22-.27-.22-.32.21.19-.21-.2-.17.25-.09-.2-.13Z"/><path class="cls-11" d="M44.12,41.23s0-.09,0-.11S44.14,41.25,44.12,41.23Z"/><polygon class="cls-11" points="43.88 41.7 43.86 41.66 43.86 41.79 43.88 41.7"/><path class="cls-11" d="M43.49,42c.14.13.13-.11.23-.1l0,0,0-.14C43.64,41.81,43.58,42,43.49,42Z"/><path class="cls-11" d="M43.09,41.74c0,.06,0,.08.06,0h0Z"/><path class="cls-11" d="M43.13,41.72s-.06,0,0,0Z"/><path class="cls-11" d="M43,41.87l0-.09s-.09,0-.08-.05S42.9,41.82,43,41.87Z"/><path class="cls-11" d="M43,42v0S43,42,43,42Z"/><path class="cls-11" d="M43,41.89,43,42s0,.07,0,0C43,42,43,41.94,43,41.89Z"/><path class="cls-11" d="M43.07,41.89s.1,0,.08.1C43.24,41.91,43.16,41.81,43.07,41.89Z"/><path class="cls-11" d="M43.57,42.12l.07,0v-.07S43.54,42.08,43.57,42.12Z"/><path class="cls-11" d="M42.59,42s.06.08.09.13l0-.06S42.62,42,42.59,42Z"/><path class="cls-11" d="M42.68,42.09l0,.09C42.71,42.15,42.7,42.12,42.68,42.09Z"/><polygon class="cls-11" points="43.07 42.19 43.1 42.01 43.05 42.2 43.07 42.19"/><polygon class="cls-11" points="42.36 42.07 42.35 41.97 42.35 42.12 42.36 42.07"/><path class="cls-11" d="M42.21,42.16c0-.08-.08-.1-.08-.16a.38.38,0,0,0-.05.17S42.14,42.12,42.21,42.16Z"/><path class="cls-11" d="M42.06,42.27a.87.87,0,0,0,0-.1A.3.3,0,0,0,42.06,42.27Z"/><path class="cls-11" d="M42.54,42.21s0-.07-.1-.08l.07.09Z"/><path class="cls-11" d="M42.51,42.22h0l0,0Z"/><path class="cls-11" d="M42.54,42.21Z"/><path class="cls-11" d="M42.86,42.19c0,.07,0,.17.06.21S42.85,42.3,42.86,42.19Z"/><path class="cls-11" d="M42.63,42.31h.08a.1.1,0,0,1,0-.09Z"/><polygon class="cls-11" points="42.62 42.36 42.63 42.31 42.6 42.32 42.62 42.36"/><path class="cls-11" d="M42.21,42.32a.13.13,0,0,1-.07.09.19.19,0,0,0,.13,0S42.25,42.3,42.21,42.32Z"/><path class="cls-11" d="M42.36,42.28h0S42.37,42.3,42.36,42.28Z"/><polygon class="cls-11" points="41.79 42.55 41.8 42.57 41.79 42.55 41.79 42.55"/><path class="cls-11" d="M42.28,42.41s0,0,0-.07l-.06,0S42.27,42.42,42.28,42.41Z"/><path class="cls-11" d="M42,42.36l.07,0S42,42.33,42,42.36Z"/><path class="cls-11" d="M42.34,42.27h0S42.33,42.25,42.34,42.27Z"/><path class="cls-11" d="M42.34,42.27a.17.17,0,0,0,0,.07l0-.05Z"/><path class="cls-11" d="M41.92,43.25c0-.1,0-.22.13-.14,0-.1-.13-.39-.25-.54a.16.16,0,0,1,0,.16s.2.06.17.17-.09,0-.15,0,0,.22,0,.38l.06-.09S41.89,43.23,41.92,43.25Z"/><path class="cls-11" d="M41.93,42.53l0,0a.42.42,0,0,1-.14-.09.23.23,0,0,0,0,.13l.14,0Z"/><path class="cls-11" d="M42.08,42.46c0,.11,0,.18.05.27s0-.11,0-.17,0-.07-.1-.09l.06-.06h-.08v0s0,0,0,0v0h0l-.11.11A.21.21,0,0,0,42.08,42.46Z"/><path class="cls-11" d="M43,42.65v0S42.94,42.65,43,42.65Z"/><path class="cls-11" d="M42.88,42.62s0-.06,0-.07,0,.05.05.08,0-.11-.06-.12v0a.4.4,0,0,1-.2-.12A1.24,1.24,0,0,0,42.88,42.62Z"/><path class="cls-11" d="M42.48,42.57l-.09.1.1.06,0,0C42.53,42.67,42.49,42.62,42.48,42.57Z"/><polygon class="cls-11" points="41.76 42.51 41.73 42.4 41.72 42.57 41.76 42.51"/><polygon class="cls-11" points="41.62 42.57 41.59 42.48 41.57 42.55 41.62 42.57"/><path class="cls-11" d="M38,37.23l0,0A.05.05,0,0,0,38,37.23Z"/><path class="cls-11" d="M37.9,37.49h0S37.9,37.48,37.9,37.49Z"/><path class="cls-11" d="M39,42.12c.06-.08.18-.18.08-.13l-.1.06S39,42.09,39,42.12Z"/><path class="cls-11" d="M38.11,39.72h0l.1.05Z"/><path class="cls-11" d="M37.67,39.63l.08-.07A.27.27,0,0,0,37.67,39.63Z"/><path class="cls-11" d="M38.09,35.79,38,35.73C38,35.79,38,35.78,38.09,35.79Z"/><path class="cls-11" d="M40.22,42.91s-.06-.06-.08-.06S40.21,43,40.22,42.91Z"/><path class="cls-11" d="M39.08,37.53l-.06,0A.05.05,0,0,0,39.08,37.53Z"/><path class="cls-11" d="M40,42.84v0a.1.1,0,0,1,.09,0C40.11,42.8,40.08,42.77,40,42.84Z"/><path class="cls-11" d="M39.09,30.67h0S39.09,30.66,39.09,30.67Z"/><path class="cls-11" d="M40.45,29.36a.2.2,0,0,1,0,.07S40.46,29.4,40.45,29.36Z"/><path class="cls-11" d="M41.05,42.7s0,0,0,0Z"/><path class="cls-11" d="M41.31,43.08s0,0,0,.06Z"/><path class="cls-11" d="M39.64,43.47Z"/><path class="cls-11" d="M41.1,42.74l0,0Z"/><path class="cls-11" d="M41.08,42.69h0S41.1,42.67,41.08,42.69Z"/><path class="cls-11" d="M41,42.72h.05v0Z"/><path class="cls-11" d="M38.89,33.47h0S38.87,33.44,38.89,33.47Z"/><polygon class="cls-11" points="37.63 41.62 37.64 41.62 37.64 41.62 37.63 41.62"/><path class="cls-11" d="M37.53,41.49c.14,0,.13.08.11.13l.3-.1Z"/><path class="cls-11" d="M38,36.6l-.11.07c-.15-.13-.08-.2-.23-.14.34.07,0,.33.31.41l-.08,0s0,0,0,0c-.19.08.23.13.15.26s-.09.07-.12,0l.06.12s-.07,0,0,0v.17h0a.67.67,0,0,1,.15.14c-.05,0,0,0-.07,0l.06.11a.12.12,0,0,1-.14-.13c-.35,0,.07.09-.16.24l0-.1c-.21,0-.15.11-.29.18.07,0,.34-.14.41,0s-.05.06,0,.13c-.12,0-.1,0-.11.1l-.16,0c0,.08.12.09.18.14s-.15.07-.26.07.21,0,.22.11,0,.18,0,.32-.09,0-.14,0l.11.09s0,0-.06,0,.16,0,.19.12-.29.14-.11.29c0,0-.09,0-.16,0a.93.93,0,0,0,.24.29l-.12.09c.13-.06.26.06.36.16l.15,0,.07.15a.26.26,0,0,1-.15,0l0,0c-.07,0-.16,0-.25,0l.11,0a1.11,1.11,0,0,0-.29-.1s0,0,0,.06a.07.07,0,0,0-.06,0s0,0,.05,0H37.7l-.13.18c.17.15.42.29.49.49a1.15,1.15,0,0,0-.38,0c.17-.05-.06-.17,0-.28a.08.08,0,0,1-.12,0l.13.21c-.12,0-.1,0-.15.09.26,0,.16.16.24.24-.08,0-.17,0-.15-.12-.19.11.3.15.13.25,0,0,0,0,0,0s0,.19,0,.16v0c0,.16,0,.5.25.49h-.3a6.74,6.74,0,0,0,.75.17c-.18,0-.6.18-.72.06a.12.12,0,0,0,0,.17s.24-.11.27-.08c-.18.14-.1.09-.24.25,0-.05.32-.07.33,0s-.28.08-.31.06l.32.08a.48.48,0,0,0-.3.12s0,.14.09.18l0-.09c0,.19.44,0,.5.17s-.35.11-.34.21a6.19,6.19,0,0,1,.86-.15l-.06.07.13,0a2.21,2.21,0,0,1-.92.17c0,.1-.07.07,0,.16s-.14,0-.16,0,.07.18.11.27c.13-.11.27.06.37,0a2,2,0,0,1-.31-.13c.13-.09.48-.14.56,0s-.25.17-.29.21.2.06.19.1h-.12c0,.13.27,0,.27.17,0,0,0,.26,0,.18a2.71,2.71,0,0,1,.52-.79s0,.24,0,.34-.26.28-.28.42a.33.33,0,0,1,.11-.08c0,.05-.08.12,0,.14.09-.15.17.1.1-.11.1,0,.08.07.18.1a.76.76,0,0,1,.28-.37.72.72,0,0,0,0,.13c.16.05.24.14.39.15s.09.1,0,.17.05-.09.1-.09-.11,0,0,.2c0-.1.13-.13.2-.2s-.16,0-.23,0a.77.77,0,0,1,.26-.54c.1-.06.06.14.07.11.23,0,.14-.39.33-.27s0,.27.09.36-.17-.06-.23,0l.09,0c0,.05-.09.09-.13.06s.39,0,.59,0c0,0,.07-.11,0-.15l-.05,0c-.08-.1.06-.17,0-.21s.1-.23.21-.2l.06.15c0-.05-.09-.07-.1,0s.21.16.2,0l-.1-.08c0-.1.07-.28.17-.27-.09-.13,0,0-.13-.12.12.19-.21.06-.06.25-.12-.18-.13-.05-.26-.2,0,0,.06.09,0,.08v.05h0s0,0,.06.06S41.05,43,41,43s0-.06,0-.11l0,.1c0-.11-.14-.16-.06-.25l-.09,0c-.06,0-.13-.07-.17,0s-.08.13-.06,0l-.12.09v0c-.12,0-.27.2-.4,0a.12.12,0,0,1-.14,0v-.1c-.06,0-.11-.13-.15,0,0-.26-.16-.11-.19-.19l-.07.11s-.09,0-.18,0l-.07.09c-.11,0-.06-.16-.13-.23s0,0,0,0c.12-.24-.31-.09-.21-.3-.05,0-.05,0,0-.07h0l0-.06s0,0,0,.05l-.08-.06.1-.06h0s-.07,0-.14.05l-.09,0c.17-.09-.1-.06.09-.17-.11,0-.13-.14-.34-.11,0,0,0,0,0,0s0-.09,0-.12l.14,0-.22,0a.24.24,0,0,1,.26-.07c-.2-.1-.09-.09-.28-.19h.1s-.15-.1-.07-.13,0-.48.19-.73c-.29,0,.14-.1-.09-.13.08,0,.12,0,.17,0-.06-.13.13-.18-.06-.29.08,0,.1,0,.15,0s-.06,0,0-.05.06,0,.09,0-.21-.16-.41-.19c.1-.06.09-.1,0-.16.06,0,.14-.05.15,0s.14-.27,0-.3c0,0,0-.06,0-.08a.52.52,0,0,0,0-.21l0,0c-.18-.07,0-.09,0-.18h0c.17-.17-.06-.1.13-.26h-.12c-.25-.06.18-.14.1-.27l-.07,0c-.08-.08.38-.11.42-.16s0,0,.05.05c.18-.14-.16-.05-.17-.18s.21.07.24,0-.23-.28-.05-.36c-.07,0-.14,0-.18,0s.29-.18.09-.29H39c0-.07-.05-.22-.16-.28.43,0-.13-.44.25-.37l0-.2h0c0-.12,0-.18-.12-.24s.06,0,.08,0c.11-.17.1-.19-.07-.38h.13c-.06,0,.24-.23.13-.44l0,0c-.11-.23.43-.42,0-.58l-.08-.15c-.07.16-.19-.06-.28,0s.17-.15.17-.06h0c.23.07.12-.2.28-.17,0-.34.24-.66.31-1h-.19l0-.11c.05,0,.15,0,.13.06s-.07-.14-.11-.15.21.09.22,0v-.07h0c-.06-.07-.14-.08-.12-.18s.12,0,.13,0,0,0,0,0l0-.14-.16,0c-.06-.07,0-.13-.14-.09.27,0,.18-.51.27-.56a.26.26,0,0,1,0-.29s-.2,0-.16-.08c.33.09.17-.15.43-.18-.17,0,0-.27-.24-.2,0-.08.12,0,.21,0-.09-.21.16-.39.16-.62,0,0-.12,0-.18,0l.24-.08c0-.05-.24-.09-.08-.14,0,0-.09,0-.1,0,.29-.41,0-.94.47-1.32-.1.05-.1,0-.1,0s-.1,0-.16,0l.19-.16c-.15-.06,0-.2-.13-.25l0,.07c-.17-.12-.43,0-.67,0,.2.13-.35.18-.08.38,0,0-.07,0-.13,0,.1.06.11.11.05.18h0c0,.24-.14.32-.25.57h.12c0,.05-.06.06-.1.08.17.1,0-.16.23-.06-.26,0-.08.39-.36.39,0,.09.14,0,.13.09H39.2l.09,0s-.12.06-.19.06,0-.05,0-.06,0,.21,0,.23l.06-.07c0,.24-.12.51,0,.77h.06c.07.19-.09.13-.08.33h0a.15.15,0,0,1,0,.16c0-.06-.14.06-.2,0,.08.21.07.11.26.27h-.1c.07.06.12.07.12.17-.06-.09-.15,0-.24-.07-.23.16.16.33-.16.37.24.14.18-.15.22-.09s.18.11.14.17-.34,0-.37.22c0,0,0,0,0,0s.07.13-.05.19c.15.07,0,.09.17.14l0-.16c0,.1.25.22.12.33a.21.21,0,0,1-.11-.1c-.07,0,0,.09,0,.12s0-.19-.15-.31.11.2-.09.12c.26.11-.06.15.12.3l-.11,0s.06.06.05.09l-.14-.08c.11.11-.14.15-.09.25,0-.18.15,0,.25-.08.12.25-.33.07-.32.33,0,0,.1-.11.14,0a.33.33,0,0,1-.16.11c0,.17.13,0,.19.08-.15,0,.05.09.08.17l-.12,0c-.11.17.24.09.12.24l-.16-.1,0,.1-.13-.05c.08.12,0,.14,0,.23s.21,0,.2.13-.11-.05-.11.07c-.07,0-.16-.09,0-.12l-.11,0c-.09,0,0,.15,0,.19l0,0,.14.2c-.05,0-.08,0-.11,0s.06.07.06.12-.2,0-.23-.12l.08.18s-.14.06-.17,0,.15.25.06.36a.11.11,0,0,1,0,.05c0,.11-.18.18-.07.34l-.19,0c0,.11.24-.06.28.12s-.16,0-.22.06.24.21.08.3S38,36.64,38,36.6Zm-.15,1.28s-.09-.09,0-.09S37.93,37.85,37.88,37.88Zm0,2s0-.05,0-.07A.06.06,0,0,1,37.86,39.88Zm2.89,3h0C40.69,42.84,40.71,42.85,40.75,42.87Zm.11,0a.09.09,0,0,0,0,0s0,0-.05,0S40.83,42.94,40.86,42.9Zm-1.1-9.64h0C39.7,33.22,39.73,33.24,39.76,33.26Z"/><path class="cls-11" d="M37.72,39.64h.07A.06.06,0,0,0,37.72,39.64Z"/><polygon class="cls-11" points="38.1 35.8 38.11 35.8 38.09 35.79 38.1 35.8"/><path class="cls-11" d="M39,43.74a.16.16,0,0,1,0-.08S39,43.71,39,43.74Z"/><path class="cls-11" d="M41.33,42.56l0,0s0,0,.07,0S41.31,42.57,41.33,42.56Z"/><path class="cls-11" d="M42.17,43.06s0,0,0,0l0-.06S42.11,43.06,42.17,43.06Z"/><path class="cls-11" d="M41.52,42.93c0,.1.07,0,.11,0h0C41.59,42.81,41.55,42.87,41.52,42.93Z"/><path class="cls-11" d="M41.64,42.94l0,0C41.67,42.86,41.66,42.91,41.64,42.94Z"/><path class="cls-11" d="M41,42.81s0-.13,0-.09C41,42.58,40.87,42.9,41,42.81Z"/><polygon class="cls-11" points="41.66 43.24 41.6 43.12 41.61 43.23 41.66 43.24"/><path class="cls-11" d="M41.25,43.27h.09s0,0,0-.05S41.24,43.23,41.25,43.27Z"/><path class="cls-11" d="M41.34,43.23a.05.05,0,0,0,.06,0Z"/><polygon class="cls-11" points="41.57 43.31 41.54 43.29 41.48 43.3 41.57 43.31"/><path class="cls-11" d="M40.39,43.39l-.09,0s0,.07.05,0S40.4,43.43,40.39,43.39Z"/><path class="cls-11" d="M40.7,43.71a.2.2,0,0,1-.06-.09l0,.15Z"/><path class="cls-11" d="M40.42,43.77s-.13.14,0,.12S40.52,43.8,40.42,43.77Z"/><polygon class="cls-11" points="39.06 43.28 39.08 43.3 39.22 43.08 39.06 43.28"/><path class="cls-11" d="M37.73,42.58c0,.15.15,0,.13.11s0-.12.08-.11S37.87,42.48,37.73,42.58Z"/><path class="cls-11" d="M37.94,42.58l.05,0A.06.06,0,0,0,37.94,42.58Z"/><polygon class="cls-11" points="40.63 29.14 40.69 29.08 40.6 29.11 40.63 29.14"/><path class="cls-11" d="M40.46,29h.17l-.14-.07S40.5,29,40.46,29Z"/><path class="cls-11" d="M37.52,38h0s0,0,.06,0Z"/><polygon class="cls-11" points="37.8 37.12 37.8 37.13 37.95 37.13 37.8 37.12"/><path class="cls-11" d="M37.76,36.31s0,.07,0,.1S37.94,36.33,37.76,36.31Z"/><path class="cls-11" d="M36.61,40.55s0,.09,0,.11S36.59,40.53,36.61,40.55Z"/><polygon class="cls-11" points="36.85 40.11 36.87 40.15 36.86 40.03 36.85 40.11"/><path class="cls-11" d="M37.2,39.89c-.13-.13-.11.11-.21.09l0,0,0,.14C37.07,40,37.12,39.88,37.2,39.89Z"/><path class="cls-11" d="M37.59,40.1c-.05-.05,0-.08-.05,0h0S37.57,40.1,37.59,40.1Z"/><path class="cls-11" d="M37.56,40.12s0,0,0,0Z"/><path class="cls-11" d="M37.7,40v.09s.08,0,.08,0S37.77,40,37.7,40Z"/><path class="cls-11" d="M37.68,39.83v0S37.69,39.88,37.68,39.83Z"/><path class="cls-11" d="M37.64,40l0-.08s-.06-.07,0,0S37.65,39.91,37.64,40Z"/><path class="cls-11" d="M37.6,40c-.05,0-.1,0-.08-.1C37.44,39.93,37.52,40,37.6,40Z"/><path class="cls-11" d="M37.11,39.72l-.06,0v.07S37.14,39.77,37.11,39.72Z"/><path class="cls-11" d="M38.06,39.85s-.08-.08-.11-.11v.06S38,39.8,38.06,39.85Z"/><path class="cls-11" d="M38,39.74v-.09C37.91,39.67,37.92,39.7,38,39.74Z"/><polygon class="cls-11" points="37.57 39.66 37.56 39.83 37.59 39.65 37.57 39.66"/><polygon class="cls-11" points="38.26 39.71 38.28 39.8 38.26 39.66 38.26 39.71"/><path class="cls-11" d="M38.38,39.6c0,.08.11.08.11.14s0-.11,0-.18S38.46,39.62,38.38,39.6Z"/><path class="cls-11" d="M38.51,39.46a.33.33,0,0,0,0,.1Z"/><path class="cls-11" d="M38.07,39.6a.16.16,0,0,0,.1.06l-.08-.07Z"/><path class="cls-11" d="M38.08,39.58h0l0,0Z"/><path class="cls-11" d="M38.06,39.6h0Z"/><path class="cls-11" d="M37.76,39.65c0-.07,0-.17-.09-.2S37.76,39.54,37.76,39.65Z"/><path class="cls-11" d="M38,39.51l-.07,0s0,0,0,.08Z"/><polygon class="cls-11" points="37.96 39.46 37.96 39.51 37.98 39.5 37.96 39.46"/><path class="cls-11" d="M38.35,39.45a.13.13,0,0,1,0-.11.34.34,0,0,0-.12,0S38.32,39.47,38.35,39.45Z"/><path class="cls-11" d="M38.22,39.51h0S38.2,39.49,38.22,39.51Z"/><polygon class="cls-11" points="38.69 39.13 38.67 39.12 38.68 39.13 38.69 39.13"/><path class="cls-11" d="M38.27,39.37s0,0,0,.07a.21.21,0,0,1,0-.06S38.27,39.36,38.27,39.37Z"/><path class="cls-11" d="M38.56,39.36l-.08,0S38.57,39.39,38.56,39.36Z"/><path class="cls-11" d="M38.24,39.52Z"/><path class="cls-11" d="M38.24,39.52a.22.22,0,0,0,0-.08.14.14,0,0,0,0,.06Z"/><path class="cls-11" d="M38.35,38.51c.06.08.06.2-.06.16s.22.33.38.45a.19.19,0,0,1,0-.16s-.2,0-.2-.12.07,0,.14,0c-.1-.08,0-.21-.15-.34l0,.09S38.39,38.52,38.35,38.51Z"/><path class="cls-11" d="M38.56,39.19v0l.15,0a.17.17,0,0,0,0-.13l-.12.07Z"/><path class="cls-11" d="M38.45,39.29c-.05-.11,0-.18-.13-.25s0,.1,0,.17c.09-.1,0,.07.12.07s0,0,0,.06h.07l0,0s0,0,0,0v0h0l.08-.13S38.49,39.24,38.45,39.29Z"/><path class="cls-11" d="M37.6,39.21l0,0Z"/><path class="cls-11" d="M37.68,39.24s0,.06,0,.06,0,0-.05-.07,0,.1.07.11h0a.34.34,0,0,1,.2.09A1.71,1.71,0,0,0,37.68,39.24Z"/><path class="cls-11" d="M38.05,39.24l.06-.11-.1,0,0,0C38,39.15,38,39.2,38.05,39.24Z"/><polygon class="cls-11" points="38.73 39.16 38.79 39.27 38.74 39.1 38.73 39.16"/><polygon class="cls-11" points="38.84 39.07 38.89 39.15 38.88 39.08 38.84 39.07"/><path class="cls-11" d="M37.74,35.45l0,0Z"/><path class="cls-11" d="M37.94,35.43v0S37.93,35.43,37.94,35.43Z"/><path class="cls-11" d="M41.52,36.33c.13,0,.32-.09.2-.1h-.13A.11.11,0,0,1,41.52,36.33Z"/><path class="cls-11" d="M39.73,35v0l.06-.1Z"/><path class="cls-11" d="M39.6,35.39l0-.08A.2.2,0,0,0,39.6,35.39Z"/><path class="cls-11" d="M36.65,35.79v.12C36.7,35.89,36.67,35.84,36.65,35.79Z"/><path class="cls-11" d="M39.94,38.09a.29.29,0,0,0,.12,0C40,38.06,39.89,38,39.94,38.09Z"/><path class="cls-11" d="M37.69,34.28a.08.08,0,0,0,0,.07A.06.06,0,0,0,37.69,34.28Z"/><path class="cls-11" d="M40.15,38h0a.12.12,0,0,1,0,.09C40.12,38.08,40.17,38.07,40.15,38Z"/><path class="cls-11" d="M33,37.79h0Z"/><path class="cls-11" d="M31.3,37.89l0,0A.11.11,0,0,0,31.3,37.89Z"/><path class="cls-11" d="M39.32,38.75s0,0,0,0Z"/><path class="cls-11" d="M38.93,38.5l0,0Z"/><path class="cls-11" d="M39.88,37.29h0S39.87,37.28,39.88,37.29Z"/><path class="cls-11" d="M39.25,38.74h0A.08.08,0,0,0,39.25,38.74Z"/><path class="cls-11" d="M39.29,38.77h0S39.28,38.81,39.29,38.77Z"/><path class="cls-11" d="M39.35,38.72l-.05,0h0Z"/><path class="cls-11" d="M34.71,36.21h0C34.69,36.26,34.7,36.24,34.71,36.21Z"/><polygon class="cls-11" points="40.45 35.75 40.46 35.75 40.46 35.75 40.45 35.75"/><path class="cls-11" d="M40.31,35.76c.19-.06.18,0,.15,0l.43-.16A3.54,3.54,0,0,0,40.31,35.76Z"/><path class="cls-11" d="M37.25,35.56l.08.08c0,.18-.11.13,0,.26-.06-.35.24-.09.19-.42l.06.06s0,0,0,0,0-.26.15-.23.08.07.06.12l.07-.1s0,.07,0,.06l.13,0h0c0-.05.05-.14.07-.18s0,0,0,.08l.07-.09c0,.09,0,.18-.07.17.09.34.05-.09.21.1l-.06,0c.05.19.1.12.18.24,0-.07-.17-.3-.09-.39s0,0,.09,0c0,.12,0,.09.1.08v.16c.05,0,.05-.13.08-.2s.07.14.09.25-.07-.21,0-.23.14,0,.25-.09c.05.06,0,.1,0,.14l.06-.12s0,0,0,.06,0-.16.09-.19.12.27.23.08c0,0,0,.1,0,.16a1.09,1.09,0,0,0,.24-.24l.06.12c0-.13.07-.26.17-.36a1.06,1.06,0,0,0,0-.14l.14-.06s0,.08-.05.14l0,0a.35.35,0,0,1-.07.24l0-.11a1,1,0,0,0-.11.29.1.1,0,0,1,.05,0,.11.11,0,0,0,0,.06s0,0,0,0l0,.18,0-.07.11.15c.15-.15.29-.4.5-.4a1.21,1.21,0,0,0-.2.33c0-.16-.11,0-.15,0s0,.09,0,.12l.14-.12a.23.23,0,0,0,0,.15c.12-.23.16-.13.26-.17-.06.07-.13.13-.16.1-.09.17.28-.21.21-.06,0,0,0,0,0,0s.11,0,0,.07h0c0,.05.19.1.48,0l-.39.16a2.44,2.44,0,0,1,1-.17,8.08,8.08,0,0,1-.94.23s-.07,0,0,.06a2.52,2.52,0,0,1,.41-.11,4.21,4.21,0,0,1-.43.17c.06,0,.46-.06.42,0l-.42,0a1.15,1.15,0,0,1,.33,0,2.15,2.15,0,0,0-.42,0c.07,0,0,0,0,0l.09,0c-.09.05.42.12.32.24a1.08,1.08,0,0,0-.43-.1c.15,0,.64.32.61.53l-.09,0v.16a1.89,1.89,0,0,0-.58-.66c-.08,0-.1,0-.11,0s-.1-.06-.1-.07H40c.15.09.11.13.22.23a.46.46,0,0,0-.09-.17c.16.07.39.29.27.38s-.21-.22-.26-.25,0,.16,0,.14l0-.1c-.1,0,.09.24-.08.19s-.22-.08-.15,0a4,4,0,0,1,.72.61,1.21,1.21,0,0,1-.34,0c-.15-.07-.22-.3-.35-.36a.28.28,0,0,1,.07.11s-.1-.11-.13,0-.1.09.09.12c0,.08-.08,0-.12.09a.69.69,0,0,1,.21.39.34.34,0,0,0-.11-.07c-.1.08-.21.08-.31.16s-.11,0-.14-.08,0,.08,0,.11,0-.07-.12-.16c.06.07,0,.17,0,.25s.12-.07.11-.15a.69.69,0,0,1,.2.55c0,.11-.13-.07-.12,0-.18.1.11.39-.12.39s-.18-.21-.25-.27.16,0,.2-.07h-.1c0-.05,0-.11.06-.1-.12-.06-.27.2-.46.21,0,0,0,.12,0,.15l0,0c.1.06,0,.18.1.18s0,.24-.09.25l-.11-.11s.1,0,.09,0-.24-.07-.15.11l.12,0c0,.1,0,.28-.07.29.13.1,0,0,.17.08-.18-.14.17-.12,0-.26.18.13.14,0,.31.1,0,0-.08-.06,0-.09v0h0a.11.11,0,0,1-.07,0c-.05-.12,0-.18,0-.26s0,.06.08.09l0-.11c.08.08.21.07.17.19l.08-.06c.08,0,.15,0,.15-.08s0-.16,0-.07l.06-.15,0,0c.12-.08.09-.33.34-.29,0,0,0-.11.11-.14l.08.06c0-.07.2-.07.14-.16.24.14.25-.17.36-.22l-.09-.09a.41.41,0,0,0,.1-.23l-.09-.07c0-.12.19-.09.27-.21,0,0,0,.06,0,.06.14,0,.2-.12.22-.23s0-.23.18-.27c0-.06,0-.08.07-.1h0v0l.09,0a.19.19,0,0,0-.09,0,.22.22,0,0,0,0-.14h.14v0c.08,0,0,0-.15,0a.16.16,0,0,0,0-.07c.23,0,0-.11.25-.15-.08,0,0-.22-.22-.21,0,0,0,0,0,0s.08-.1,0-.13l.15-.05-.21-.06a.2.2,0,0,1,.25-.1c-.25-.1-.13-.1-.39-.12l.1,0s-.23,0-.17-.06-.42-.31-.64-.55c-.09.28-.09-.18-.21,0,0-.07,0-.12.06-.16-.2,0-.22-.18-.35,0,0-.07.06-.09.05-.13s-.05,0-.05,0,0,0,.06-.07c-.14,0-.2.18-.26.37,0-.1-.07-.1-.14,0,0-.07,0-.14,0-.15s-.25-.15-.28,0c0,0-.06,0-.08,0a.65.65,0,0,0-.2,0l0,0c-.06.19-.09,0-.17,0v0c-.17-.15-.08.06-.25-.11v.12c0,.26-.15-.16-.25-.06l0,.07c0,.09-.15-.36-.21-.39s0,0,0,0c-.16-.16,0,.16-.13.19s0-.21-.06-.23-.2.29-.31.13c0,.07.05.13,0,.18s-.23-.23-.28,0l0,0c-.06.06-.18.11-.2.23-.12-.41-.33.26-.39-.12l-.18,0v0c-.12,0-.14.11-.16.21s0-.06,0-.08c-.19,0-.2,0-.29.21l0-.12c0,.08-.29-.12-.4.07a0,0,0,0,1,0,0c-.13.19-.56-.17-.45.28l-.07.15c.15,0,0,.19.14.23s-.2-.06-.14-.11h0c-.07-.23-.21,0-.27-.15-.28.14-.61.16-.88.3l.12.14-.09,0s-.1-.11,0-.14c-.09-.07-.07.14,0,.18-.16,0-.06-.22-.1-.2l0,0h0c0,.09,0,.16,0,.2s-.08-.08-.1-.08,0,0,0,0l-.12,0,.12.1c0,.09-.11,0,0,.16-.21-.17-.45.18-.53.15a.24.24,0,0,1-.16.22s.15.14.07.17c-.18-.29-.21,0-.41-.19.15.1-.17.18.05.3-.07,0-.08-.09-.17-.12,0,.2-.34.16-.47.33,0,0,.1.06.11.14l-.23-.1s.14.22,0,.15c0,0,.08.06.07.08-.45.11-.47.68-1,.69.1,0,.08.05,0,.08s.08.08.13.12h-.24c.11.13-.11.14,0,.26v-.06c.09.18.38.21.55.38-.11-.2.36.08.23-.22.05,0,0,.07.09.1s0-.14,0-.16v0c.12-.15.25-.14.46-.24L32.52,38a.14.14,0,0,1,.11,0c-.08-.17-.1.08-.2-.1.21.14.25-.23.46-.05.06,0-.1-.09,0-.13l.07,0,0-.08s.12,0,.16.08,0,0,0,0,.11-.14.14-.13h-.08c.1-.19.35-.26.41-.5l0,0c0-.18.13,0,.23-.16v0c0-.07,0-.12,0-.14s.13.06.13.15c.07-.18,0-.11,0-.35l.07.07c0-.09,0-.13,0-.2,0,.1.12.09.12.22.25.08.09-.31.32-.1-.07-.26-.2,0-.19-.11s-.05-.2,0-.21.25.23.36.16,0,0,0,0,0-.13.14-.07c-.05-.15.08,0,0-.21l-.09.1c0-.08,0-.31.14-.27a.66.66,0,0,1,0,.14c.06,0,0-.07.1,0s-.11.11-.1.28,0-.2.12,0c-.09-.27.13,0,.11-.26l.05.11s0-.09,0-.1l0,.16c0-.15.18,0,.21-.06-.13.07-.1-.11-.19-.16.08-.23.23.23.38.09,0,0-.12,0-.11-.09a.3.3,0,0,1,.16.08c.11-.08-.07-.11,0-.2.1.12,0-.08.07-.15l0,.11c.17,0-.07-.24.1-.21V36l0-.07,0,.13c0-.12.06-.11.15-.1s-.07-.21,0-.24,0,.12.1.07,0,.18-.06.09L36,36c.08.06.12,0,.15,0h0l.07-.21a.13.13,0,0,1,0,.12s0-.08.06-.1.06.19,0,.25l.09-.14s.1.09.09.13.11-.24.22-.19a.07.07,0,0,1,0-.06c.09,0,.2.09.27-.06l.09.15c.07,0-.13-.19,0-.29s.07.14.11.18.08-.29.19-.17S37.27,35.54,37.25,35.56Zm1-.2s-.06.11-.08,0S38.21,35.32,38.25,35.36Zm1.58-.14s0,0-.06,0S39.81,35.18,39.83,35.22Zm-.32,3.24h0C39.58,38.45,39.55,38.45,39.51,38.46Zm-.11,0s0,0,0,0,0,0,0-.05S39.41,38.44,39.4,38.48ZM34,35.66h0C34,35.73,34,35.69,34,35.66Z"/><path class="cls-11" d="M39.62,35.34s0,0,0-.06A0,0,0,0,0,39.62,35.34Z"/><polygon class="cls-11" points="36.66 35.77 36.65 35.77 36.65 35.79 36.66 35.77"/><path class="cls-11" d="M39.8,36.67l.07,0A.06.06,0,0,0,39.8,36.67Z"/><path class="cls-11" d="M39.11,39l0-.07s0,0-.07,0S39.12,39,39.11,39Z"/><path class="cls-11" d="M38.2,38.73s0,0,0,0l0,0S38.25,38.72,38.2,38.73Z"/><path class="cls-11" d="M38.81,38.71c-.07-.08-.08,0-.1,0h0C38.79,38.84,38.8,38.77,38.81,38.71Z"/><path class="cls-11" d="M38.7,38.73l0,0C38.7,38.81,38.69,38.76,38.7,38.73Z"/><path class="cls-11" d="M39.34,38.62s.08.11,0,.08S39.39,38.49,39.34,38.62Z"/><polygon class="cls-11" points="38.57 38.46 38.66 38.55 38.62 38.46 38.57 38.46"/><path class="cls-11" d="M38.91,38.31l-.08,0a.09.09,0,0,1,0,.05S38.93,38.34,38.91,38.31Z"/><path class="cls-11" d="M38.84,38.38a.05.05,0,0,0,0,0A.09.09,0,0,0,38.84,38.38Z"/><polygon class="cls-11" points="38.63 38.37 38.66 38.38 38.7 38.35 38.63 38.37"/><path class="cls-11" d="M39.51,37.83l0-.08s-.06,0-.07,0S39.47,37.81,39.51,37.83Z"/><path class="cls-11" d="M39.1,37.73s0,0,.09.05l-.1-.12Z"/><path class="cls-11" d="M39.24,37.55s0-.16-.06-.09S39.17,37.57,39.24,37.55Z"/><polygon class="cls-11" points="40.2 36.88 40.19 36.9 40.38 37.07 40.2 36.88"/><path class="cls-11" d="M40.13,36c-.08,0,.17,0,.07,0,.06,0,.09,0,.14,0S40.33,36,40.13,36Z"/><path class="cls-11" d="M40.34,36.07l0,0Z"/><polygon class="cls-11" points="31.05 37.96 30.97 37.97 31.06 38 31.05 37.96"/><path class="cls-11" d="M31.11,38.18l-.13-.1.08.12S31.08,38.16,31.11,38.18Z"/><path class="cls-11" d="M38.4,35.68v0a.06.06,0,0,0,0-.06Z"/><polygon class="cls-11" points="37.69 35.61 37.7 35.62 37.66 35.47 37.69 35.61"/><path class="cls-11" d="M37.14,35.91s0,0,.07,0S37.09,35.73,37.14,35.91Z"/><path class="cls-11" d="M35.91,48.12s.09,0,.11.05S35.89,48.12,35.91,48.12Z"/><polygon class="cls-11" points="35.76 47.68 35.8 47.69 35.71 47.61 35.76 47.68"/><path class="cls-11" d="M35.84,47.3c-.19,0,0,.14-.08.2h0l.14.06C35.85,47.47,35.78,47.35,35.84,47.3Z"/><path class="cls-11" d="M36.26,47.18c-.07,0,0,0,0,0h0A.08.08,0,0,1,36.26,47.18Z"/><path class="cls-11" d="M36.25,47.22s.06,0,0,0Z"/><path class="cls-11" d="M36.25,47l0,.06s.06,0,.09,0S36.32,47,36.25,47Z"/><path class="cls-11" d="M36.13,47l0,0S36.18,47,36.13,47Z"/><path class="cls-11" d="M36.19,47.05l0-.06s-.09,0,0,0S36.16,47,36.19,47.05Z"/><path class="cls-11" d="M36.16,47.08s-.08.05-.13,0C36,47.17,36.16,47.19,36.16,47.08Z"/><path class="cls-11" d="M35.66,47.25l-.06,0,0,0S35.72,47.25,35.66,47.25Z"/><path class="cls-11" d="M36.41,46.73a.42.42,0,0,0-.16,0l0,0A.19.19,0,0,1,36.41,46.73Z"/><path class="cls-11" d="M36.25,46.72l0-.07S36.21,46.71,36.25,46.72Z"/><polygon class="cls-11" points="35.94 46.9 36.05 47.03 35.94 46.88 35.94 46.9"/><polygon class="cls-11" points="36.46 46.51 36.54 46.56 36.42 46.47 36.46 46.51"/><path class="cls-11" d="M36.47,46.36c.07,0,.13,0,.17,0s-.06-.09-.11-.13S36.54,46.33,36.47,46.36Z"/><path class="cls-11" d="M36.46,46.19a.45.45,0,0,0,.07.07A.15.15,0,0,0,36.46,46.19Z"/><path class="cls-11" d="M36.24,46.55s.09,0,.12,0h-.11Z"/><path class="cls-11" d="M36.24,46.53h0v-.05Z"/><path class="cls-11" d="M36.24,46.56h0S36.23,46.55,36.24,46.56Z"/><path class="cls-11" d="M36.06,46.77c-.05,0-.1-.13-.2-.08C35.92,46.73,36,46.7,36.06,46.77Z"/><path class="cls-11" d="M36.1,46.56l0,0a.38.38,0,0,1,.1,0Z"/><polygon class="cls-11" points="36.07 46.52 36.1 46.56 36.11 46.54 36.07 46.52"/><path class="cls-11" d="M36.34,46.27a.1.1,0,0,1,0-.1.16.16,0,0,0,0,.1S36.34,46.31,36.34,46.27Z"/><path class="cls-11" d="M36.28,46.4h0S36.27,46.39,36.28,46.4Z"/><polygon class="cls-11" points="36.37 45.85 36.35 45.85 36.37 45.86 36.37 45.85"/><path class="cls-11" d="M36.23,46.27s0,0,0,.07,0-.05,0-.07S36.22,46.26,36.23,46.27Z"/><path class="cls-11" d="M36.43,46.09l-.07,0S36.46,46.1,36.43,46.09Z"/><path class="cls-11" d="M36.31,46.39h0S36.33,46.38,36.31,46.39Z"/><path class="cls-11" d="M36.31,46.39a.15.15,0,0,0-.06,0l0,0Z"/><path class="cls-11" d="M35.71,45.62c.09,0,.17.11,0,.15a1.1,1.1,0,0,0,.59.08.14.14,0,0,1-.13-.09c-.06,0-.15.11-.23,0s0-.06.11-.08c-.13,0-.16-.14-.34-.16l0,.08S35.74,45.6,35.71,45.62Z"/><path class="cls-11" d="M36.31,46v0a.41.41,0,0,1,.15-.05.16.16,0,0,0-.11-.08l0,.12Z"/><path class="cls-11" d="M36.3,46.1c-.11,0-.14-.11-.26-.09s.08.07.11.12c0-.12.06,0,.14,0a.2.2,0,0,1,0,.07l.06-.05h0s0,0,0,0h0l0,0s0,0,0,0h0l0-.13A.18.18,0,0,0,36.3,46.1Z"/><path class="cls-11" d="M35.64,46.58h0Z"/><path class="cls-11" d="M35.71,46.55s.06,0,0,.05,0,0-.08,0,.06.08.12,0h0a.43.43,0,0,1,.2-.07Z"/><path class="cls-11" d="M36,46.32l0-.11-.11,0h.06S35.94,46.3,36,46.32Z"/><polygon class="cls-11" points="36.42 45.85 36.53 45.89 36.38 45.8 36.42 45.85"/><polygon class="cls-11" points="36.44 45.72 36.53 45.75 36.48 45.7 36.44 45.72"/><path class="cls-11" d="M34.89,39.06h0Z"/><path class="cls-11" d="M35,39.21l0,0S35,39.21,35,39.21Z"/><path class="cls-11" d="M37,42.55c.1,0,.25-.06.14-.07h-.11S37.07,42.53,37,42.55Z"/><path class="cls-11" d="M36.32,40.31l0,0h.1Z"/><path class="cls-11" d="M35.88,40.41l0-.07Z"/><path class="cls-11" d="M34,38.32l-.11.06S34,38.36,34,38.32Z"/><path class="cls-11" d="M36.66,44.41a.17.17,0,0,0,.09-.07C36.68,44.37,36.58,44.38,36.66,44.41Z"/><path class="cls-11" d="M35.81,38.34l-.07,0A.08.08,0,0,0,35.81,38.34Z"/><path class="cls-11" d="M36.77,44.23l0,0a.14.14,0,0,1,0,.09S36.84,44.28,36.77,44.23Z"/><path class="cls-11" d="M31,35.65v0S31,35.65,31,35.65Z"/><path class="cls-11" d="M30.42,34.11h0Z"/><path class="cls-11" d="M36.59,45.22s0,0,0,0Z"/><path class="cls-11" d="M36.14,45.26l0,0Z"/><path class="cls-11" d="M36.16,43.83h0S36.14,43.83,36.16,43.83Z"/><path class="cls-11" d="M36.53,45.25l0,0Z"/><path class="cls-11" d="M36.58,45.26v0S36.6,45.28,36.58,45.26Z"/><path class="cls-11" d="M36.59,45.18a.05.05,0,0,1,0,0h0Z"/><path class="cls-11" d="M32.9,36.72v0S32.87,36.72,32.9,36.72Z"/><polygon class="cls-11" points="35.98 41.73 35.98 41.73 35.99 41.73 35.98 41.73"/><path class="cls-11" d="M35.9,41.63c.13,0,.12.07.09.1l.31,0Z"/><path class="cls-11" d="M34.53,38.73l0,.11c-.18.06-.18,0-.23.12.25-.23.2.16.46-.07l0,.08s0,0,0,0c-.06.18.22-.12.26,0a.09.09,0,0,1-.06.11H35s0,0,0,0l.11.08h0l.18,0c0,.06,0,0-.06,0h.1c-.05.08-.15.09-.17,0-.22.27.11,0,0,.22l-.08,0c-.12.16,0,.15-.09.28,0-.05.15-.3.26-.3s0,.06.08.05c-.1.08,0,.09,0,.12l-.14.1c.07,0,.13,0,.21-.06s-.08.13-.16.2.13-.16.22-.09.07.1.2.13c0,.07-.09,0-.13.08l.14,0s0,0,0,0,.14-.07.21,0-.18.23,0,.21c0,0-.09,0-.15.06a1.27,1.27,0,0,0,.32.07l-.08.1a.41.41,0,0,1,.39,0l.12-.09.11.09s-.08,0-.15,0h.05a.36.36,0,0,1-.24,0l.09-.06a1,1,0,0,0-.31,0l0,0H36s0,0,.06,0l-.17.07H36l-.08.15c.19,0,.47.08.57.23a1.2,1.2,0,0,0-.37,0c.15-.06-.09-.11-.07-.18s-.08,0-.11,0l.17.11c-.13,0-.09,0-.14.08.25-.06.18.08.26.13-.09,0-.17,0-.16-.06-.18.08.31.07.15.16,0,0,0,0,0,0s0,.13-.05.11h0c0,.11,0,.34.22.36l-.31,0,.72.25c-.19,0-.63,0-.73-.09s-.06.06,0,.12a.57.57,0,0,1,.29,0A1.17,1.17,0,0,0,36,42s.33,0,.32.08A3.11,3.11,0,0,1,36,42l.28.14a.7.7,0,0,0-.33,0c.06,0,0,.1,0,.13l.07,0c0,.12.39.17.35.3s-.35-.09-.39,0a2.56,2.56,0,0,1,.76.37h-.08l.08.11c-.21-.1-.64-.32-.81-.43s-.1,0-.1.07a.1.1,0,0,1-.11-.08l-.08.16c.17,0,.15.15.29.17l-.14-.21c.16,0,.46.18.4.3a2,2,0,0,1-.35-.09c.06,0,.09.13,0,.14l-.08-.07c-.07.06.2.15,0,.2s-.23,0-.13.06a3.76,3.76,0,0,1,.93.16,2,2,0,0,1-.32.12c-.15,0-.34-.14-.47-.13a.54.54,0,0,1,.11.06s-.14,0-.13,0,0,.13.13.06,0,.06,0,.13a.67.67,0,0,1,.39.21h-.12c0,.12-.14.17-.16.29s-.11.05-.17,0,.08,0,.07.09,0-.09-.19-.07c.1,0,.12.12.17.18s0-.11,0-.17a.68.68,0,0,1,.48.32c0,.11-.14,0-.12,0-.07.18.34.24.15.36s-.26,0-.36-.06.11-.1.11-.16l-.07.05s-.06-.09,0-.11c-.13,0-.09.3-.23.42,0,0,.08.09.14.08V45c.11,0,.13.12.19.07s.17.17.09.24h-.15s.1,0,.06-.07-.24.08,0,.16l.12,0c.07.08.21.19.15.25.16,0,0,0,.17,0-.23,0,0-.19-.19-.17.21,0,.1-.07.29-.11-.05,0-.1,0-.06,0l0,0h0a.11.11,0,0,1-.08,0c-.11-.05-.09-.15-.14-.2s.06,0,.11,0L36.34,45c.11,0,.2-.06.25,0l0-.08c.07,0,.11-.09.07-.14s-.1-.12,0-.07l0-.14h0c0-.12-.13-.3.1-.39,0,0-.05-.1,0-.16h.1c0-.06.13-.14,0-.18.28,0,.11-.25.18-.34l-.13,0a.32.32,0,0,0,0-.22l-.11,0c-.08-.09.12-.17.12-.28s0,0,0,.06c.28-.1-.14-.32.07-.41,0,0,0-.06,0-.08h0l.06,0-.06,0a.22.22,0,0,0,0-.1h.12s-.06,0-.15,0l-.07-.06c.2,0-.05-.1.16-.11-.1,0-.06-.19-.27-.23,0,0,0,0,0,0s.06-.08,0-.12h.16l-.21-.1a.24.24,0,0,1,.27,0c-.18-.14-.06-.11-.24-.22h.1s-.14-.1,0-.12,0-.44.16-.69c-.29.08.12-.13-.11-.11.07,0,.1-.06.17,0-.09-.11.07-.21-.13-.25.06,0,.1,0,.14,0s-.07,0,0-.05.06,0,.09,0-.25-.09-.45-.05c.08-.08.06-.11-.08-.11,0,0,.11-.1.16,0s0-.29-.15-.23c0,0,0-.06,0-.07a.31.31,0,0,0-.07-.18v0c-.19,0-.07-.05-.13-.11h0c0-.22-.09,0,0-.26l-.1.07c-.23.12.06-.21-.08-.23l0,.06c-.1,0,.21-.32.2-.39s0,0,.06,0c0-.21-.14.08-.23,0,.06-.07.19-.12.16-.18s-.35,0-.28-.17c0,.06-.08.12-.15.11s.06-.31-.14-.22l0,0c-.07,0-.18-.07-.29,0,.27-.33-.38-.1-.1-.37l-.13-.1,0,0c-.06-.09-.15-.05-.24,0s0-.05,0-.06c0-.17-.07-.17-.3-.12l.08-.1c-.07,0,0-.29-.22-.3l0,0c-.22,0,0-.54-.41-.26h-.15c.07.12-.16.12-.17.22s0-.2.06-.17v0c.18-.15-.07-.18,0-.3-.22-.18-.33-.47-.53-.66l-.1.16-.06-.07s.07-.13.12-.08-.15,0-.17,0c-.05-.14.18-.13.15-.16l-.05,0v0c-.08,0-.13.09-.19,0s.06-.11,0-.13l0,0-.09-.09,0,.14c-.09,0-.08-.07-.15.09.11-.25-.28-.35-.27-.44a.21.21,0,0,1-.24-.08s-.09.18-.14.12c.22-.26,0-.2.06-.44,0,.16-.2-.1-.26.14,0-.06.07-.1.07-.2-.2,0-.23-.26-.42-.33,0,0,0,.11-.11.14l0-.24s-.16.2-.14,0c0,0,0,.1-.06.1-.22-.39-.75-.22-.94-.75,0,.1,0,.1-.06.08s0,.1-.06.16l-.08-.21c-.1.14-.17-.06-.25.08h.06c-.13.15-.06.42-.17.64.15-.17.05.36.28.13,0,0-.06.06-.07.12s.11-.09.15,0l0,0c.18.05.2.18.35.34l0-.12s0,.07,0,.11c.13-.14-.11-.07,0-.22-.06.24.27.16.16.41.06,0,.06-.13.12-.09l0,.07.07-.07s0,.13,0,.18h0c0,.1.15.06.15.09l0-.07c.19,0,.32.24.56.22l0,0c.17,0,.05.11.2.16h0C32,36,32,36,32,36s0,.15-.1.18c.19,0,.11,0,.32-.13l0,.08c.08,0,.11-.07.18,0-.1,0-.05.15-.17.19,0,.25.32,0,.18.26.22-.15,0-.2,0-.21s.17-.11.2-.06-.15.31,0,.39h0c0,.08.13,0,.1.12.13-.1.05,0,.19-.09l-.12,0c.09,0,.29-.13.3,0l-.13,0c0,.06.07,0,.06.08s-.14-.07-.29,0,.19,0,0,.12c.22-.17.07.11.28,0l-.09.09s.09,0,.1,0l-.14.08c.15-.05,0,.18.12.17-.1-.09.08-.13.09-.23.24,0-.14.29,0,.39,0,0,0-.12,0-.14a.38.38,0,0,1,0,.18c.11.07.07-.11.16-.12-.07.13.09,0,.16,0l-.08.09c.05.16.2-.15.23,0l-.16.08.08,0-.1.09c.12,0,.12,0,.15.09s.16-.15.21-.11-.1.07,0,.12-.15.09-.1,0l-.1.07c0,.09.07.1.09.12s0,0,0,0l.21,0c0,.05,0,.06-.09.08s.08,0,.12,0-.15.14-.22.13h.17s0,.14-.08.15.26,0,.27.11h.07c0,.08,0,.22.18.2l-.08.17c.09,0,.1-.21.25-.16s-.09.13-.1.19.29-.09.25.07C34.56,38.77,34.56,38.74,34.53,38.73Zm.71.67s-.11,0-.06,0S35.26,39.35,35.24,39.4Zm.89,1.11s0,0,0-.07S36.16,40.48,36.13,40.51Zm.42,4.4h0C36.6,44.87,36.58,44.88,36.55,44.91Zm-.07.08h.05s0,0,0,0S36.46,45,36.48,45ZM33.22,35.9v0C33.16,35.94,33.19,35.92,33.22,35.9Z"/><path class="cls-11" d="M35.93,40.4l.06,0Z"/><polygon class="cls-11" points="34.04 38.31 34.03 38.31 34.02 38.32 34.04 38.31"/><path class="cls-11" d="M35.76,43.37s0,0,.07,0S35.77,43.34,35.76,43.37Z"/><path class="cls-11" d="M36.58,45.51v-.06s0,0,0,0S36.59,45.49,36.58,45.51Z"/><path class="cls-11" d="M35.74,45.87s0,0,0,0h.06S35.77,45.83,35.74,45.87Z"/><path class="cls-11" d="M36.18,45.48c-.11,0-.08,0-.07.08h0C36.25,45.59,36.21,45.54,36.18,45.48Z"/><path class="cls-11" d="M36.11,45.57v0S36.12,45.59,36.11,45.57Z"/><path class="cls-11" d="M36.52,45.12s.13,0,.09,0C36.73,45.21,36.48,45,36.52,45.12Z"/><polygon class="cls-11" points="35.84 45.45 35.96 45.46 35.87 45.41 35.84 45.45"/><path class="cls-11" d="M36,45.14l0,.06,0,0S36,45.15,36,45.14Z"/><path class="cls-11" d="M36,45.23s0,0,0,.05A.11.11,0,0,0,36,45.23Z"/><polygon class="cls-11" points="35.82 45.35 35.85 45.34 35.87 45.29 35.82 45.35"/><path class="cls-11" d="M36.16,44.45l0-.08s-.07,0-.06,0S36.12,44.45,36.16,44.45Z"/><path class="cls-11" d="M35.78,44.59h.1l-.15,0Z"/><path class="cls-11" d="M35.79,44.38s-.1-.13-.11,0S35.74,44.43,35.79,44.38Z"/><polygon class="cls-11" points="36.2 43.34 36.2 43.36 36.45 43.41 36.2 43.34"/><path class="cls-11" d="M35.75,42.31c-.07.07.15,0,.07.11s.07-.06.12,0S35.92,42.31,35.75,42.31Z"/><path class="cls-11" d="M35.94,42.39l0,0S36,42.4,35.94,42.39Z"/><polygon class="cls-11" points="30.27 33.9 30.24 33.83 30.24 33.92 30.27 33.9"/><path class="cls-11" d="M30.1,34l0-.16-.08.12A0,0,0,0,1,30.1,34Z"/><path class="cls-11" d="M35.06,39.71l0,0a.07.07,0,0,0,0-.07Z"/><polygon class="cls-11" points="34.73 39.12 34.73 39.13 34.83 39.02 34.73 39.12"/><path class="cls-11" d="M34.17,38.81s.06,0,.07,0S34.3,38.68,34.17,38.81Z"/><path class="cls-11" d="M22.15,45.66s0,.09,0,.11S22.14,45.63,22.15,45.66Z"/><polygon class="cls-11" points="22.32 45.38 22.33 45.42 22.34 45.31 22.32 45.38"/><path class="cls-11" d="M22.53,45.34c-.05-.18-.07,0-.12,0v.1S22.49,45.29,22.53,45.34Z"/><path class="cls-11" d="M22.72,45.7c0-.07,0-.06,0,0v0Z"/><path class="cls-11" d="M22.7,45.7s0,0,0,0Z"/><path class="cls-11" d="M22.79,45.64l0,.07s0,0,0,.07S22.82,45.7,22.79,45.64Z"/><path class="cls-11" d="M22.79,45.51v0S22.79,45.56,22.79,45.51Z"/><path class="cls-11" d="M22.76,45.6l0-.07s0-.08,0,0C22.76,45.5,22.77,45.56,22.76,45.6Z"/><path class="cls-11" d="M22.74,45.57a.11.11,0,0,1,0-.12C22.65,45.48,22.69,45.61,22.74,45.57Z"/><path class="cls-11" d="M22.51,45.15l0,0v.07S22.52,45.21,22.51,45.15Z"/><path class="cls-11" d="M23,45.7s0-.1,0-.15l0,.05A.16.16,0,0,1,23,45.7Z"/><path class="cls-11" d="M23,45.55l0-.07S22.94,45.51,23,45.55Z"/><polygon class="cls-11" points="22.76 45.31 22.73 45.45 22.77 45.3 22.76 45.31"/><polygon class="cls-11" points="23.11 45.67 23.11 45.77 23.12 45.63 23.11 45.67"/><path class="cls-11" d="M23.19,45.64c0,.08,0,.12,0,.17a.24.24,0,0,0,0-.14S23.23,45.7,23.19,45.64Z"/><path class="cls-11" d="M23.27,45.58a.34.34,0,0,1,0,.09A.22.22,0,0,0,23.27,45.58Z"/><path class="cls-11" d="M23,45.49a.47.47,0,0,0,.05.1l0-.11Z"/><path class="cls-11" d="M23,45.48Z"/><path class="cls-11" d="M23,45.49Z"/><path class="cls-11" d="M22.86,45.39a.29.29,0,0,0,0-.22A1.27,1.27,0,0,1,22.86,45.39Z"/><path class="cls-11" d="M23,45.36l0,0a.36.36,0,0,1,0,.1Z"/><polygon class="cls-11" points="22.99 45.32 22.98 45.36 22.99 45.36 22.99 45.32"/><path class="cls-11" d="M23.19,45.49a.09.09,0,0,1,0-.07l-.06,0S23.17,45.5,23.19,45.49Z"/><path class="cls-11" d="M23.12,45.48h0S23.11,45.46,23.12,45.48Z"/><polygon class="cls-11" points="23.41 45.39 23.4 45.37 23.41 45.39 23.41 45.39"/><path class="cls-11" d="M23.16,45.39s0,0,0,0l0,0Z"/><path class="cls-11" d="M23.31,45.52l0-.05S23.32,45.55,23.31,45.52Z"/><path class="cls-11" d="M23.13,45.5h0S23.13,45.51,23.13,45.5Z"/><path class="cls-11" d="M23.13,45.5v-.07s0,0,0,0Z"/><path class="cls-11" d="M23.32,44.7c0,.09,0,.19-.06.1a2.56,2.56,0,0,0,.14.57.4.4,0,0,1,0-.15s-.1-.11-.09-.2,0,0,.07.07c0-.12,0-.19,0-.37l0,.07S23.33,44.72,23.32,44.7Z"/><path class="cls-11" d="M23.34,45.37v0s0,0,.07.12a.26.26,0,0,0,0-.12h-.07Z"/><path class="cls-11" d="M23.26,45.4c0-.11,0-.16,0-.27s0,.09,0,.14,0,.07.05.12l0,0,.05,0h0s0,0,0,0h0v0s0,0,0,0v0h0l.06-.07A.06.06,0,0,0,23.26,45.4Z"/><path class="cls-11" d="M22.83,44.93v0Z"/><path class="cls-11" d="M22.87,45s0,.06,0,0,0,0,0-.08a.17.17,0,0,0,0,.13v0a.71.71,0,0,1,.09.17Z"/><path class="cls-11" d="M23.06,45.17l0-.06,0-.09v0S23.05,45.13,23.06,45.17Z"/><polygon class="cls-11" points="23.43 45.44 23.45 45.55 23.44 45.39 23.43 45.44"/><polygon class="cls-11" points="23.5 45.41 23.52 45.51 23.52 45.45 23.5 45.41"/><path class="cls-11" d="M26.82,42.89v0Z"/><path class="cls-11" d="M26.73,42.93l0,0Z"/><path class="cls-11" d="M25.26,44.93c0,.08.12.21.08.11l0-.11S25.27,45,25.26,44.93Z"/><path class="cls-11" d="M26.17,43.88l0,0,0,.1Z"/><path class="cls-11" d="M26,43.46l.06,0Z"/><path class="cls-11" d="M27.25,42.46l-.06-.1S27.21,42.42,27.25,42.46Z"/><path class="cls-11" d="M24.22,45.2s.05,0,.07,0S24.21,45.11,24.22,45.2Z"/><path class="cls-11" d="M27.39,43.9a.14.14,0,0,0,0-.06A.07.07,0,0,0,27.39,43.9Z"/><path class="cls-11" d="M24.35,45.23l0,0s0,0,0,0S24.35,45.31,24.35,45.23Z"/><path class="cls-11" d="M28.75,41h0Z"/><path class="cls-11" d="M30,41s0,0,0,0S30.05,41,30,41Z"/><path class="cls-11" d="M23.8,45.39s0,0,0,0Z"/><path class="cls-11" d="M23.63,45a.13.13,0,0,0,0,0A.2.2,0,0,0,23.63,45Z"/><path class="cls-11" d="M24.32,44.53h0S24.32,44.52,24.32,44.53Z"/><path class="cls-11" d="M23.76,45.35l0,0S23.78,45.36,23.76,45.35Z"/><path class="cls-11" d="M23.78,45.4h0S23.77,45.42,23.78,45.4Z"/><path class="cls-11" d="M23.82,45.38h0Z"/><path class="cls-11" d="M28.26,42.11Z"/><polygon class="cls-11" points="25.26 43.72 25.26 43.73 25.26 43.73 25.26 43.72"/><path class="cls-11" d="M25.28,43.63c0,.14,0,.12,0,.1l.13.29Z"/><path class="cls-11" d="M27,42.72l-.08-.06c-.05-.16,0-.13-.1-.23.18.29-.09.1.09.39l-.06,0s0,0,0,0,.11.22,0,.21a.13.13,0,0,1-.08-.08V43s0,0,0,0l-.05.06h0a1.54,1.54,0,0,1,.05.17s0,0,0-.07v.09c-.06-.07-.07-.16,0-.16-.21-.28,0,.09-.16,0v-.06c-.11-.16-.1-.08-.2-.17s.22.23.23.32,0,0,0,0c-.06-.1-.06-.07-.08,0l-.08-.14a1.08,1.08,0,0,0,.06.2s-.1-.11-.16-.2.13.16.09.22-.07,0-.07.15,0-.09-.07-.13l0,.13s0,0,0,0,.07.14.06.2-.19-.2-.14,0a1.07,1.07,0,0,1-.07-.15,1.1,1.1,0,0,0,0,.3l-.08-.08a.67.67,0,0,1,.11.37l.09.11,0,.1a.93.93,0,0,1-.05-.14v0a.5.5,0,0,1-.1-.22l.06.08a1.42,1.42,0,0,0-.1-.29,0,0,0,0,1,0,0,.11.11,0,0,0,0-.06s0,0,0,.06L26,43.45l0,.07-.12-.07c0,.18.09.45,0,.55a1.88,1.88,0,0,0-.14-.34c.09.14,0-.1.09-.08s-.05-.08-.05-.11l0,.17c-.05-.11-.05-.08-.09-.12.11.23,0,.18,0,.26s-.06-.16,0-.15c-.11-.16.06.29,0,.16s0,0,0,0-.06,0-.08,0h0c-.07,0-.18.07-.12.27l-.09-.29.13.72a4.15,4.15,0,0,1-.22-.69s-.05,0-.06,0a1.45,1.45,0,0,1,.11.26c-.11-.18-.07-.09-.17-.24,0,0,.11.31.08.31s-.1-.27-.1-.3l0,.29a1.7,1.7,0,0,0-.12-.3s-.05,0-.06,0l.05.06c-.08,0,.06.4,0,.41a1.42,1.42,0,0,0-.13-.38,4,4,0,0,1,.11.82l0-.08,0,.11c0-.22-.08-.69-.1-.87s0-.09-.07-.07a.11.11,0,0,1,0-.13l-.11,0c.06.16,0,.18,0,.32l.05-.2c.05.16.08.48,0,.47s-.07-.29-.09-.35,0,.13,0,.09v-.1c-.05,0,0,.24-.08.09s-.1-.2-.08-.1a8.25,8.25,0,0,1,.28.9,1.79,1.79,0,0,1-.18-.24c-.06-.14-.06-.36-.11-.48a.62.62,0,0,1,0,.12s0-.14-.06-.11-.07,0,0,.15,0,0-.08,0a1,1,0,0,1,0,.43.42.42,0,0,0,0-.12c-.07,0-.13-.06-.19,0a.4.4,0,0,1-.07-.16s0,.09,0,.1,0,0,0-.2a.34.34,0,0,1,0,.21c0,.15.07,0,.08,0a1,1,0,0,1,0,.55c0,.06,0-.13,0-.1s0,.39-.13.26a2.35,2.35,0,0,1-.09-.36c0-.06.09.07.12.06l-.06-.06c0-.05,0-.09.05-.05s-.17,0-.27-.08a.26.26,0,0,0,0,.15l0,0c0,.1,0,.16,0,.2s0,.21-.08.16L23.57,45s.05.09.06,0-.12-.19-.1,0l.06.1c0,.08,0,.25-.08.21,0,.15,0,0,.08.15-.08-.21.11,0,0-.23.08.19.08.07.16.24,0,0,0-.1,0-.08v0h0a.16.16,0,0,1,0-.07c0-.12.05-.13.06-.19s0,.06,0,.11v-.1c0,.11.1.17.07.25h0c0,.06.09.08.1,0s0-.13,0,0l.06-.09v0c.08,0,.1-.22.23,0,0,0,0-.07.08-.05l0,.09s.12.07.1,0c.11.25.17,0,.23.05l0-.13s.06,0,.09-.11l0-.11c0-.1.12,0,.18,0s0,0,0,0c.15.22.1-.23.22-.07,0,0,0,0,0,0h0l.05,0,0,0,0-.06.05.11h0s0-.06,0-.14a.22.22,0,0,0,0-.08c.08.18,0-.08.12.11,0-.1.07-.1,0-.31,0,0,0,0,0,0s.05,0,.05,0l.06.14,0-.21a.4.4,0,0,1,.1.25c0-.2,0-.09,0-.28l0,.1s0-.15.05-.08.23-.06.41.06c-.14-.26.1.1,0-.11,0,.06.06.09.06.15s.14.07.1-.13c0,.06,0,.1,0,.14s0-.07,0,0,0,.06,0,.09,0-.24-.11-.42c.07.07.08.05,0-.08,0,.06.08.11.05.15s.17,0,.1-.12c0,0,0,0,0,0s.06,0,.1,0h0c-.06-.19,0-.06.05-.1v0c.15.08,0-.08.16,0l-.06-.1c-.11-.24.14.1.14,0l-.05-.06c0-.09.24.28.28.29s0,0,0,.06S27,44,27.05,44s.1.2.14.2,0-.3.09-.18a.29.29,0,0,1-.09-.16s.22.16.14,0l0,0c0-.06,0-.13,0-.23.25.33.05-.28.26,0l.07-.07,0,0c.06,0,0-.1,0-.19a.15.15,0,0,1,.05.07c.12,0,.12,0,.06-.21l.08.1c0-.07.22.08.2-.09l0,.05c0-.17.4.13.14-.25l0-.13c-.08,0-.12-.16-.19-.19s.15,0,.14.09h0c.14.19.13,0,.23.12.12-.11.33-.12.44-.23l-.14-.12.05,0s.11.09.08.11,0-.1,0-.13.13.17.15.16v0h0c0-.08-.09-.13-.05-.16s.09.07.1.06,0,0,0,0l.06,0-.13-.09c0-.07.05,0-.09-.13.22.15.24-.12.31-.09s0-.13,0-.16S29,42,29.05,42c.26.23.17,0,.38.15-.15-.07.05-.12-.17-.22,0,0,.1.07.19.1-.05-.15.18-.11.21-.23a.45.45,0,0,1-.14-.11l.21.08s-.2-.16-.05-.11a.2.2,0,0,1-.09-.06c.31-.07.07-.45.53-.47-.09,0-.09,0-.08-.06s-.1-.05-.16-.07h.19c-.14-.09,0-.1-.11-.17l0,0c-.16-.11-.41-.12-.63-.23.18.13-.33-.05-.07.14-.06,0-.07,0-.12-.06s.09.08,0,.09h0c0,.09-.13.09-.24.14l.11,0s-.06,0-.09,0c.14.12,0,0,.2.08-.23-.1-.09.14-.34,0,0,0,.13.06.11.09l-.07,0,.08.06a.29.29,0,0,1-.17-.07s0,0,0,0,0,.09-.05.08h.06c0,.12-.14.16-.08.32l.05,0c0,.12-.08,0-.09.1h0s0,.08,0,.1-.12-.06-.16-.12c0,.13,0,.08.16.26l-.07,0c.05.07.08.1.07.14s-.12-.07-.18-.17.07.23-.18.06c.17.2.16,0,.19.1s.12.15.08.15-.28-.19-.32-.14,0,0,0,0,0,.1-.07.05c.1.12,0,0,.1.16l0-.07c0,.06.15.25,0,.21a.3.3,0,0,1-.06-.11c-.06,0,0,0-.06,0s0-.09-.05-.22.05.15-.09,0c.17.21-.07,0,0,.2L28,42s0,.07,0,.08L28,42c.07.12-.12,0-.1,0s.11.09.19.14-.25-.2-.28-.09.08,0,.1.07a.24.24,0,0,1-.13-.06c0,.06.09.09.12.16-.11-.09,0,.07,0,.12l-.08-.09c-.11,0,.15.21,0,.18l-.09-.15v.06l-.08-.11c0,.1,0,.09-.05.08s.14.18.11.2-.06-.09-.09,0-.09-.15,0-.07l-.06-.1c-.07,0-.06,0-.08,0h0l0,.18a.17.17,0,0,1-.07-.1s0,.07,0,.09-.12-.16-.12-.21v.12s-.1-.07-.11-.1,0,.2,0,.17a.11.11,0,0,1,0,.05c-.05,0-.15-.06-.12.08L27,42.48c0,.06.16.16.14.26s-.1-.12-.15-.15.1.26,0,.17S27,42.74,27,42.72Zm-.41.34s0-.1,0,0S26.65,43.09,26.61,43.06ZM26,43.7s0,0,0,0S26,43.72,26,43.7Zm-2.06,1.56h0S24,45.27,23.94,45.26Zm-.06,0a.11.11,0,0,0,0,.05s0,0,0,0S23.89,45.19,23.88,45.22ZM29,42.57l0,0S28.94,42.54,29,42.57Z"/><path class="cls-11" d="M26,43.51l0,.05A.05.05,0,0,0,26,43.51Z"/><polygon class="cls-11" points="27.25 42.48 27.26 42.48 27.25 42.46 27.25 42.48"/><path class="cls-11" d="M24.39,44l0,0S24.41,44,24.39,44Z"/><path class="cls-11" d="M23.65,45.48l0,0s0,0,0,0S23.66,45.48,23.65,45.48Z"/><path class="cls-11" d="M23.21,44.8s0,0,0,0v.06S23.23,44.82,23.21,44.8Z"/><path class="cls-11" d="M23.53,45.09c0-.1,0-.06-.05,0h0C23.5,45.2,23.52,45.14,23.53,45.09Z"/><path class="cls-11" d="M23.47,45.06h0S23.46,45.08,23.47,45.06Z"/><path class="cls-11" d="M23.83,45.3s0,.13,0,.09C23.85,45.52,23.87,45.22,23.83,45.3Z"/><polygon class="cls-11" points="23.44 44.77 23.48 44.89 23.47 44.78 23.44 44.77"/><path class="cls-11" d="M23.64,44.82l-.05,0s0,0,0,0S23.65,44.85,23.64,44.82Z"/><path class="cls-11" d="M23.59,44.83s0,0,0,0S23.59,44.85,23.59,44.83Z"/><polygon class="cls-11" points="23.48 44.72 23.5 44.74 23.52 44.74 23.48 44.72"/><path class="cls-11" d="M24,44.75l0,0s0-.06,0,0A.27.27,0,0,0,24,44.75Z"/><path class="cls-11" d="M23.83,44.44s0,.05,0,.09l0-.15Z"/><path class="cls-11" d="M23.93,44.38c0-.05,0-.14,0-.12S23.89,44.35,23.93,44.38Z"/><polygon class="cls-11" points="24.57 44.41 24.56 44.42 24.63 44.66 24.57 44.41"/><path class="cls-11" d="M24.88,43.67c-.06,0,0,.16,0,.1s.05,0,.05.1S25,43.83,24.88,43.67Z"/><path class="cls-11" d="M24.91,43.87v0S24.92,43.88,24.91,43.87Z"/><polygon class="cls-11" points="30.22 40.94 30.29 40.93 30.2 40.92 30.22 40.94"/><path class="cls-11" d="M30.07,40.81l.16,0-.13-.07S30.11,40.82,30.07,40.81Z"/><path class="cls-11" d="M26.38,42.81l0,0s0,0,.05,0Z"/><polygon class="cls-11" points="26.77 42.73 26.76 42.73 26.85 42.85 26.77 42.73"/><path class="cls-11" d="M26.93,42.4s0,0,0,0S27,42.55,26.93,42.4Z"/><polygon class="cls-12" points="31.03 48.89 28.92 48.89 29.3 46.78 31.4 46.78 31.03 48.89"/><path class="cls-13" d="M31.64,49s.09,0,.11,0S31.61,49,31.64,49Z"/><polygon class="cls-13" points="31.44 48.74 31.48 48.75 31.38 48.7 31.44 48.74"/><path class="cls-13" d="M31.47,48.55c-.18,0,0,.07,0,.1h0l.14,0S31.42,48.57,31.47,48.55Z"/><path class="cls-13" d="M31.88,48.52c-.07,0-.06,0,0,0h0Z"/><path class="cls-13" d="M31.87,48.53s.06,0,0,0Z"/><path class="cls-13" d="M31.85,48.43l0,0s.06,0,.09,0S31.92,48.43,31.85,48.43Z"/><path class="cls-13" d="M31.72,48.39h0S31.77,48.4,31.72,48.39Z"/><path class="cls-13" d="M31.79,48.44l-.05,0s-.08,0,0,0C31.71,48.41,31.76,48.42,31.79,48.44Z"/><path class="cls-13" d="M31.76,48.45s-.07,0-.12,0S31.78,48.51,31.76,48.45Z"/><path class="cls-13" d="M31.29,48.51h-.05l.05,0S31.35,48.52,31.29,48.51Z"/><path class="cls-13" d="M32,48.29l-.15,0,0,0A.17.17,0,0,1,32,48.29Z"/><path class="cls-13" d="M31.82,48.27l-.06,0S31.77,48.26,31.82,48.27Z"/><polygon class="cls-13" points="31.52 48.35 31.65 48.42 31.52 48.34 31.52 48.35"/><polygon class="cls-13" points="31.99 48.17 32.08 48.21 31.95 48.15 31.99 48.17"/><path class="cls-13" d="M32,48.1c.07,0,.12,0,.17,0L32,48S32.05,48.09,32,48.1Z"/><path class="cls-13" d="M32,48,32,48Z"/><path class="cls-13" d="M31.78,48.18h0Z"/><path class="cls-13" d="M31.78,48.17h0v0Z"/><path class="cls-13" d="M31.78,48.19h0S31.77,48.18,31.78,48.19Z"/><path class="cls-13" d="M31.63,48.29a.27.27,0,0,0-.21-.06C31.49,48.26,31.55,48.25,31.63,48.29Z"/><path class="cls-13" d="M31.65,48.18l0,0,.09,0Z"/><polygon class="cls-13" points="31.61 48.16 31.65 48.18 31.66 48.17 31.61 48.16"/><path class="cls-13" d="M31.85,48A.12.12,0,0,1,31.8,48a.2.2,0,0,0,0,.08S31.85,48.06,31.85,48Z"/><path class="cls-13" d="M31.81,48.1h0Z"/><polygon class="cls-13" points="31.85 47.7 31.83 47.7 31.85 47.7 31.85 47.7"/><path class="cls-13" d="M31.74,48s0,0,0,0a0,0,0,0,1,0,0Z"/><path class="cls-13" d="M31.93,47.88l-.07,0S32,47.89,31.93,47.88Z"/><path class="cls-13" d="M31.83,48.1h0Z"/><path class="cls-13" d="M31.83,48.1l-.06,0,0,0Z"/><path class="cls-13" d="M31.15,47.68c.1,0,.19,0,.07.06a1.7,1.7,0,0,0,.61,0,.2.2,0,0,1-.14,0c-.06,0-.15.1-.23.07s0,0,.1-.07c-.13,0-.18,0-.37,0l.06,0Z"/><path class="cls-13" d="M31.8,47.8v0s.07,0,.15-.07a.21.21,0,0,0-.11,0l0,.1Z"/><path class="cls-13" d="M31.8,47.91a.63.63,0,0,0-.27-.06s.08,0,.12.08.06,0,.13,0a.06.06,0,0,1,0,.05l.06,0H31.8s0,0,0,0h0l0-.1S31.79,47.86,31.8,47.91Z"/><path class="cls-13" d="M31.2,48.16h0Z"/><path class="cls-13" d="M31.27,48.15s.05,0,0,0l-.09,0a.23.23,0,0,0,.13,0h0a.45.45,0,0,1,.19,0Z"/><path class="cls-13" d="M31.5,48l0-.06h-.05S31.46,48,31.5,48Z"/><polygon class="cls-13" points="31.91 47.69 32.02 47.69 31.86 47.65 31.91 47.69"/><polygon class="cls-13" points="31.91 47.58 32.02 47.57 31.96 47.55 31.91 47.58"/><path class="cls-13" d="M29.75,47.66h0Z"/><path class="cls-13" d="M29.77,47.62l-.05,0Z"/><path class="cls-13" d="M31,46.15c0-.09,0-.24,0-.13l0,.11S30.94,46.13,31,46.15Z"/><path class="cls-13" d="M29.58,46.81l0,0,0-.11Z"/><path class="cls-13" d="M29.83,47.26l-.06-.07Z"/><path class="cls-13" d="M29.82,48h0Z"/><path class="cls-13" d="M32.06,46.51a.5.5,0,0,0,.09-.13C32.07,46.47,32,46.58,32.06,46.51Z"/><path class="cls-13" d="M28.64,47.27a.07.07,0,0,0,.06,0Z"/><path class="cls-13" d="M32.17,46.29l0,0s0,0,0,.05S32.25,46.26,32.17,46.29Z"/><path class="cls-13" d="M30.23,48.26h0Z"/><path class="cls-13" d="M30.85,49.37h0S30.84,49.38,30.85,49.37Z"/><path class="cls-13" d="M32,47.13s0,0,0,0Z"/><path class="cls-13" d="M31.56,47.38h0Z"/><path class="cls-13" d="M31.35,46.8Z"/><path class="cls-13" d="M32,47.18l0,0Z"/><path class="cls-13" d="M32,47.16l0,0S32.05,47.17,32,47.16Z"/><path class="cls-13" d="M32,47.1l0,0h0Z"/><path class="cls-13" d="M29.43,48.55h0S29.46,48.53,29.43,48.55Z"/><polygon class="cls-13" points="30.27 47.29 30.27 47.29 30.27 47.28 30.27 47.29"/><path class="cls-13" d="M30.24,47.37c0-.13,0-.12,0-.09V47C30.26,47.1,30.25,47.24,30.24,47.37Z"/><path class="cls-13" d="M29.75,47.85h.1c.15.08.1,0,.24.07-.34,0,0-.13-.35-.19h.08c.17,0-.24-.06-.18-.09l.11,0-.08,0,.06,0,0,0h0l-.16-.09c.05,0,0,0,.07,0l-.07-.06c.08,0,.16.09.15.1.32.14-.08-.06.11,0l0,0c.18.1.12.05.23.12-.06,0-.29-.15-.36-.21s0,0,0,0c.12.07.09,0,.08,0l.15.11-.18-.15a1,1,0,0,1,.22.16s-.18-.14-.2-.18,0,0-.08-.14l.13.13-.11-.13.05.06a1.84,1.84,0,0,1-.17-.22c-.06-.08,0,0,0,0s.15.16.08.05l.12.16-.14-.28.1.11a1,1,0,0,1-.19-.38l-.11-.14,0-.09s0,.09.07.15v0a.77.77,0,0,1,.12.24l-.07-.1a1.73,1.73,0,0,0,.16.3l0,0,0,.06s0,0,0-.06l.11.19,0-.08.1.12c-.07-.19-.13-.45-.07-.53,0,.13.06.22.1.38-.06-.17,0,.07-.05,0a.26.26,0,0,1,.05.12s0-.1,0-.15a.67.67,0,0,0,.06.15c-.07-.25,0-.17,0-.25,0,.09,0,.17,0,.15.06.19,0-.29,0-.13,0,0,0,0,0,0s0,0,0,.06h0s.15,0,.16-.21c0,0,0,.26,0,.3a4.54,4.54,0,0,1,.13-.72,6.51,6.51,0,0,1-.08.73s0,.05,0,0a2.58,2.58,0,0,1,0-.29,2.79,2.79,0,0,1,0,.29,1.12,1.12,0,0,1,.09-.32l-.08.32c0-.1.07-.19.11-.29s-.06.24-.08.32,0,0,0,0v-.07c0,.05.19-.4.25-.38a2.27,2.27,0,0,0-.18.4,3.45,3.45,0,0,1,.57-.82l0,.09.12-.1a8.1,8.1,0,0,0-.65.86c0,.07,0,.1,0,.09s-.07.12-.08.12v.06a3.47,3.47,0,0,1,.22-.32l-.15.18c.09-.17.32-.48.36-.45s-.22.3-.26.36.11-.12.09-.07l-.08.09c0,.06.2-.23.09-.07s-.17.22-.08.12.67-.79.81-.94a.86.86,0,0,1-.14.28c-.13.15-.38.37-.49.5l.13-.13s-.14.15-.1.13c.17-.18,0,0,.15-.15s0,0,0,0a3.9,3.9,0,0,1,.54-.43l-.14.13h0a1.16,1.16,0,0,0-.12.2,2.3,2.3,0,0,1-.2.16l.1-.05c-.17.14,0,0-.23.15a.62.62,0,0,1,.22-.1c.18-.13.05-.08,0-.05a1.28,1.28,0,0,1,.6-.3c.05,0-.17.12-.13.11s.4-.12.21.08a2.56,2.56,0,0,1-.42.2c-.05,0,.11-.11.11-.14l-.08.08s-.08,0,0,0c-.14.1-.06.18-.19.3a.48.48,0,0,0,.15,0h0c.12-.07.15,0,.22-.07s.19,0,.12.1l-.17,0c.05,0,.1-.06.06-.06s-.24.13,0,.11l.12-.07c.08,0,.24,0,.18.12.16,0,0,0,.18-.08-.24.08,0-.17-.22-.05.23-.1.1-.1.3-.22-.05,0-.1.06-.07,0H32l-.09.05c-.12,0-.1-.06-.16-.06s.06,0,.12,0h-.09c.12-.06.22-.17.28-.13l0-.07c.07-.07.11-.15.06-.15s-.12,0,0,0L32,46.7l0,0c0-.13-.18-.06.08-.35,0,0-.06,0,0-.1l.12-.1s0,0,0-.06,0-.06-.12,0c.25-.27-.18-.06-.21-.11l-.12.13a.57.57,0,0,0-.25.08l-.09.11c-.13.1-.07-.08-.18-.06s0,0,0,0c.06-.26-.34.19-.32,0,0,0-.05,0-.06,0h0v0a.16.16,0,0,0-.09,0l0-.13h0s-.05.06-.07.15l-.06.07c0-.2-.09.07-.05-.14-.05.1-.16.07-.21.29,0,0,0,0,0,0s0,0-.08,0v-.16l-.08.21a.36.36,0,0,1,0-.27c-.1.19-.08.07-.15.25v-.1s0,.14-.06.06-.26,0-.45-.2c.11.29-.12-.14-.05.09,0-.07-.07-.11-.07-.17s-.18-.11-.15.08c0-.07,0-.1-.06-.14s0,.06,0,0,0-.06,0-.09,0,.23.11.43c-.09-.1-.1-.08-.05,0,0-.07-.12-.14-.08-.16s-.24-.1-.13.07c0-.05-.05,0,0,0a.3.3,0,0,0-.13,0l0,0c.05.07.06.09.06.1s-.05,0,0,0l0,0c-.14,0,.05.1-.1.06l.1.1c.23.22-.15,0-.07.1l.06,0c.08.09-.33-.16-.37-.13s0,0,0-.06c-.16,0,.14.11.16.21s-.19-.15-.22-.1.23.3.07.28a.28.28,0,0,1,.17.09c0,.05-.26,0-.07.16H28.7c0,.06.06.15.17.2-.42,0,.17.2-.21.13v.12h0c0,.08.05.11.14.14h-.09c-.09.11-.08.13.1.19l-.13,0c.07,0-.24.2-.1.28h-.06c.14,0-.44.49.06.29h.11c.06-.11.22-.1.32-.18s-.17.16-.19.14l0,0c-.26.13-.11.16-.3.27a2.21,2.21,0,0,1-.17.49l.16,0,.17-.19h.05s-.12.15-.16.14.17-.09.21-.13-.25.22-.23.22h.06v0c.11-.08.19-.16.23-.15s-.08.11-.07.12,0,0,0,0h.08l.08-.14c.1-.08.07,0,.17-.16-.15.25.23.09.21.17.11-.11.15-.11.2-.09s.07-.2.1-.18c-.15.34,0,.15,0,.39,0-.16.17,0,.17-.27,0,0,0,.13,0,.21.12-.13.27.09.36,0a.59.59,0,0,1,0-.18l.05.23s0-.26.05-.11a.17.17,0,0,1,0-.1c.18.21.38-.18.56.23,0-.09,0-.1,0-.1a.94.94,0,0,1,0-.17l.08.16c0-.16.08,0,.09-.17l0,0c0-.19,0-.42,0-.66,0,.21-.1-.32-.16,0,0-.05,0-.08,0-.14,0,.11,0,.13-.07.08v0c-.1,0-.14-.08-.25-.15v.12s0-.05,0-.08c0,.18.07,0,0,.21,0-.24-.16,0-.18-.28,0,0,0,.14,0,.14v0a.39.39,0,0,1,0-.18l0,0c0-.09-.09,0-.1,0l0,.05c-.14.07-.11,0-.21.12v.06c-.07.1,0-.06-.07,0v0c0,.06-.05.09-.06.08s0-.13.08-.2a3,3,0,0,0-.2.3l0-.1c-.06.09-.08.13-.13.16s.07-.15.16-.25-.22.2,0-.1c-.22.26-.06.15-.12.2s-.16.2-.17.17.23-.33.2-.33h0c.05-.07-.1.09,0,0-.16.16,0,0-.21.19l.08,0c-.06.06-.33.29-.26.18l.16-.13c.05,0-.07,0,0,0s.09,0,.26-.19-.18.14.05-.08c-.3.28,0,0-.24.18l.14-.12-.1.07.19-.15c-.08.06-.06,0,0,0s.1-.09.05-.06-.17.14-.28.24.38-.32.32-.29l-.15.12a.86.86,0,0,1,.16-.13,1.67,1.67,0,0,0-.23.15c.17-.13-.07,0-.12,0l.14-.09c.1-.09-.29.17-.17.06l.19-.09h-.05l.16-.09c-.12.05-.09,0,0,0-.1,0-.25.12-.25.1s.13-.05.11-.06.19-.08.07,0l.12-.06c.1,0,0,0,0,0l0,0-.18,0,.13,0h-.09l.27-.09-.12,0,.17-.06c.06,0-.2,0-.12,0h-.05s.15,0,0-.05h.18s-.23,0-.29,0,.15,0,.2,0-.27,0-.11-.08S29.74,47.84,29.75,47.85Zm0-.32s.09.07,0,0S29.69,47.51,29.73,47.53Zm0-.49s0,0,0,0S29.74,47,29.77,47ZM32,46.93h0C32,46.87,32,46.89,32,46.93Zm-.08.1L32,47s0,0,0,0S31.88,47,31.9,47Zm-3.09,2.35v0C28.88,49.31,28.85,49.34,28.81,49.38Z"/><path class="cls-13" d="M29.8,47.21l0-.07A.13.13,0,0,0,29.8,47.21Z"/><polygon class="cls-13" points="29.8 47.96 29.79 47.96 29.82 47.95 29.8 47.96"/><path class="cls-13" d="M30.7,47.28l.05-.06Z"/><path class="cls-13" d="M32.06,47.36l0,0s0,0-.05,0S32.06,47.34,32.06,47.36Z"/><path class="cls-13" d="M31.21,47.79h.07S31.24,47.77,31.21,47.79Z"/><path class="cls-13" d="M31.62,47.49c-.11,0-.08,0-.06.07h0C31.71,47.54,31.67,47.51,31.62,47.49Z"/><path class="cls-13" d="M31.56,47.56a0,0,0,0,1,0,0C31.62,47.58,31.57,47.57,31.56,47.56Z"/><path class="cls-13" d="M32,47.09s.14-.05.1,0C32.2,47,31.9,47,32,47.09Z"/><polygon class="cls-13" points="31.26 47.58 31.4 47.54 31.29 47.55 31.26 47.58"/><path class="cls-13" d="M31.39,47.38l0,0h0S31.43,47.36,31.39,47.38Z"/><path class="cls-13" d="M31.39,47.42s0,0,0,0S31.41,47.43,31.39,47.42Z"/><polygon class="cls-13" points="31.23 47.54 31.26 47.52 31.27 47.5 31.23 47.54"/><path class="cls-13" d="M31.49,47h0c-.05,0-.08,0-.06.06Z"/><path class="cls-13" d="M31.08,47.3l.11-.07-.18.1Z"/><path class="cls-13" d="M31.05,47.25c-.05,0-.14.06-.13.08A.46.46,0,0,0,31.05,47.25Z"/><polygon class="cls-13" points="31.07 46.85 31.08 46.85 31.31 46.59 31.07 46.85"/><path class="cls-13" d="M30.36,47.46c0,.07.07-.15.05-.08s0-.06,0-.11A.53.53,0,0,0,30.36,47.46Z"/><path class="cls-13" d="M30.45,47.27l0,0Z"/><polygon class="cls-13" points="30.95 49.51 30.98 49.56 30.96 49.48 30.95 49.51"/><path class="cls-13" d="M31,49.32v.16l0-.15S31,49.35,31,49.32Z"/><path class="cls-13" d="M30,47.7l0,0-.05,0Z"/><polygon class="cls-13" points="29.91 47.71 29.91 47.71 29.76 47.67 29.91 47.71"/><path class="cls-13" d="M30.06,47.91h0Z"/><path class="cls-11" d="M48.53,38.76c0,.13.09.09.11.11C48.6,38.64,48.51,38.77,48.53,38.76Z"/><polygon class="cls-11" points="48.13 36.61 48.17 36.64 48.03 36.34 48.13 36.61"/><path class="cls-11" d="M47.68,34.64c-.09.23.21.7.25,1.07l0,.06.16.13A10.8,10.8,0,0,1,47.68,34.64Z"/><path class="cls-11" d="M47.63,33.5c0,.09-.13-.2.07.25v0Z"/><path class="cls-11" d="M47.7,33.7c.08.21,0-.15,0,0Z"/><path class="cls-11" d="M47.27,32.79l.18.24c0-.07-.1-.31,0-.23C47.26,32.55,47.26,32.62,47.27,32.79Z"/><path class="cls-11" d="M47.05,32.6l.09.12S47.13,32.65,47.05,32.6Z"/><path class="cls-11" d="M47.32,33l-.18-.26c0,.05,0,.07.08.12C47.16,32.84,47.23,32.88,47.32,33Z"/><path class="cls-11" d="M47.37,33.15c.05.16.09.36-.06.12C47.52,33.77,47.6,33.65,47.37,33.15Z"/><path class="cls-11" d="M47.49,34.6a1.36,1.36,0,0,1,0,.21l.1.16C47.57,34.88,47.54,34.57,47.49,34.6Z"/><path class="cls-11" d="M46.49,31.18s0,.13-.05.17l.14.16C46.55,31.41,46.46,31.22,46.49,31.18Z"/><path class="cls-11" d="M46.44,31.35l-.21-.23C46.37,31.36,46.42,31.39,46.44,31.35Z"/><polygon class="cls-11" points="46.88 32.63 47.21 33.04 46.83 32.54 46.88 32.63"/><polygon class="cls-11" points="45.81 30.18 45.98 30.28 45.69 30.09 45.81 30.18"/><path class="cls-11" d="M45.31,29.55c.13.06-.05-.21.08-.13a2.76,2.76,0,0,0-.48-.35A1.64,1.64,0,0,1,45.31,29.55Z"/><path class="cls-11" d="M44.67,28.91a2,2,0,0,0,.24.16A1.43,1.43,0,0,0,44.67,28.91Z"/><path class="cls-11" d="M46,30.66a.44.44,0,0,0-.07-.25v.15Z"/><path class="cls-11" d="M45.87,30.57h0l-.15-.22Z"/><path class="cls-11" d="M46,30.69v0S46,30.68,46,30.69Z"/><path class="cls-11" d="M46.57,31.87c-.14-.13-.38-.43-.26-.07C46.43,31.87,46.36,31.67,46.57,31.87Z"/><path class="cls-11" d="M46,30.88c.06.09.1.19.16.29s0-.09.08,0A3,3,0,0,0,46,30.88Z"/><polygon class="cls-11" points="45.84 30.76 45.96 30.88 45.89 30.77 45.84 30.76"/><path class="cls-11" d="M45,29.4a3.32,3.32,0,0,1-.36-.32c.12.15.24.3.37.44S45.13,29.55,45,29.4Z"/><path class="cls-11" d="M45.43,30l0,0S45.42,30,45.43,30Z"/><polygon class="cls-11" points="43.37 27.87 43.38 27.9 43.39 27.89 43.37 27.87"/><path class="cls-11" d="M45,29.56a.73.73,0,0,0,.23.21L45,29.52S45,29.53,45,29.56Z"/><path class="cls-11" d="M44.3,28.59l.14.21C44.41,28.72,44.34,28.59,44.3,28.59Z"/><path class="cls-11" d="M45.4,29.88l0,0S45.4,29.86,45.4,29.88Z"/><path class="cls-11" d="M45.4,29.88l-.16-.11.17.17A.13.13,0,0,1,45.4,29.88Z"/><path class="cls-11" d="M42.58,28c.06-.05.42.09.59.38s.31-.19.21-.5c0,0-.05,0-.35-.11.08.09.48.55.23.43s-.26-.25-.39-.41c.07.19-.53-.2-.55,0l.33.18S42.51,27.94,42.58,28Z"/><path class="cls-11" d="M43.83,28.33l.11.08a2.11,2.11,0,0,1-.27-.4c-.19-.12-.25-.13-.28-.12l.49.46Z"/><path class="cls-11" d="M44.39,28.83c-.14,0-.41-.2-.34,0,.29.27.25.15.44.29-.44-.46.16.1-.11-.28a1.93,1.93,0,0,1,.25.24l-.19-.28v0h0s0,0,0,0h0c-.12-.15,0,0,0,0h0c-.16-.15-.34-.27-.51-.41C44,28.52,44.17,28.62,44.39,28.83Z"/><path class="cls-11" d="M46,31.62s0,0,0,0S45.92,31.55,46,31.62Z"/><path class="cls-11" d="M45.88,31.37a.43.43,0,0,1,.15.17c0,.13,0,0-.06.05s.22.23.11,0l0,0c-.1-.23-.18-.57-.14-.54A.9.9,0,0,0,45.88,31.37Z"/><path class="cls-11" d="M45.17,30.07a3.23,3.23,0,0,0-.37-.37l.11.25,0,0C45.12,30.15,45.12,30.06,45.17,30.07Z"/><path class="cls-11" d="M43.35,27.79l.12,0c-.11,0-.23-.05-.34-.08Z"/><polygon class="cls-11" points="42.78 27.38 42.86 27.33 42.68 27.26 42.78 27.38"/><path class="cls-11" d="M22.8,45.62l.1.11A.57.57,0,0,0,22.8,45.62Z"/><path class="cls-11" d="M22.31,44.69h0S22.32,44.73,22.31,44.69Z"/><path class="cls-11" d="M26.67,26.68c-.24.05-.53.08-.45.15l.11,0A1.33,1.33,0,0,1,26.67,26.68Z"/><path class="cls-11" d="M20.71,36.16l0-.06-.06-.16A2,2,0,0,0,20.71,36.16Z"/><path class="cls-11" d="M21.07,36.38l-.1.27A1.79,1.79,0,0,0,21.07,36.38Z"/><path class="cls-11" d="M26.77,49.72l.19,0C26.74,49.59,26.81,49.69,26.77,49.72Z"/><path class="cls-11" d="M36.24,24.71a3.21,3.21,0,0,0-.48-.13C36,24.67,36.17,24.78,36.24,24.71Z"/><path class="cls-11" d="M21.7,45.75c.06.08.1.1.12.09S21.71,45.72,21.7,45.75Z"/><path class="cls-11" d="M35.19,24.54l.1,0a2.49,2.49,0,0,1,.47,0A.92.92,0,0,0,35.19,24.54Z"/><path class="cls-11" d="M45.19,46.27l0,0S45.2,46.25,45.19,46.27Z"/><path class="cls-11" d="M48.28,40.76c0,.07,0,.17,0,.26A1.83,1.83,0,0,0,48.28,40.76Z"/><path class="cls-11" d="M40.4,25.89c.14.06,0,0,0,0Z"/><path class="cls-11" d="M40.87,26.54a.08.08,0,0,0-.07,0A.09.09,0,0,1,40.87,26.54Z"/><path class="cls-11" d="M33.73,25.11h0S33.76,25.13,33.73,25.11Z"/><path class="cls-11" d="M40.59,26l-.16-.11Z"/><path class="cls-11" d="M40.58,26l.11.07S40.71,26,40.58,26Z"/><path class="cls-11" d="M40.22,25.81l.21.11,0,0Z"/><path class="cls-11" d="M36,52.24h0C36.14,52.18,36.08,52.2,36,52.24Z"/><polygon class="cls-11" points="24.43 29.8 24.44 29.78 24.43 29.8 24.43 29.8"/><path class="cls-11" d="M24.16,30.21a.6.6,0,0,1,.27-.41l-.32-.07Z"/><path class="cls-11" d="M24.31,47.64l-.16-.31c.38.21.54.46.42.15-.12.07-.37-.15-.58-.41s-.4-.52-.54-.46l-.09-.21c0,.05.06.05.1.1-.15-.43-.37-.14-.64-.66-.08-.18-.12-.32,0-.22l-.29-.34c-.06-.12,0-.12.06,0-.12-.19-.22-.4-.32-.6h0a1.94,1.94,0,0,1-.32-.32c0-.17.06.07.08,0a3.55,3.55,0,0,1-.23-.31c0-.17.2.09.31.32.12-.43-.22-.24-.31-1l.16.32c.08-.28-.07-.51-.11-.91,0,.1,0,.83-.19.47a1,1,0,0,0-.19-.45c.1,0,0-.23-.05-.49h.15c-.11-.27-.18-.23-.28-.38a.46.46,0,0,1,.1-.5c-.05-.51-.12.39-.24-.21A5.07,5.07,0,0,0,20.89,40c0-.3.09.05.13-.06l-.13-.26c0-.07,0,0,.06,0-.06-.22-.15,0-.2-.37-.18-.09.21-.73.07-1.17,0-.11.08.06.14,0-.08-.56-.06-.44-.15-1l.16-.41c-.15.3-.22-.12-.26-.49a2.38,2.38,0,0,0-.16.25,3.69,3.69,0,0,1,0-.58c0-.07.07,0,.1.11v-.11c.1-.19.15-.07.19.09l-.13.18c.06.16.13.3.22.29a.54.54,0,0,1,0-.19s0,.07.05,0,0-.08,0-.17l.18-.09-.05-.05.28-.67a4.6,4.6,0,0,1,.17-1.87c0,.23.15.11.27.18-.22.15-.16.62-.34,1,.09-.2.14-.13.14-.07l.14-.77c.09.06.13-.12.26-.27-.27,0,.11-.58.19-.89.07,0,.11.12-.07.45.33-.3,0-.62.34-.9-.05.08-.09.12-.07.17.05-.22.37-.65.36-.51l0,.08c.3-.53,1.08-1.52,1-1.72a.9.9,0,0,1,.13.26c.07-.41.17-.82.27-1.25.05.18.58.17.3.61a2,2,0,0,0,.43-.46c-.09.05-.34,0-.25-.1a4.08,4.08,0,0,0,.7-.31c-.13.08-.18-.22,0-.38,0,0,.17.18.13.25a6.1,6.1,0,0,1,.29-.57c-.09.13.11.18.26.16-.08,0,.41-.3.52-.41l-.23.1c.54-.37.34-.67.92-1,0,.08,0,.37.3.22a2.32,2.32,0,0,1,.82-1.22l.14,0a4.56,4.56,0,0,1,.39-.27c-.21.28-.75,1-1.05,1.33.25-.06.1,0,.43-.13.15,0-.14.18-.23.23l.79-.33c-.11-.13.53-.4.46-.49a6.72,6.72,0,0,0-.79.52c-.1-.1.3-.65.91-.82.17,0,0,.29,0,.33a1.72,1.72,0,0,1,.58-.28l-.22.17c.34-.07.47-.39.91-.35.14,0,.45.08.45,0-.26-.1-.44-.6-.31-.76a3.69,3.69,0,0,1,1,0c.26.09-.29.36-.07.45,0-.05.12-.11.17-.14s0,.13.28.07c0-.16.65-.09.13-.15a3,3,0,0,1,.71-.07c-.13-.09.31-.34.64-.4,0,0,.06.08.09.1.67,0,1,.11,1.64.12.06,0,.35.1.21.16a.78.78,0,0,1,.37,0c.34.18-.42,0-.16.15,0-.08.49,0,.77-.06-.06-.14-.62-.12-.89-.1,0-.19.51-.31,1.19-.29.52.05.2.16.29.15.94.29.91-.14,1.65.27.27.22-.06.23,0,.33-.41-.11-.59-.28-.87-.34l.32.14a1.59,1.59,0,0,1-.56-.11,16.57,16.57,0,0,1,2.21.9c.13,0,.36.09.28,0l-.22-.09c-.16-.18.46.07.21-.1a2.5,2.5,0,0,1,1.07.42v.16s-.21-.22-.34-.25c.19,0,.5.52.77.47l-.22-.24a2.6,2.6,0,0,1,1,.48c-.08-.22-.09-.05-.24-.35.11.29-.9-.56-.65-.17-.17-.3-.4-.35-.68-.66,0,.05.08.14-.22,0h-.08a.59.59,0,0,1,.12.14,5.38,5.38,0,0,1-.87-.25c-.18-.11.1,0,0-.1l-.28,0c0-.1-.45-.34,0-.23l-.41-.15a2.08,2.08,0,0,0-.77-.31c-.2-.08-.54,0-.34-.06l-.68-.11v0a4.92,4.92,0,0,0-1-.14,7.52,7.52,0,0,1-1.1-.2,4.8,4.8,0,0,1-.84,0l-.07-.09a4,4,0,0,0-1,0c-.33-.25-1.42.09-1.93.14v.11a6.29,6.29,0,0,0-1.08.34l.05.09c-.34.15-.94.22-1.5.44a.46.46,0,0,1,.28-.11c-.77,0-1.3.75-1.94.89a.72.72,0,0,1-.34.2s0,0,0,0l-.05,0-.22.07.19-.05a4.71,4.71,0,0,0-.41.29l-.12-.05,0,0c-.17.06-.09.12,0,.13a.73.73,0,0,0-.17.19c-.21,0-.35.34-.62.31a1.84,1.84,0,0,1-.36.38c-.15.18-.28.36-.26.46s-.06,0,0-.05a1.51,1.51,0,0,0-.43.4l-.16,0a2.89,2.89,0,0,0-.18.44c-.24.14-.35.19-.25-.08-.31.59-.31.43-.55.94l-.05-.07c-.12.16-.21.48-.34.53a12.28,12.28,0,0,0-1.82,2.75c.31-.1-.31.44-.13.57-.08,0-.17.17-.16,0-.13.57-.41.79-.33,1.23-.08.05-.06-.14-.11-.1s0,.2,0,.25,0-.1,0-.2c-.14.59,0,.69.19.77a.64.64,0,0,0-.1.65c-.07.09-.15.25-.12-.11,0,.2-.28,1.23-.13,1.27a.78.78,0,0,0,0,.34c0,.46-.05.5-.05.95l0-.13c.15.18,0,.38.07.74h0c-.07.84.05.35,0,1.18l.1-.06c.23.05,0,.74.13,1.2l0-.18c.11.24-.13.77-.09,1,0,.06-.06-.08-.09-.15,0,.71.16,0,.32.54-.05.11-.23-.06-.13.28,0,.18.56.87.62,1.36,0-.12,0-.23.16,0s.22,1,.55,1.2c0,.05,0,.07,0,.08a5.16,5.16,0,0,0,.71.83c-.15.42,1.16,1.28.92,1.46l.6.63h0a1.55,1.55,0,0,0,.77.54c.08.1,0,.06,0,.07a2.54,2.54,0,0,0,1.28.88v.13a6.93,6.93,0,0,0,1.64,1.06.13.13,0,0,1-.1,0,10.27,10.27,0,0,1,1.28.65c.42.2.8.35,1,.22a5.61,5.61,0,0,0,.59.06c-.72-.22.15-.14-.12-.28.28,0,.69.31.34.24l-.05,0c-.18.17.88.32.84.43a16.31,16.31,0,0,0,4.32.3l-.17-.14.48-.06c.13,0,.19.1-.16.14a.74.74,0,0,0,.57-.2c.68,0-.23.23,0,.2l.28,0h-.06a1.79,1.79,0,0,1,.63-.25c.26,0,.15.06.26,0s0,0,.15,0l.6-.14-.27-.06c.25-.12.56-.14.24-.2a3.53,3.53,0,0,0,1.29-.33c.51-.21,1-.47,1.11-.49a7.39,7.39,0,0,1,1-.68c-.11,0-.24-.05.1-.24.05.34.68-.3,1.06-.34-.16,0,.06-.14.26-.31s.36-.37.13-.29c.26-.21.09.07.32-.05a23,23,0,0,0,1.91-2s-.17.06-.09-.14l.47-.31c.1-.17-.06-.26.23-.49-.05,0-.13.06-.08,0,1.23-1.54,1.65-3.56,2.3-5.42-.11.25-.09.08-.06-.13,0,.13-.1,0-.16,0,.09-.26.19-.52.26-.79-.13-.16,0-.88-.1-1l0,.26c-.15-.35-.39.46-.6.38.19.4-.4.93-.21,1.57-.07.12-.05-.13-.11-.07a.93.93,0,0,1-.09.68v0a8.46,8.46,0,0,1-.9,2.26l.13,0a2,2,0,0,1-.24.32c0,.31.29-.58.35-.29a2.16,2.16,0,0,0-.52.81c-.18.36-.41.67-.56.7-.18.3.16,0,0,.27l-.1.05,0,.12c-.13.2-.28.23-.33.21a1.22,1.22,0,0,0,.12-.19,7,7,0,0,0-.57.76l.24-.25a18.77,18.77,0,0,1-2,2.32h.08c-.49.54-.49.31-1.08.83v0a1.31,1.31,0,0,1-.45.37c.14-.15-.38.1-.19-.09-.62.48-.28.28-.65.69l-.14,0a1.09,1.09,0,0,1-.47.38c.26-.2-.28,0,0-.24-.79.21-1.07.62-1.5.52-.29.35.71-.12.53,0,.19,0-.24.27-.5.34s-.52-.15-1.15,0c.06,0,.06,0,.12-.05-.25,0-.44.22-.76.16-.15.16-.39,0-.42.23l.6-.13a3,3,0,0,1-1.21.33,1.38,1.38,0,0,1,.32-.15c-.17,0-.32.09-.49,0,0-.16.73-.14,1.07-.32-.19-.05-.67.23-.51,0-.23.29-.64.07-1.08.26l0-.11a1.3,1.3,0,0,1-.35.08l.23-.14c-.35.13-.69-.06-1,0,.72,0,.16.15.46.22-.9.11-.51-.29-1.49-.29.13,0,.49.09.28.13a1.32,1.32,0,0,1-.54-.18c-.65-.08.09.12-.2.15-.2-.16-.33,0-.63,0l0-.1c-.72-.21-.24.18-.89-.06l.31-.07-.35-.06.1-.09a1.76,1.76,0,0,1-.85-.21c.06.1-.11.16-.43,0s.16,0-.29-.2a.4.4,0,0,1,.42.1s.12,0,.15,0a2.58,2.58,0,0,0-.73-.28.67.67,0,0,1,.17.08,3.83,3.83,0,0,1-.69-.13c-.08-.09,0-.08.1-.07-.13-.05-.24-.05-.43-.13.09,0,.11-.14.39,0l-.63-.19c0-.05-.25-.24-.16-.23-.27-.24-.84-.31-1.2-.63a.44.44,0,0,1-.17-.07,7.44,7.44,0,0,0-1.07-.86l-.12-.32c-.33-.25.17.42-.39,0-.4-.29,0-.21-.13-.37a1.85,1.85,0,0,1-.84-.75A2,2,0,0,1,24.31,47.64Zm-2.66-4.39c.06.09.19.25.16.34C21.66,43.53,21.68,43.43,21.65,43.25Zm-.55-7.81a.56.56,0,0,1-.11.31A1.16,1.16,0,0,1,21.1,35.44ZM38.87,25.35h0C38.65,25.23,38.72,25.28,38.87,25.35Zm.45.22c.06,0,.06,0,0,0a.69.69,0,0,1-.26-.08S39.18,25.54,39.32,25.57ZM37.61,52.66h-.1C37.71,52.57,37.66,52.61,37.61,52.66Z"/><path class="cls-11" d="M21,36.36s0,0-.06,0S21,36.43,21,36.36Z"/><path class="cls-11" d="M26.73,49.72h0Z"/><path class="cls-11" d="M31.9,25.72a.71.71,0,0,1-.19,0S31.75,25.74,31.9,25.72Z"/><path class="cls-11" d="M41.78,26.59l-.29-.15a1.41,1.41,0,0,1,.23.18S41.69,26.53,41.78,26.59Z"/><path class="cls-11" d="M43.56,28.76l.11.08,0,0C43.55,28.67,43.42,28.61,43.56,28.76Z"/><path class="cls-11" d="M41.84,27c0,.09.17.15.35.28l0,0C42.28,27.23,42.07,27.12,41.84,27Z"/><path class="cls-11" d="M42.23,27.34l.16.12S42.33,27.41,42.23,27.34Z"/><path class="cls-11" d="M39.93,25.75c.09.06.11-.08.15,0S39.38,25.56,39.93,25.75Z"/><polygon class="cls-11" points="41.83 27.38 41.83 27.24 41.67 27.25 41.83 27.38"/><path class="cls-11" d="M40.39,26.46l.3.18s0,0,.1,0C40.6,26.55,40.39,26.43,40.39,26.46Z"/><path class="cls-11" d="M40.79,26.64a1,1,0,0,0,.25.13C41,26.74,40.87,26.67,40.79,26.64Z"/><polygon class="cls-11" points="41.41 27.16 41.34 27.09 41.13 26.95 41.41 27.16"/><path class="cls-11" d="M36.87,25.23l-.38,0s0,.07.19.07S36.92,25.28,36.87,25.23Z"/><path class="cls-11" d="M37.9,25.8c-.09-.05-.09-.08-.13-.13l-.05.13Z"/><path class="cls-11" d="M36.85,25.57c-.05,0-.55,0-.09.09C36.8,25.62,37.17,25.66,36.85,25.57Z"/><polygon class="cls-11" points="31.27 25.46 31.36 25.43 31.3 25.21 31.27 25.46"/><path class="cls-11" d="M27,27.83c.4-.18,0-.17.38-.32.06-.1-.3.12-.23,0C26.94,27.72,26.81,27.76,27,27.83Z"/><path class="cls-11" d="M27.14,27.54l.09-.1A.32.32,0,0,0,27.14,27.54Z"/><polygon class="cls-11" points="48.5 39.69 48.56 39.39 48.47 39.58 48.5 39.69"/><path class="cls-11" d="M48.36,39.11l.15-.07-.12-.17A.63.63,0,0,1,48.36,39.11Z"/><path class="cls-11" d="M21.7,42.44h0s0,.12,0,.24Z"/><polygon class="cls-11" points="23.1 45.84 23.07 45.78 23.02 45.96 23.1 45.84"/><path class="cls-11" d="M25.16,48.14a2.44,2.44,0,0,1-.29-.27C25.06,48.06,25.08,48.28,25.16,48.14Z"/></g></g></svg>