<svg xmlns="http://www.w3.org/2000/svg" viewBox="0 0 167.47 77.87"><defs><style>.cls-1{fill:#232323;}</style></defs><g id="圖層_2" data-name="圖層 2"><g id="圖層_1-2" data-name="圖層 1"><path class="cls-1" d="M0,73l1.56-.83L.11,71.27l1.59-.55L.24,69.87l1.56-.42-1.12-1,1.43.65-1-1.22,1.43.65-.49-1.51,1.8,1.52,1.68-1.53,1.69,1.53,1.69-1.53,1.66,1.53.77-.56-1.52-.19,1.5.34L9.81,68l.74-.55,1.19,1.24.54-1.76L13.73,68l.43-1.79,1.5,1.05.6-1.89,1.82.82.38-2,1.91.59.11-2,1.46.7-.87-1.38,1.61.21-1.26-1L23,61l-1.62-.52,1.25-1.14H21l.94-1.4-1.63.36-.6-2.81-2.83-.53-.9-2.73L13.06,52l-1.17-2.63-3-.23L8,46.28l-2.88-.76-.47-2.94L1.79,41.13,3.41,40,2,38.78l1.63-.9L2.23,36.65l1.63-.87L2.74,34.25l1.88-.55-.79-1.79,1.94-.17-.4-1.9,2,.1-.22-2,2,.2-.13-2,1.93.31.46-2.16,2.19.45.7-2.12,2.13.67.9-2,2,.85,1-1.95,1.93,1.06,1.24-1.83,1.73,1.26,2.28-1.53,2.29,1.53,2.29-1.53,2.3,1.53,2.31-1.53,1.19,1.75,1.74-1.13.8,1.91,1.89-.83.15,1.53,1.35.75-1.65.55,1.36,1.08-1.65.55L42.83,27l-1.92-1.46L39.32,27l-1.6-1.53L36.13,27l-1.5-1.52-1.39.76L33,24.42l-1.53,1.09-.83-1.68-1.1,1.5L28,24l-.89,1.79-1.68-1.07-.66,1.89L23,25.77l-.58,2-1.95-.69-.44,2-2-.54-.26,2L16,30.08l.33,1.8-1.8-.34L15,33.3l-1.81-.2.68,1.64-1.78,0,1,1.45-1.72.46,1.36,1.1-1.42.81,1.66.23L12,40.1l1.65-.31L13,41.34l2.82.48.89,2.72,2.85.28,1,2.67,2.85.15,1.18,2.76,3,.61.6,3,2.77,1.17,0,2.92,1.51.92-1.58,1.14,1.39,1.36-1.7,1L31.78,64l-1.9.33.62,1.79-1.88-.16.23,1.87-1.79-.54-.7,2.2-2.26-.53-.93,2.12L21,70.31l-1.13,2-2-1-1.2,1.89L14.7,72.11l-1.33,1.8-1.78-1.27L9.74,74.17,7.87,72.64,6,74.17,4.11,72.64,2.18,74.17l.07-1.59-.92,1.27.32-1.54L1,73.64Z"/><path class="cls-1" d="M40.83,71.23l1.4-3.08-1.58-3,1.55-3L40.74,59l1.65-3L41,52.76l1.72-3.06-1.29-3.25,1.78-3L42,40.1l1.88-1.85-1.14-2.37L44.66,34l-1.13-2.38,1.87-1.82L44.16,28.5l1.74-.63-1.23-1.38,1.73-.63-1.23-1.35L47,22.67l-1.13-2.38,1.88-1.86L46.66,16l1.88-1.88-1.47-1.31,1.59-1.08-1.45-1.25,1.61-1L47.38,8.2l1.69-1.36L47.78,5.11l1.78-1.22-1.18-1.8,1.28-.59L51.29,0,53.1,1.53,54.92,0l1.83,1.53,2-1.51L57.53,1.84,58.76,3.4,57,4.38l1.36,1.45L56.8,7l1.5,1.05L56.71,9l1.45,1.11-1.6.89L58,12.18l-2,2.66L57,18l-2,2.65,1,3.19-2,2.65,1,2.63-2,2,1,2.65-2,2,1,2.62-1.62,1,1.42,1.34-1.62,1.08,1.42,1.35L51,44.36l.32-.73,1.48.55-1-1.24,1.46.62-1-1.23,2.32-.5V39.46l2.35-.29.2-2.36,2.36-.09.32-2.14,2.12.51.78-2,1.94,1,1.25-1.78,1.64,1.37L68.9,32l1.55,1.47,1.48-1.53,1.24,1.52,1.27-1-.15,1.69,1.42-.94-.15,1.7,1.66-.72-.4,3.71,2.24,2.75-1,3.42,1.83,3-1.46,3.25,1.68,3.45-1,3.7,2.23,3.12-.5,3.81,2.38,3.7-2.36-1.38L79,68.29l-1.89-1.53-1.9,1.53-1.62-1.47L71.3,64.9l.46-3.48-2.2-2.74,1.1-3.33L69,52.25l1.47-2.74-1.73-2.59L69.91,44l-2-2.35.56-3.32L67.35,40.2l-1.92-.41.15,2-1.94-.2.3,1.93-2.15.2L62,45.82l-2.15.28.32,2.14L58,48.62l.15,2.82-2.45,1.38.39,2.78-2.32,1.57.6,2.74-2.28,2,.75,3-2.11,2.2L51.72,70l-1.55,1.75-1.51,1.47L46.84,71.7,45,73.23,43.2,71.7l-1.93,1.52.9-.87-1.46-.51,1.55,0-1.16.24Z"/><path class="cls-1" d="M91,70.06l.11-1.8-1.73.54L89.75,67,88,67.35l.58-1.68-2.49-1.29.41-2.81-2.22-1.76.91-2.69L83.26,55l1.32-2.66L83,49.82l1.69-2.43-1.18-2.73,2-2.19-1.07-2.09,2-1.27-.86-2.17,2.08-1.07L87,33.62l2.28-.92-.11-2.46,2.43-.46.31-2.44,2.45-.08.09-1.87,1.74.77.33-1.87,1.65.94.49-1.86,1.47,1.19.71-1.73,1.37,1.29.82-1.69,1.2,1.39,1.63-1.53,1.65,1.53,1.65-1.53,1.65,1.53,1.69-1.53,1.56,1.92,2.31-.74.85,2.27h2.42l.11,2.4,2.29.79-.47,2.4,2.16,1.15-.82,2.31,2,1.45-1.15,2.39,1.6,2.11-1.69,2,1.13,2.4-2,1.74.78,2.8-2.28,1.8.42,2.86-2.47,1.52.11,2.9-2.68,1.3-.31,3-2.82,1-.67,2.9-2.91.58-.14,2-1.91-.63-.5,1.95-1.76-1-1,1.85-1.72-1.53-1.69,1.53-1.68-1.53-1.69,1.53-1.69-1.53-1.12,1.43-.7-1.7-1.43,1.16-.29-1.81Zm14.49-8.9h1.93l-.48-1.89,1.95,0-.52-1.87,1.94-.11-.43-2.14,2.11-.56-.63-2.09,2.05-.74-.77-2,1.94-.9-1-1.9,1.86-1.07L114.26,44,116,42.8l-1.45-.87,1.56-.63-1.52-.72,1.51-.74-1.13,0-.11-1.45-.43,1.53L114,38.41l-.44,1.53.07-1.34-1.15-.49,1.58-.91-1.54-1L113.94,35l-1.76-.49,1.17-1.21-1.67,0L112.77,32l-1.66.12.81-1.54L111,31.88l.28-1.51-.64,1.4.28-1.52-1,1.16,1.27-.89-1.54.13,1.43-.58-1.54.12,1.35-.79-1.8.36,0-1.78-1.42,1.08-.59-1.68-1,1.46-1-1.34-.26,1.7-1.33-1.07,0,1.71-1.45-.9,0,1.76L100.56,30l.23,1.76-1.68-.56.46,1.7-2.06.1.41,2-2,.35.68,2-2,.66.94,1.86-1.89.89,1.09,1.78-1.82,1,1.18,1.68L92.38,47,93.82,49l-1.5,2L94,52.87l-1.17,2.21,2,1.4L94,58.74l2.15,1.08-.47,2.35,2.28.75-.65,1.64L99,64.13l-.21,1.75,1.5-.94.57,1.74-.28-1.49.91,1.23L100.84,65l.91,1.23-.66-1.38,1.85.6,0-1.94,1.91.37L104.69,62Z"/><path class="cls-1" d="M123.65,67.26l1.69-1.69-1.34-2,1.73-1.66-1.28-2,1.77-1.6-1-3.37,2-2.84-1-3.38,2.06-2.85-1-3.4,2-2-.93-2.65,2.05-1.93-.93-2.66,2.05-2L130.05,30l1.5-1.22-1.44-1.29,1.68-1L130.55,25l1.69.05-1.08-1.26,1.65.13-1.07-1.27,1.72,0-1.12-2.44,1.88-1.85-1.13-2.39L135,14l-1.13-2.42,1.67-.27-1.28-1.07,1.66-.22L134.61,9l1.17.3,1.52-1.49,1.76,1.53,1.76-1.53,1.77,1.53,2.07-1.47-1.18,1.29,1.38,1-1.64.46,1.38,1-1.62.79,1.41-1.24,1.3,1.24.65-1.67,1.1,1.42.87-1.56L149.79,12l1.42-1.56L152.67,12l1.44-1.54L155.55,12l1.23-1.48,1,1.66,1.48-1.24.61,1.83,1.72-.88.16,1.91,1.85-.5-.23,1.9,1.9-.14-.56,1.78,1.81.32-1.07,1.54,1.75.65-1.32,1.33,1.61,1-1.58,1.11L167.32,24l-1.67.94L167,26.33l-1.72.77,1,1.67-1.91.47.76,1.82-2,.23.54,1.88-1.95.08.34,1.93-2-.18.11,2-1.93-.38-1.14,2.72-3,0-1.54,2.52-2.92-.41L147.8,43.7l-2.47-.89-1.79,1.94-2.32-1.23-2.07,1.63L136.32,44l1,2.86-1.93,2.12,1.09,2.65-1.93,2.13,1.08,2.65-1.73,1.44,1.31,1.85-1.7,1.51L134.89,63l-1.65,1.54,1.37,1.62L133,67.49l1.43,1.58-1.59,1.41,1.46,1.26-.7,1,.49-1.46-.12,1.54.49-1.46-.73.87,1.4.69-1.62.38,1.4.91-1.62.38,1.36,1L133,75.36l1.14,1.09L132.65,76l1.14,1.1-1-.78-1.55,1.51-1.68-1.53-1.69,1.53-1.69-1.53-2,1.48.87-2.72-1.63-1.87,1.5-2-1.47-2Zm28.08-35.11,2,.25-.24-2,2,0-.5-1.92,2-.36-1.2-1.2,1.67-.16-1.21-1.17,1.68-.16-1.24-1.09,1.48-1.27-1.74-1.07,1-1.79-2-.46.4-2-1.73.34.32-1.75-1.58.8-.23-1.76-1,1.25-1.86-.94-.73,2.06-2.14-.46-.31,2.17-2.19-.05.39,1.83-1.87-.14.6,1.77-1.87.1.85,1.66-1.8.46,1.16,1.47-1.71.76,1.37,1.28-1.6,1,1.45.85-1.59.57,1.45.87-1.59.58,1.43,1-.85-.95L140,34.06l-.11-1.53-.12,1.53-.8-1.11,1.3,1-1.6.1,1.36.85-1.6.1,1.38.68-.65.75.11-1.53.11,1.53.12-1.53-.61,1,1.37.55-1.62.44,1.43.85-1.57.56,1.39.18-.73,1.26.62-1.4-.41,1.48.62-1.41v1.52L141,38l1.95.93.87-2,2,.81.73-2,1.87.68.26-2,1.94.51.11-2Z"/></g></g></svg>