<svg xmlns="http://www.w3.org/2000/svg" viewBox="0 0 359.14 233.74"><defs><style>.cls-1{fill:none;stroke:#fff;stroke-miterlimit:10;stroke-width:0.66px;}.cls-2{fill:#3b3c3b;}.cls-3{fill:#4b3c31;fill-rule:evenodd;}.cls-4{fill:#9d7d36;}.cls-5{fill:#ccbb98;}.cls-6{fill:#bcaf92;}.cls-7{fill:#876b2c;}.cls-8{fill:#80652a;}.cls-9{fill:#c1b395;}.cls-10{fill:#a88539;}.cls-11{fill:#7d632b;}.cls-12{fill:#bbab8c;}.cls-13{fill:#765e28;}.cls-14{fill:#b1a388;}.cls-15{fill:#9c9c9b;}</style></defs><g id="圖層_2" data-name="圖層 2"><g id="圖層_1-2" data-name="圖層 1"><polygon class="cls-1" points="134.93 0.38 0.58 164.57 238.09 233.35 358.6 61.2 134.93 0.38"/><path class="cls-2" d="M223.07,98.3l78.22,19.11a.65.65,0,0,1,0,1,.81.81,0,0,1-.42.19.75.75,0,0,1-.6-.2L224.93,99.7l-1.86-1.4Z"/><path class="cls-3" d="M87.48,110.61c3.33,1.41,3.68,4.32.79,6.5A12.53,12.53,0,0,1,77,118.47c-3.32-1.41-3.68-4.32-.79-6.49a12.51,12.51,0,0,1,11.26-1.37"/><path class="cls-3" d="M171.29,72.31c-2,1.52-1.78,3.56.55,4.55a8.77,8.77,0,0,0,7.89-1c2-1.53,1.78-3.57-.55-4.56a8.8,8.8,0,0,0-7.89,1Z"/><polyline class="cls-4" points="256.57 118.07 189.57 168.44 173.09 180.83 66.74 135.53 150.22 72.78 211.88 99.03 256.57 118.07"/><path class="cls-4" d="M212.24,90.89a206.72,206.72,0,0,0,35.07,25.48l-29.3,22-5.77-47.5m-26.18,71.52L210,89.75l6.09,50.1-30,22.56M208,81l-3,.36-31.95,99.43,83.49-62.76A337.58,337.58,0,0,1,208,81"/><path class="cls-5" d="M218,138.39,213.3,99.64,236,109.33q5.47,3.61,11.28,7h0l-29.3,22"/><path class="cls-6" d="M236,109.33,213.3,99.64l0-.15q.78-3.17,1.48-6.31c4.09,3.62,8.47,7.1,13.1,10.46q4,2.91,8.17,5.69"/><path class="cls-5" d="M218,138.39l-4.73-38.9h0l0,.15L218,138.39l29.3-22h0l-29.3,22m29.3-22q-5.79-3.42-11.28-7-4.18-2.77-8.17-5.69c6.09,4.43,12.61,8.65,19.45,12.73"/><path class="cls-5" d="M196.15,154.82q3.58-9.76,6.78-19.43h0c1.3-4,2.56-7.92,3.75-11.85l3.11-9.59-.64,1.17q1.42-5,2.71-10l4.22,34.69-19.93,15"/><path class="cls-2" d="M224.09,154.37a.61.61,0,0,1-.67-.53l-8.36-68.73a.61.61,0,0,1,1.21-.14l8.35,68.73a.6.6,0,0,1-.53.67Z"/><path class="cls-4" d="M50.66,128.69l83.49-62.75L83.3,27.16C79.54,62.28,68.11,96,50.66,128.69"/><path class="cls-7" d="M216.72,84a437,437,0,0,1-13.79,51.42c-5.42,16.45-11.78,33.18-18.85,50.12l-11-4.68L91.47,146.07,66.73,135.53l-16.06-6.84q5-12.37,9.48-24.74l.74-2c.79-2.21,1.59-4.44,2.35-6.64A662.52,662.52,0,0,0,83.29,27.15c39.78,19.33,85,38.19,133.43,56.82"/><path class="cls-8" d="M118.71,97.88l12.27,17-21.51-9.17,9.24-7.87m-.49-4L103.63,106l33.9,14.44L118.22,93.88"/><polyline class="cls-9" points="128.02 113.66 127.82 113.57 116.45 99.81 116.46 99.8 128.02 113.66"/><polyline class="cls-4" points="131.08 83.35 115.22 98.31 138.9 126.7 131.08 83.35"/><polyline class="cls-10" points="97.89 110.26 131.08 83.35 115.22 98.31 97.89 110.26"/><path class="cls-11" d="M184.08,185.51l-11-4.68-7.25-3.09-.55-3.47-.15-1,0-.35c3.87,1.59,7.93,2.8,11.78,2.33a12.27,12.27,0,0,0,3.77-1.08c4.65-2.2,7.2-7.19,9.41-11.84q6.45-13.46,12.89-26.94-3.18,9.66-6.78,19.43h0q-5.58,15.21-12.07,30.69m-23.22-9.89L91.47,146.07l-16.76-7.14-.06-.38v0L74,134.64A85.57,85.57,0,0,0,87.85,142l4.53,1.94c22.49,9.47,45.89,16.79,68.06,26.94l.14,1.56.28,3.19M50.67,128.69q5-12.37,9.48-24.74c-.07.65-.12,1.3-.16,2a36.6,36.6,0,0,0,.68,11.64,25,25,0,0,0,5.2,9.88l.7,8"/><path class="cls-11" d="M65.25,120.36a57.37,57.37,0,0,1-4.36-18.42c.75-2.08,1.49-4.18,2.21-6.25l.23,2.51.24,7.86a41.2,41.2,0,0,0,.46,6.09,25.59,25.59,0,0,0,.78,3.22l.44,5"/><path class="cls-12" d="M206.68,123.54c.85-2.81,1.68-5.62,2.47-8.42l.64-1.17-3.11,9.59"/><path class="cls-11" d="M178.69,169.16c5.09-7.12,9.27-14.83,13.43-22.53l17-31.51c-.79,2.8-1.62,5.61-2.47,8.42-.38,1.16-.75,2.33-1.13,3.49a30.26,30.26,0,0,1-2.16,5.46c-1.14,2.06-2.75,3.83-4.08,5.78a88.77,88.77,0,0,0-4.92,9.18c-4.15,7.93-9.95,14.85-15.7,21.71"/><polyline class="cls-11" points="138.9 126.7 111.36 121.31 97.89 110.26 103.88 106.13 131.33 117.82 138.9 126.7"/><polyline class="cls-13" points="131.33 117.82 103.88 106.13 115.22 98.31 116.45 99.81 109.47 105.75 127.82 113.57 131.33 117.82"/><polyline class="cls-14" points="127.82 113.57 109.47 105.75 116.45 99.81 127.82 113.57"/><path class="cls-15" d="M184.48,217.73a.88.88,0,0,0-.54-.4,1,1,0,0,0-.72.09.54.54,0,0,1-.72-.19.49.49,0,0,1,.22-.69,2.17,2.17,0,0,1,1.52-.18,1.93,1.93,0,0,1,1.19.87l1.29,2.18-1.16.14-1.08-1.82Z"/><path class="cls-2" d="M198.89,144.07l-14.58,74.09a.64.64,0,0,0,.25.92.78.78,0,0,0,1-.25l14.17-74-.84-.74Z"/><path class="cls-15" d="M301,117a.88.88,0,0,1,.43-.52.94.94,0,0,1,.72-.08.56.56,0,0,0,.66-.36.5.5,0,0,0-.39-.62,2.12,2.12,0,0,0-1.52.2,1.91,1.91,0,0,0-.94,1.13l-.73,2.42,1.16-.14.61-2Z"/></g></g></svg>