<svg xmlns="http://www.w3.org/2000/svg" viewBox="0 0 237.86 93.28"><defs><style>.cls-1{fill:#ff8b2c;}.cls-2,.cls-3{fill:none;stroke-miterlimit:10;}.cls-2{stroke:#ffc764;stroke-width:1.27px;}.cls-3{stroke:#353535;stroke-width:3.3px;}.cls-4,.cls-5{font-size:25.94px;}.cls-4,.cls-6,.cls-7{fill:#343535;}.cls-4,.cls-5,.cls-7{font-family:HiraKakuStdN-W8-83pv-RKSJ-H, Hiragino Kaku Gothic StdN;}.cls-5{fill:#fff;}.cls-7{font-size:12.5px;}</style></defs><g id="圖層_2" data-name="圖層 2"><g id="圖層_1-2" data-name="圖層 1"><path class="cls-1" d="M8.29,13.51A11.23,11.23,0,0,1,0,24.35V30.1A11.22,11.22,0,0,1,8.29,40.94,11.23,11.23,0,0,1,0,51.78v5.75A11.22,11.22,0,0,1,8.29,68.37,11.23,11.23,0,0,1,0,79.21V85a11.24,11.24,0,0,1,8,8.32h215.8a11.23,11.23,0,0,1,10.94-8.71,11,11,0,0,1,3.11.44V79.16a11.4,11.4,0,0,1-3.11.44,11.23,11.23,0,1,1,0-22.46,11,11,0,0,1,3.11.44V51.73a11.4,11.4,0,0,1-3.11.44,11.23,11.23,0,1,1,0-22.46,11,11,0,0,1,3.11.44V24.3a11.4,11.4,0,0,1-3.11.44,11.23,11.23,0,1,1,0-22.46,11,11,0,0,1,3.11.44V0H0V2.67A11.22,11.22,0,0,1,8.29,13.51Z"/><line class="cls-2" x1="237.86" y1="53.55" y2="53.55"/><line class="cls-2" x1="237.86" y1="1.73" y2="1.73"/><line class="cls-2" x1="227.22" y1="5.18" x2="4.6" y2="5.18"/><line class="cls-2" x1="224.63" y1="8.64" x2="7.18" y2="8.64"/><line class="cls-2" x1="223.61" y1="12.09" x2="8.2" y2="12.09"/><line class="cls-2" x1="223.71" y1="15.55" x2="8.11" y2="15.55"/><line class="cls-2" x1="224.96" y1="19" x2="6.86" y2="19"/><line class="cls-2" x1="227.97" y1="22.46" x2="3.84" y2="22.46"/><line class="cls-2" x1="237.86" y1="25.91" y2="25.91"/><line class="cls-2" x1="237.86" y1="29.37" y2="29.37"/><line class="cls-2" x1="226.99" y1="32.82" x2="4.82" y2="32.82"/><line class="cls-2" x1="224.53" y1="36.27" x2="7.28" y2="36.27"/><line class="cls-2" x1="223.59" y1="39.73" x2="8.23" y2="39.73"/><line class="cls-2" x1="223.75" y1="43.18" x2="8.07" y2="43.18"/><line class="cls-2" x1="225.08" y1="46.64" x2="6.74" y2="46.64"/><line class="cls-2" x1="228.25" y1="50.09" x2="3.56" y2="50.09"/><line class="cls-2" x1="237.86" y1="57" y2="57"/><line class="cls-2" x1="226.78" y1="60.46" x2="5.03" y2="60.46"/><line class="cls-2" x1="224.44" y1="63.91" x2="7.37" y2="63.91"/><line class="cls-2" x1="223.57" y1="67.37" x2="8.25" y2="67.37"/><line class="cls-2" x1="223.79" y1="70.82" x2="8.02" y2="70.82"/><line class="cls-2" x1="225.2" y1="74.28" x2="6.61" y2="74.28"/><line class="cls-2" x1="228.55" y1="77.73" x2="3.26" y2="77.73"/><line class="cls-2" x1="237.86" y1="81.19" y2="81.19"/><polyline class="cls-2" points="0 84.64 233.48 84.64 236.02 84.64 237.86 84.64"/><line class="cls-2" x1="226.58" y1="88.1" x2="5.23" y2="88.1"/><line class="cls-2" x1="224.35" y1="91.55" x2="7.46" y2="91.55"/><rect class="cls-3" x="19.86" y="8.64" width="195.54" height="76"/><line class="cls-3" x1="42.67" y1="8.64" x2="42.67" y2="84.64"/><line class="cls-3" x1="189.84" y1="8.64" x2="189.84" y2="84.64"/><text class="cls-4" transform="translate(62.41 71.54)">TICKET</text><text class="cls-5" transform="translate(62.41 39.76)">1<tspan class="cls-6" x="20.05" y="0" xml:space="preserve"> days</tspan></text><text class="cls-7" transform="translate(25.91 18.56) rotate(90)">365478</text><text class="cls-7" transform="matrix(0, 1, 1, 0, 209.35, 18.56)">365478</text></g></g></svg>